M48
;DRILL file {KiCad (5.0.0-rc2-dev-444-g2974a2c10)} date 11/25/19 14:51:09
;FORMAT={-:-/ absolute / inch / decimal}
FMAT,2
INCH,TZ
T1C0.0130
T2C0.0200
T3C0.0295
T4C0.0394
T5C0.1063
%
G90
G05
M72
T1
X4.025Y-4.035
X4.025Y-4.465
X4.125Y-4.275
X4.305Y-3.85
X4.33Y-4.6
X4.515Y-4.405
X4.565Y-4.25
X4.93Y-4.25
X5.145Y-4.4
X5.215Y-4.07
X5.32Y-4.07
X5.345Y-4.245
X5.4Y-4.42
X5.45Y-4.05
X5.47Y-4.42
X5.55Y-4.485
X5.5541Y-4.3109
X5.56Y-4.235
X5.58Y-4.355
X5.6Y-4.05
X5.85Y-4.6
X5.95Y-4.6
X6.055Y-3.9
X6.055Y-4.6
T2
X4.085Y-4.445
X5.215Y-4.4
X5.805Y-4.165
X5.865Y-4.4
T3
X4.1263Y-3.91
X4.205Y-3.91
X6.Y-4.1338
X6.Y-4.2125
X6.Y-4.2913
X6.Y-4.37
T4
X4.4Y-4.65
X4.5Y-4.65
X4.6Y-4.65
X4.7Y-4.65
X4.8Y-4.65
X4.9Y-4.65
X5.Y-4.65
X5.1Y-4.65
X5.2Y-4.65
X5.3Y-4.65
X5.4Y-4.65
X5.5Y-4.65
X5.6Y-4.65
X5.7Y-4.65
X5.8Y-4.65
X5.9Y-4.65
X6.Y-4.65
X4.4Y-4.55
X4.5Y-4.55
X4.6Y-4.55
X4.7Y-4.55
X4.8Y-4.55
X4.9Y-4.55
X5.Y-4.55
X5.1Y-4.55
X5.2Y-4.55
X5.3Y-4.55
X5.4Y-4.55
X5.5Y-4.55
X5.6Y-4.55
X5.7Y-4.55
X5.8Y-4.55
X5.9Y-4.55
X6.Y-4.55
X4.4Y-3.85
X4.5Y-3.85
X4.6Y-3.85
X4.7Y-3.85
X4.8Y-3.85
X4.9Y-3.85
X5.Y-3.85
X5.1Y-3.85
X5.2Y-3.85
X5.3Y-3.85
X5.4Y-3.85
X5.5Y-3.85
X5.6Y-3.85
X5.7Y-3.85
X5.8Y-3.85
X5.9Y-3.85
X4.4Y-3.95
X4.5Y-3.95
X4.6Y-3.95
X4.7Y-3.95
X4.8Y-3.95
X4.9Y-3.95
X5.Y-3.95
X5.1Y-3.95
X5.2Y-3.95
X5.3Y-3.95
X5.4Y-3.95
X5.5Y-3.95
X5.6Y-3.95
X5.7Y-3.95
X5.8Y-3.95
X5.9Y-3.95
X5.7Y-4.05
X5.7Y-4.15
X5.7Y-4.25
X5.7Y-4.35
X5.7Y-4.45
T5
X3.91Y-3.915
X6.2Y-4.585
X6.2Y-3.915
X3.91Y-4.585
T0
M30
