G04 #@! TF.GenerationSoftware,KiCad,Pcbnew,(5.0.0-rc2-dev-444-g2974a2c10)*
G04 #@! TF.CreationDate,2019-12-18T16:23:52-08:00*
G04 #@! TF.ProjectId,ItsyBitsy breadboard,49747379426974737920627265616462,v02*
G04 #@! TF.SameCoordinates,Original*
G04 #@! TF.FileFunction,Legend,Top*
G04 #@! TF.FilePolarity,Positive*
%FSLAX46Y46*%
G04 Gerber Fmt 4.6, Leading zero omitted, Abs format (unit mm)*
G04 Created by KiCad (PCBNEW (5.0.0-rc2-dev-444-g2974a2c10)) date 12/18/19 16:23:52*
%MOMM*%
%LPD*%
G01*
G04 APERTURE LIST*
%ADD10C,0.150000*%
%ADD11C,0.120000*%
%ADD12C,0.100000*%
%ADD13C,0.140000*%
%ADD14C,0.250000*%
%ADD15C,0.200000*%
G04 APERTURE END LIST*
D10*
X110490000Y-104140000D02*
X110490000Y-103505000D01*
X114300000Y-111760000D02*
X114300000Y-111125000D01*
G36*
X134112000Y-108204000D02*
X134493000Y-108204000D01*
X134493000Y-108585000D01*
X134112000Y-108585000D01*
X134112000Y-108204000D01*
G37*
X134112000Y-108204000D02*
X134493000Y-108204000D01*
X134493000Y-108585000D01*
X134112000Y-108585000D01*
X134112000Y-108204000D01*
D11*
X109372428Y-101642857D02*
X109829571Y-101642857D01*
X109601000Y-101871428D02*
X109601000Y-101414285D01*
D12*
X111760000Y-100330000D02*
X111760000Y-97790000D01*
X114300000Y-100330000D02*
X114300000Y-97790000D01*
X116840000Y-100330000D02*
X116840000Y-97790000D01*
X119380000Y-100330000D02*
X119380000Y-97790000D01*
X121920000Y-100330000D02*
X121920000Y-97790000D01*
X124460000Y-100330000D02*
X124460000Y-97790000D01*
X127000000Y-100330000D02*
X127000000Y-97790000D01*
X129540000Y-100330000D02*
X129540000Y-97790000D01*
X132080000Y-100330000D02*
X132080000Y-97790000D01*
X134620000Y-100330000D02*
X134620000Y-97790000D01*
X137160000Y-100330000D02*
X137160000Y-97790000D01*
X139700000Y-100330000D02*
X139700000Y-97790000D01*
X142240000Y-100330000D02*
X142240000Y-97790000D01*
X144780000Y-100330000D02*
X144780000Y-97790000D01*
X147320000Y-100330000D02*
X147320000Y-97790000D01*
X149860000Y-100330000D02*
X149860000Y-97790000D01*
X111760000Y-115570000D02*
X111760000Y-118110000D01*
X114300000Y-115570000D02*
X114300000Y-118110000D01*
X116840000Y-115570000D02*
X116840000Y-118110000D01*
X119380000Y-115570000D02*
X119380000Y-118110000D01*
X121920000Y-115570000D02*
X121920000Y-118110000D01*
X124460000Y-115570000D02*
X124460000Y-118110000D01*
X127000000Y-115570000D02*
X127000000Y-118110000D01*
X129540000Y-115570000D02*
X129540000Y-118110000D01*
X132080000Y-115570000D02*
X132080000Y-118110000D01*
X134620000Y-115570000D02*
X134620000Y-118110000D01*
X137160000Y-115570000D02*
X137160000Y-118110000D01*
X139700000Y-115570000D02*
X139700000Y-118110000D01*
X142240000Y-115570000D02*
X142240000Y-118110000D01*
X144780000Y-115570000D02*
X144780000Y-118110000D01*
X147320000Y-118110000D02*
X147320000Y-115570000D01*
X149860000Y-118110000D02*
X149860000Y-115570000D01*
X152400000Y-118110000D02*
X152400000Y-115570000D01*
D13*
X119483000Y-112137000D02*
X119449666Y-112170333D01*
X119349666Y-112203666D01*
X119283000Y-112203666D01*
X119183000Y-112170333D01*
X119116333Y-112103666D01*
X119083000Y-112037000D01*
X119049666Y-111903666D01*
X119049666Y-111803666D01*
X119083000Y-111670333D01*
X119116333Y-111603666D01*
X119183000Y-111537000D01*
X119283000Y-111503666D01*
X119349666Y-111503666D01*
X119449666Y-111537000D01*
X119483000Y-111570333D01*
X120049666Y-112170333D02*
X119983000Y-112203666D01*
X119849666Y-112203666D01*
X119783000Y-112170333D01*
X119749666Y-112103666D01*
X119749666Y-111837000D01*
X119783000Y-111770333D01*
X119849666Y-111737000D01*
X119983000Y-111737000D01*
X120049666Y-111770333D01*
X120083000Y-111837000D01*
X120083000Y-111903666D01*
X119749666Y-111970333D01*
X120683000Y-112203666D02*
X120683000Y-111503666D01*
X120683000Y-112170333D02*
X120616333Y-112203666D01*
X120483000Y-112203666D01*
X120416333Y-112170333D01*
X120383000Y-112137000D01*
X120349666Y-112070333D01*
X120349666Y-111870333D01*
X120383000Y-111803666D01*
X120416333Y-111770333D01*
X120483000Y-111737000D01*
X120616333Y-111737000D01*
X120683000Y-111770333D01*
X121316333Y-112203666D02*
X121316333Y-111837000D01*
X121283000Y-111770333D01*
X121216333Y-111737000D01*
X121083000Y-111737000D01*
X121016333Y-111770333D01*
X121316333Y-112170333D02*
X121249666Y-112203666D01*
X121083000Y-112203666D01*
X121016333Y-112170333D01*
X120983000Y-112103666D01*
X120983000Y-112037000D01*
X121016333Y-111970333D01*
X121083000Y-111937000D01*
X121249666Y-111937000D01*
X121316333Y-111903666D01*
X121649666Y-112203666D02*
X121649666Y-111737000D01*
X121649666Y-111870333D02*
X121683000Y-111803666D01*
X121716333Y-111770333D01*
X121783000Y-111737000D01*
X121849666Y-111737000D01*
X122983000Y-111537000D02*
X122916333Y-111503666D01*
X122816333Y-111503666D01*
X122716333Y-111537000D01*
X122649666Y-111603666D01*
X122616333Y-111670333D01*
X122583000Y-111803666D01*
X122583000Y-111903666D01*
X122616333Y-112037000D01*
X122649666Y-112103666D01*
X122716333Y-112170333D01*
X122816333Y-112203666D01*
X122883000Y-112203666D01*
X122983000Y-112170333D01*
X123016333Y-112137000D01*
X123016333Y-111903666D01*
X122883000Y-111903666D01*
X123316333Y-112203666D02*
X123316333Y-111737000D01*
X123316333Y-111870333D02*
X123349666Y-111803666D01*
X123383000Y-111770333D01*
X123449666Y-111737000D01*
X123516333Y-111737000D01*
X123849666Y-112203666D02*
X123783000Y-112170333D01*
X123749666Y-112137000D01*
X123716333Y-112070333D01*
X123716333Y-111870333D01*
X123749666Y-111803666D01*
X123783000Y-111770333D01*
X123849666Y-111737000D01*
X123949666Y-111737000D01*
X124016333Y-111770333D01*
X124049666Y-111803666D01*
X124083000Y-111870333D01*
X124083000Y-112070333D01*
X124049666Y-112137000D01*
X124016333Y-112170333D01*
X123949666Y-112203666D01*
X123849666Y-112203666D01*
X124316333Y-111737000D02*
X124483000Y-112203666D01*
X124649666Y-111737000D01*
X125183000Y-112170333D02*
X125116333Y-112203666D01*
X124983000Y-112203666D01*
X124916333Y-112170333D01*
X124883000Y-112103666D01*
X124883000Y-111837000D01*
X124916333Y-111770333D01*
X124983000Y-111737000D01*
X125116333Y-111737000D01*
X125183000Y-111770333D01*
X125216333Y-111837000D01*
X125216333Y-111903666D01*
X124883000Y-111970333D01*
X126016333Y-112170333D02*
X126116333Y-112203666D01*
X126283000Y-112203666D01*
X126349666Y-112170333D01*
X126383000Y-112137000D01*
X126416333Y-112070333D01*
X126416333Y-112003666D01*
X126383000Y-111937000D01*
X126349666Y-111903666D01*
X126283000Y-111870333D01*
X126149666Y-111837000D01*
X126083000Y-111803666D01*
X126049666Y-111770333D01*
X126016333Y-111703666D01*
X126016333Y-111637000D01*
X126049666Y-111570333D01*
X126083000Y-111537000D01*
X126149666Y-111503666D01*
X126316333Y-111503666D01*
X126416333Y-111537000D01*
X126616333Y-111737000D02*
X126883000Y-111737000D01*
X126716333Y-111503666D02*
X126716333Y-112103666D01*
X126749666Y-112170333D01*
X126816333Y-112203666D01*
X126883000Y-112203666D01*
X127416333Y-111737000D02*
X127416333Y-112203666D01*
X127116333Y-111737000D02*
X127116333Y-112103666D01*
X127149666Y-112170333D01*
X127216333Y-112203666D01*
X127316333Y-112203666D01*
X127383000Y-112170333D01*
X127416333Y-112137000D01*
X128049666Y-112203666D02*
X128049666Y-111503666D01*
X128049666Y-112170333D02*
X127983000Y-112203666D01*
X127849666Y-112203666D01*
X127783000Y-112170333D01*
X127749666Y-112137000D01*
X127716333Y-112070333D01*
X127716333Y-111870333D01*
X127749666Y-111803666D01*
X127783000Y-111770333D01*
X127849666Y-111737000D01*
X127983000Y-111737000D01*
X128049666Y-111770333D01*
X128383000Y-112203666D02*
X128383000Y-111737000D01*
X128383000Y-111503666D02*
X128349666Y-111537000D01*
X128383000Y-111570333D01*
X128416333Y-111537000D01*
X128383000Y-111503666D01*
X128383000Y-111570333D01*
X128816333Y-112203666D02*
X128749666Y-112170333D01*
X128716333Y-112137000D01*
X128683000Y-112070333D01*
X128683000Y-111870333D01*
X128716333Y-111803666D01*
X128749666Y-111770333D01*
X128816333Y-111737000D01*
X128916333Y-111737000D01*
X128983000Y-111770333D01*
X129016333Y-111803666D01*
X129049666Y-111870333D01*
X129049666Y-112070333D01*
X129016333Y-112137000D01*
X128983000Y-112170333D01*
X128916333Y-112203666D01*
X128816333Y-112203666D01*
X129316333Y-112170333D02*
X129383000Y-112203666D01*
X129516333Y-112203666D01*
X129583000Y-112170333D01*
X129616333Y-112103666D01*
X129616333Y-112070333D01*
X129583000Y-112003666D01*
X129516333Y-111970333D01*
X129416333Y-111970333D01*
X129349666Y-111937000D01*
X129316333Y-111870333D01*
X129316333Y-111837000D01*
X129349666Y-111770333D01*
X129416333Y-111737000D01*
X129516333Y-111737000D01*
X129583000Y-111770333D01*
D14*
X128162828Y-106208108D02*
X127400828Y-106970108D01*
X128162828Y-106970108D02*
X127400828Y-107732108D01*
X128162828Y-106970108D02*
X128924828Y-107732108D01*
X128162828Y-107732108D02*
X127400828Y-108494108D01*
X128162828Y-107732108D02*
X128924828Y-108494108D01*
X128162828Y-106208108D02*
X128924828Y-106970108D01*
X130702828Y-106970108D02*
X131464828Y-107732108D01*
X130702828Y-106208108D02*
X129940828Y-106970108D01*
X130702828Y-107732108D02*
X131464828Y-108494108D01*
X128162828Y-109764108D02*
X128162828Y-106208108D01*
X129458228Y-109560908D02*
X129458228Y-105750908D01*
X129458228Y-107274908D02*
X128696228Y-108036908D01*
X130702828Y-106208108D02*
X131464828Y-106970108D01*
X129458228Y-106512908D02*
X130220228Y-107274908D01*
X130708400Y-109804200D02*
X130702828Y-106208108D01*
X129458228Y-105750908D02*
X130220228Y-106512908D01*
X129458228Y-106512908D02*
X128696228Y-107274908D01*
X129458228Y-105750908D02*
X128696228Y-106512908D01*
X129458228Y-107274908D02*
X130220228Y-108036908D01*
X130702828Y-106970108D02*
X129940828Y-107732108D01*
X130702828Y-107732108D02*
X129940828Y-108494108D01*
D12*
X151130000Y-111760000D02*
X153670000Y-111760000D01*
X151130000Y-106680000D02*
X151130000Y-111760000D01*
X152400000Y-106680000D02*
X151130000Y-106680000D01*
X153670000Y-109220000D02*
X152400000Y-109220000D01*
X153670000Y-104140000D02*
X153670000Y-109220000D01*
X151130000Y-104140000D02*
X153670000Y-104140000D01*
D10*
X146050000Y-99060000D02*
X110490000Y-99060000D01*
X146050000Y-116840000D02*
X146050000Y-99060000D01*
X110490000Y-116840000D02*
X146050000Y-116840000D01*
X110490000Y-99060000D02*
X110490000Y-102362000D01*
D11*
X126202266Y-109596000D02*
X126202266Y-109262666D01*
X126402266Y-109662666D02*
X125702266Y-109429333D01*
X126402266Y-109196000D01*
X126402266Y-108662666D02*
X125702266Y-108662666D01*
X126368933Y-108662666D02*
X126402266Y-108729333D01*
X126402266Y-108862666D01*
X126368933Y-108929333D01*
X126335600Y-108962666D01*
X126268933Y-108996000D01*
X126068933Y-108996000D01*
X126002266Y-108962666D01*
X125968933Y-108929333D01*
X125935600Y-108862666D01*
X125935600Y-108729333D01*
X125968933Y-108662666D01*
X126402266Y-108029333D02*
X126035600Y-108029333D01*
X125968933Y-108062666D01*
X125935600Y-108129333D01*
X125935600Y-108262666D01*
X125968933Y-108329333D01*
X126368933Y-108029333D02*
X126402266Y-108096000D01*
X126402266Y-108262666D01*
X126368933Y-108329333D01*
X126302266Y-108362666D01*
X126235600Y-108362666D01*
X126168933Y-108329333D01*
X126135600Y-108262666D01*
X126135600Y-108096000D01*
X126102266Y-108029333D01*
X125935600Y-107796000D02*
X125935600Y-107529333D01*
X126402266Y-107696000D02*
X125802266Y-107696000D01*
X125735600Y-107662666D01*
X125702266Y-107596000D01*
X125702266Y-107529333D01*
X126402266Y-107296000D02*
X125935600Y-107296000D01*
X126068933Y-107296000D02*
X126002266Y-107262666D01*
X125968933Y-107229333D01*
X125935600Y-107162666D01*
X125935600Y-107096000D01*
X125935600Y-106562666D02*
X126402266Y-106562666D01*
X125935600Y-106862666D02*
X126302266Y-106862666D01*
X126368933Y-106829333D01*
X126402266Y-106762666D01*
X126402266Y-106662666D01*
X126368933Y-106596000D01*
X126335600Y-106562666D01*
X126402266Y-106229333D02*
X125935600Y-106229333D01*
X125702266Y-106229333D02*
X125735600Y-106262666D01*
X125768933Y-106229333D01*
X125735600Y-106196000D01*
X125702266Y-106229333D01*
X125768933Y-106229333D01*
X125935600Y-105996000D02*
X125935600Y-105729333D01*
X125702266Y-105896000D02*
X126302266Y-105896000D01*
X126368933Y-105862666D01*
X126402266Y-105796000D01*
X126402266Y-105729333D01*
X132418171Y-105024571D02*
X133018171Y-105024571D01*
X132589600Y-105224571D01*
X133018171Y-105424571D01*
X132418171Y-105424571D01*
X132818171Y-105967428D02*
X132418171Y-105967428D01*
X133046742Y-105824571D02*
X132618171Y-105681714D01*
X132618171Y-106053142D01*
X132732457Y-106738857D02*
X132732457Y-106938857D01*
X132418171Y-107024571D02*
X132418171Y-106738857D01*
X133018171Y-106738857D01*
X133018171Y-107024571D01*
X132418171Y-107224571D02*
X132818171Y-107538857D01*
X132818171Y-107224571D02*
X132418171Y-107538857D01*
X132818171Y-107767428D02*
X132218171Y-107767428D01*
X132789600Y-107767428D02*
X132818171Y-107824571D01*
X132818171Y-107938857D01*
X132789600Y-107996000D01*
X132761028Y-108024571D01*
X132703885Y-108053142D01*
X132532457Y-108053142D01*
X132475314Y-108024571D01*
X132446742Y-107996000D01*
X132418171Y-107938857D01*
X132418171Y-107824571D01*
X132446742Y-107767428D01*
X132418171Y-108310285D02*
X132818171Y-108310285D01*
X132703885Y-108310285D02*
X132761028Y-108338857D01*
X132789600Y-108367428D01*
X132818171Y-108424571D01*
X132818171Y-108481714D01*
X132446742Y-108910285D02*
X132418171Y-108853142D01*
X132418171Y-108738857D01*
X132446742Y-108681714D01*
X132503885Y-108653142D01*
X132732457Y-108653142D01*
X132789600Y-108681714D01*
X132818171Y-108738857D01*
X132818171Y-108853142D01*
X132789600Y-108910285D01*
X132732457Y-108938857D01*
X132675314Y-108938857D01*
X132618171Y-108653142D01*
X132446742Y-109167428D02*
X132418171Y-109224571D01*
X132418171Y-109338857D01*
X132446742Y-109396000D01*
X132503885Y-109424571D01*
X132532457Y-109424571D01*
X132589600Y-109396000D01*
X132618171Y-109338857D01*
X132618171Y-109253142D01*
X132646742Y-109196000D01*
X132703885Y-109167428D01*
X132732457Y-109167428D01*
X132789600Y-109196000D01*
X132818171Y-109253142D01*
X132818171Y-109338857D01*
X132789600Y-109396000D01*
X132446742Y-109653142D02*
X132418171Y-109710285D01*
X132418171Y-109824571D01*
X132446742Y-109881714D01*
X132503885Y-109910285D01*
X132532457Y-109910285D01*
X132589600Y-109881714D01*
X132618171Y-109824571D01*
X132618171Y-109738857D01*
X132646742Y-109681714D01*
X132703885Y-109653142D01*
X132732457Y-109653142D01*
X132789600Y-109681714D01*
X132818171Y-109738857D01*
X132818171Y-109824571D01*
X132789600Y-109881714D01*
X132446742Y-110138857D02*
X132418171Y-110196000D01*
X132418171Y-110310285D01*
X132446742Y-110367428D01*
X132503885Y-110396000D01*
X132532457Y-110396000D01*
X132589600Y-110367428D01*
X132618171Y-110310285D01*
X132618171Y-110224571D01*
X132646742Y-110167428D01*
X132703885Y-110138857D01*
X132732457Y-110138857D01*
X132789600Y-110167428D01*
X132818171Y-110224571D01*
X132818171Y-110310285D01*
X132789600Y-110367428D01*
X127370933Y-104710666D02*
X127370933Y-104010666D01*
X127604266Y-104244000D02*
X127870933Y-104244000D01*
X127704266Y-104010666D02*
X127704266Y-104610666D01*
X127737600Y-104677333D01*
X127804266Y-104710666D01*
X127870933Y-104710666D01*
X128070933Y-104677333D02*
X128137600Y-104710666D01*
X128270933Y-104710666D01*
X128337600Y-104677333D01*
X128370933Y-104610666D01*
X128370933Y-104577333D01*
X128337600Y-104510666D01*
X128270933Y-104477333D01*
X128170933Y-104477333D01*
X128104266Y-104444000D01*
X128070933Y-104377333D01*
X128070933Y-104344000D01*
X128104266Y-104277333D01*
X128170933Y-104244000D01*
X128270933Y-104244000D01*
X128337600Y-104277333D01*
X128604266Y-104244000D02*
X128770933Y-104710666D01*
X128937600Y-104244000D02*
X128770933Y-104710666D01*
X128704266Y-104877333D01*
X128670933Y-104910666D01*
X128604266Y-104944000D01*
X129437600Y-104344000D02*
X129537600Y-104377333D01*
X129570933Y-104410666D01*
X129604266Y-104477333D01*
X129604266Y-104577333D01*
X129570933Y-104644000D01*
X129537600Y-104677333D01*
X129470933Y-104710666D01*
X129204266Y-104710666D01*
X129204266Y-104010666D01*
X129437600Y-104010666D01*
X129504266Y-104044000D01*
X129537600Y-104077333D01*
X129570933Y-104144000D01*
X129570933Y-104210666D01*
X129537600Y-104277333D01*
X129504266Y-104310666D01*
X129437600Y-104344000D01*
X129204266Y-104344000D01*
X129904266Y-104710666D02*
X129904266Y-104244000D01*
X129904266Y-104010666D02*
X129870933Y-104044000D01*
X129904266Y-104077333D01*
X129937600Y-104044000D01*
X129904266Y-104010666D01*
X129904266Y-104077333D01*
X130137600Y-104244000D02*
X130404266Y-104244000D01*
X130237600Y-104010666D02*
X130237600Y-104610666D01*
X130270933Y-104677333D01*
X130337600Y-104710666D01*
X130404266Y-104710666D01*
X130604266Y-104677333D02*
X130670933Y-104710666D01*
X130804266Y-104710666D01*
X130870933Y-104677333D01*
X130904266Y-104610666D01*
X130904266Y-104577333D01*
X130870933Y-104510666D01*
X130804266Y-104477333D01*
X130704266Y-104477333D01*
X130637600Y-104444000D01*
X130604266Y-104377333D01*
X130604266Y-104344000D01*
X130637600Y-104277333D01*
X130704266Y-104244000D01*
X130804266Y-104244000D01*
X130870933Y-104277333D01*
X131137600Y-104244000D02*
X131304266Y-104710666D01*
X131470933Y-104244000D02*
X131304266Y-104710666D01*
X131237600Y-104877333D01*
X131204266Y-104910666D01*
X131137600Y-104944000D01*
D10*
X126847600Y-110236000D02*
X126847600Y-105156000D01*
X131927600Y-110236000D02*
X126847600Y-110236000D01*
X131927600Y-105156000D02*
X131927600Y-110236000D01*
X126847600Y-105156000D02*
X131927600Y-105156000D01*
X114300000Y-111760000D02*
X110490000Y-111760000D01*
X110490000Y-111760000D02*
X110490000Y-116840000D01*
X110490000Y-104140000D02*
X114300000Y-104140000D01*
D12*
X141224000Y-103251000D02*
X141224000Y-103505000D01*
X141224000Y-103251000D02*
X140970000Y-103251000D01*
X140462000Y-103759000D02*
X141224000Y-103251000D01*
D11*
X139600000Y-104536428D02*
X139400000Y-104250714D01*
X139257142Y-104536428D02*
X139257142Y-103936428D01*
X139485714Y-103936428D01*
X139542857Y-103965000D01*
X139571428Y-103993571D01*
X139600000Y-104050714D01*
X139600000Y-104136428D01*
X139571428Y-104193571D01*
X139542857Y-104222142D01*
X139485714Y-104250714D01*
X139257142Y-104250714D01*
X139800000Y-103936428D02*
X140200000Y-104536428D01*
X140200000Y-103936428D02*
X139800000Y-104536428D01*
X139257142Y-105556428D02*
X139257142Y-104956428D01*
X139400000Y-104956428D01*
X139485714Y-104985000D01*
X139542857Y-105042142D01*
X139571428Y-105099285D01*
X139600000Y-105213571D01*
X139600000Y-105299285D01*
X139571428Y-105413571D01*
X139542857Y-105470714D01*
X139485714Y-105527857D01*
X139400000Y-105556428D01*
X139257142Y-105556428D01*
X139971428Y-104956428D02*
X140028571Y-104956428D01*
X140085714Y-104985000D01*
X140114285Y-105013571D01*
X140142857Y-105070714D01*
X140171428Y-105185000D01*
X140171428Y-105327857D01*
X140142857Y-105442142D01*
X140114285Y-105499285D01*
X140085714Y-105527857D01*
X140028571Y-105556428D01*
X139971428Y-105556428D01*
X139914285Y-105527857D01*
X139885714Y-105499285D01*
X139857142Y-105442142D01*
X139828571Y-105327857D01*
X139828571Y-105185000D01*
X139857142Y-105070714D01*
X139885714Y-105013571D01*
X139914285Y-104985000D01*
X139971428Y-104956428D01*
D12*
X142771468Y-113153636D02*
X142517468Y-113153636D01*
X142771468Y-113153636D02*
X142771468Y-112899636D01*
X142367000Y-112522000D02*
X142748000Y-113157000D01*
D11*
X141303428Y-111477000D02*
X141589142Y-111477000D01*
X141246285Y-111648428D02*
X141446285Y-111048428D01*
X141646285Y-111648428D01*
X142103428Y-111048428D02*
X141989142Y-111048428D01*
X141932000Y-111077000D01*
X141903428Y-111105571D01*
X141846285Y-111191285D01*
X141817714Y-111305571D01*
X141817714Y-111534142D01*
X141846285Y-111591285D01*
X141874857Y-111619857D01*
X141932000Y-111648428D01*
X142046285Y-111648428D01*
X142103428Y-111619857D01*
X142132000Y-111591285D01*
X142160571Y-111534142D01*
X142160571Y-111391285D01*
X142132000Y-111334142D01*
X142103428Y-111305571D01*
X142046285Y-111277000D01*
X141932000Y-111277000D01*
X141874857Y-111305571D01*
X141846285Y-111334142D01*
X141817714Y-111391285D01*
X141289142Y-112668428D02*
X141289142Y-112068428D01*
X141432000Y-112068428D01*
X141517714Y-112097000D01*
X141574857Y-112154142D01*
X141603428Y-112211285D01*
X141632000Y-112325571D01*
X141632000Y-112411285D01*
X141603428Y-112525571D01*
X141574857Y-112582714D01*
X141517714Y-112639857D01*
X141432000Y-112668428D01*
X141289142Y-112668428D01*
X141860571Y-112125571D02*
X141889142Y-112097000D01*
X141946285Y-112068428D01*
X142089142Y-112068428D01*
X142146285Y-112097000D01*
X142174857Y-112125571D01*
X142203428Y-112182714D01*
X142203428Y-112239857D01*
X142174857Y-112325571D01*
X141832000Y-112668428D01*
X142203428Y-112668428D01*
X141897142Y-113936428D02*
X141897142Y-113336428D01*
X142097142Y-113765000D01*
X142297142Y-113336428D01*
X142297142Y-113936428D01*
X142582857Y-113936428D02*
X142582857Y-113336428D01*
X139214285Y-113936428D02*
X139214285Y-113336428D01*
X139414285Y-113765000D01*
X139614285Y-113336428D01*
X139614285Y-113936428D01*
X140014285Y-113336428D02*
X140071428Y-113336428D01*
X140128571Y-113365000D01*
X140157142Y-113393571D01*
X140185714Y-113450714D01*
X140214285Y-113565000D01*
X140214285Y-113707857D01*
X140185714Y-113822142D01*
X140157142Y-113879285D01*
X140128571Y-113907857D01*
X140071428Y-113936428D01*
X140014285Y-113936428D01*
X139957142Y-113907857D01*
X139928571Y-113879285D01*
X139900000Y-113822142D01*
X139871428Y-113707857D01*
X139871428Y-113565000D01*
X139900000Y-113450714D01*
X139928571Y-113393571D01*
X139957142Y-113365000D01*
X140014285Y-113336428D01*
X136388571Y-113907857D02*
X136474285Y-113936428D01*
X136617142Y-113936428D01*
X136674285Y-113907857D01*
X136702857Y-113879285D01*
X136731428Y-113822142D01*
X136731428Y-113765000D01*
X136702857Y-113707857D01*
X136674285Y-113679285D01*
X136617142Y-113650714D01*
X136502857Y-113622142D01*
X136445714Y-113593571D01*
X136417142Y-113565000D01*
X136388571Y-113507857D01*
X136388571Y-113450714D01*
X136417142Y-113393571D01*
X136445714Y-113365000D01*
X136502857Y-113336428D01*
X136645714Y-113336428D01*
X136731428Y-113365000D01*
X137331428Y-113879285D02*
X137302857Y-113907857D01*
X137217142Y-113936428D01*
X137160000Y-113936428D01*
X137074285Y-113907857D01*
X137017142Y-113850714D01*
X136988571Y-113793571D01*
X136960000Y-113679285D01*
X136960000Y-113593571D01*
X136988571Y-113479285D01*
X137017142Y-113422142D01*
X137074285Y-113365000D01*
X137160000Y-113336428D01*
X137217142Y-113336428D01*
X137302857Y-113365000D01*
X137331428Y-113393571D01*
X137588571Y-113936428D02*
X137588571Y-113336428D01*
X137931428Y-113936428D02*
X137674285Y-113593571D01*
X137931428Y-113336428D02*
X137588571Y-113679285D01*
X134191428Y-113765000D02*
X134477142Y-113765000D01*
X134134285Y-113936428D02*
X134334285Y-113336428D01*
X134534285Y-113936428D01*
X135020000Y-113336428D02*
X134734285Y-113336428D01*
X134705714Y-113622142D01*
X134734285Y-113593571D01*
X134791428Y-113565000D01*
X134934285Y-113565000D01*
X134991428Y-113593571D01*
X135020000Y-113622142D01*
X135048571Y-113679285D01*
X135048571Y-113822142D01*
X135020000Y-113879285D01*
X134991428Y-113907857D01*
X134934285Y-113936428D01*
X134791428Y-113936428D01*
X134734285Y-113907857D01*
X134705714Y-113879285D01*
X131651428Y-113765000D02*
X131937142Y-113765000D01*
X131594285Y-113936428D02*
X131794285Y-113336428D01*
X131994285Y-113936428D01*
X132451428Y-113536428D02*
X132451428Y-113936428D01*
X132308571Y-113307857D02*
X132165714Y-113736428D01*
X132537142Y-113736428D01*
X129111428Y-113765000D02*
X129397142Y-113765000D01*
X129054285Y-113936428D02*
X129254285Y-113336428D01*
X129454285Y-113936428D01*
X129597142Y-113336428D02*
X129968571Y-113336428D01*
X129768571Y-113565000D01*
X129854285Y-113565000D01*
X129911428Y-113593571D01*
X129940000Y-113622142D01*
X129968571Y-113679285D01*
X129968571Y-113822142D01*
X129940000Y-113879285D01*
X129911428Y-113907857D01*
X129854285Y-113936428D01*
X129682857Y-113936428D01*
X129625714Y-113907857D01*
X129597142Y-113879285D01*
X126571428Y-113765000D02*
X126857142Y-113765000D01*
X126514285Y-113936428D02*
X126714285Y-113336428D01*
X126914285Y-113936428D01*
X127085714Y-113393571D02*
X127114285Y-113365000D01*
X127171428Y-113336428D01*
X127314285Y-113336428D01*
X127371428Y-113365000D01*
X127400000Y-113393571D01*
X127428571Y-113450714D01*
X127428571Y-113507857D01*
X127400000Y-113593571D01*
X127057142Y-113936428D01*
X127428571Y-113936428D01*
X123760000Y-113707857D02*
X123788571Y-113679285D01*
X123845714Y-113650714D01*
X123960000Y-113707857D01*
X124017142Y-113679285D01*
X124045714Y-113650714D01*
X124245714Y-113765000D02*
X124531428Y-113765000D01*
X124188571Y-113936428D02*
X124388571Y-113336428D01*
X124588571Y-113936428D01*
X125102857Y-113936428D02*
X124760000Y-113936428D01*
X124931428Y-113936428D02*
X124931428Y-113336428D01*
X124874285Y-113422142D01*
X124817142Y-113479285D01*
X124760000Y-113507857D01*
X121220000Y-113707857D02*
X121248571Y-113679285D01*
X121305714Y-113650714D01*
X121420000Y-113707857D01*
X121477142Y-113679285D01*
X121505714Y-113650714D01*
X121705714Y-113765000D02*
X121991428Y-113765000D01*
X121648571Y-113936428D02*
X121848571Y-113336428D01*
X122048571Y-113936428D01*
X122362857Y-113336428D02*
X122420000Y-113336428D01*
X122477142Y-113365000D01*
X122505714Y-113393571D01*
X122534285Y-113450714D01*
X122562857Y-113565000D01*
X122562857Y-113707857D01*
X122534285Y-113822142D01*
X122505714Y-113879285D01*
X122477142Y-113907857D01*
X122420000Y-113936428D01*
X122362857Y-113936428D01*
X122305714Y-113907857D01*
X122277142Y-113879285D01*
X122248571Y-113822142D01*
X122220000Y-113707857D01*
X122220000Y-113565000D01*
X122248571Y-113450714D01*
X122277142Y-113393571D01*
X122305714Y-113365000D01*
X122362857Y-113336428D01*
X118722857Y-113336428D02*
X118922857Y-113936428D01*
X119122857Y-113336428D01*
X119322857Y-113936428D02*
X119322857Y-113336428D01*
X119322857Y-113622142D02*
X119665714Y-113622142D01*
X119665714Y-113936428D02*
X119665714Y-113336428D01*
X119951428Y-113936428D02*
X119951428Y-113336428D01*
X115868571Y-113765000D02*
X116154285Y-113765000D01*
X115811428Y-113936428D02*
X116011428Y-113336428D01*
X116211428Y-113936428D01*
X116754285Y-113936428D02*
X116554285Y-113650714D01*
X116411428Y-113936428D02*
X116411428Y-113336428D01*
X116640000Y-113336428D01*
X116697142Y-113365000D01*
X116725714Y-113393571D01*
X116754285Y-113450714D01*
X116754285Y-113536428D01*
X116725714Y-113593571D01*
X116697142Y-113622142D01*
X116640000Y-113650714D01*
X116411428Y-113650714D01*
X117011428Y-113622142D02*
X117211428Y-113622142D01*
X117297142Y-113936428D02*
X117011428Y-113936428D01*
X117011428Y-113336428D01*
X117297142Y-113336428D01*
X117754285Y-113622142D02*
X117554285Y-113622142D01*
X117554285Y-113936428D02*
X117554285Y-113336428D01*
X117840000Y-113336428D01*
X113842857Y-113336428D02*
X114214285Y-113336428D01*
X114014285Y-113565000D01*
X114100000Y-113565000D01*
X114157142Y-113593571D01*
X114185714Y-113622142D01*
X114214285Y-113679285D01*
X114214285Y-113822142D01*
X114185714Y-113879285D01*
X114157142Y-113907857D01*
X114100000Y-113936428D01*
X113928571Y-113936428D01*
X113871428Y-113907857D01*
X113842857Y-113879285D01*
X114385714Y-113336428D02*
X114585714Y-113936428D01*
X114785714Y-113336428D01*
X111431428Y-113936428D02*
X111231428Y-113650714D01*
X111088571Y-113936428D02*
X111088571Y-113336428D01*
X111317142Y-113336428D01*
X111374285Y-113365000D01*
X111402857Y-113393571D01*
X111431428Y-113450714D01*
X111431428Y-113536428D01*
X111402857Y-113593571D01*
X111374285Y-113622142D01*
X111317142Y-113650714D01*
X111088571Y-113650714D01*
X111660000Y-113907857D02*
X111745714Y-113936428D01*
X111888571Y-113936428D01*
X111945714Y-113907857D01*
X111974285Y-113879285D01*
X112002857Y-113822142D01*
X112002857Y-113765000D01*
X111974285Y-113707857D01*
X111945714Y-113679285D01*
X111888571Y-113650714D01*
X111774285Y-113622142D01*
X111717142Y-113593571D01*
X111688571Y-113565000D01*
X111660000Y-113507857D01*
X111660000Y-113450714D01*
X111688571Y-113393571D01*
X111717142Y-113365000D01*
X111774285Y-113336428D01*
X111917142Y-113336428D01*
X112002857Y-113365000D01*
X112174285Y-113336428D02*
X112517142Y-113336428D01*
X112345714Y-113936428D02*
X112345714Y-113336428D01*
X111317142Y-102192142D02*
X111402857Y-102220714D01*
X111431428Y-102249285D01*
X111460000Y-102306428D01*
X111460000Y-102392142D01*
X111431428Y-102449285D01*
X111402857Y-102477857D01*
X111345714Y-102506428D01*
X111117142Y-102506428D01*
X111117142Y-101906428D01*
X111317142Y-101906428D01*
X111374285Y-101935000D01*
X111402857Y-101963571D01*
X111431428Y-102020714D01*
X111431428Y-102077857D01*
X111402857Y-102135000D01*
X111374285Y-102163571D01*
X111317142Y-102192142D01*
X111117142Y-102192142D01*
X111688571Y-102335000D02*
X111974285Y-102335000D01*
X111631428Y-102506428D02*
X111831428Y-101906428D01*
X112031428Y-102506428D01*
X112145714Y-101906428D02*
X112488571Y-101906428D01*
X112317142Y-102506428D02*
X112317142Y-101906428D01*
X113842857Y-101935000D02*
X113785714Y-101906428D01*
X113700000Y-101906428D01*
X113614285Y-101935000D01*
X113557142Y-101992142D01*
X113528571Y-102049285D01*
X113500000Y-102163571D01*
X113500000Y-102249285D01*
X113528571Y-102363571D01*
X113557142Y-102420714D01*
X113614285Y-102477857D01*
X113700000Y-102506428D01*
X113757142Y-102506428D01*
X113842857Y-102477857D01*
X113871428Y-102449285D01*
X113871428Y-102249285D01*
X113757142Y-102249285D01*
X114128571Y-102506428D02*
X114128571Y-101906428D01*
X114471428Y-102506428D01*
X114471428Y-101906428D01*
X114757142Y-102506428D02*
X114757142Y-101906428D01*
X114900000Y-101906428D01*
X114985714Y-101935000D01*
X115042857Y-101992142D01*
X115071428Y-102049285D01*
X115100000Y-102163571D01*
X115100000Y-102249285D01*
X115071428Y-102363571D01*
X115042857Y-102420714D01*
X114985714Y-102477857D01*
X114900000Y-102506428D01*
X114757142Y-102506428D01*
X116082857Y-101906428D02*
X116082857Y-102392142D01*
X116111428Y-102449285D01*
X116140000Y-102477857D01*
X116197142Y-102506428D01*
X116311428Y-102506428D01*
X116368571Y-102477857D01*
X116397142Y-102449285D01*
X116425714Y-102392142D01*
X116425714Y-101906428D01*
X116682857Y-102477857D02*
X116768571Y-102506428D01*
X116911428Y-102506428D01*
X116968571Y-102477857D01*
X116997142Y-102449285D01*
X117025714Y-102392142D01*
X117025714Y-102335000D01*
X116997142Y-102277857D01*
X116968571Y-102249285D01*
X116911428Y-102220714D01*
X116797142Y-102192142D01*
X116740000Y-102163571D01*
X116711428Y-102135000D01*
X116682857Y-102077857D01*
X116682857Y-102020714D01*
X116711428Y-101963571D01*
X116740000Y-101935000D01*
X116797142Y-101906428D01*
X116940000Y-101906428D01*
X117025714Y-101935000D01*
X117482857Y-102192142D02*
X117568571Y-102220714D01*
X117597142Y-102249285D01*
X117625714Y-102306428D01*
X117625714Y-102392142D01*
X117597142Y-102449285D01*
X117568571Y-102477857D01*
X117511428Y-102506428D01*
X117282857Y-102506428D01*
X117282857Y-101906428D01*
X117482857Y-101906428D01*
X117540000Y-101935000D01*
X117568571Y-101963571D01*
X117597142Y-102020714D01*
X117597142Y-102077857D01*
X117568571Y-102135000D01*
X117540000Y-102163571D01*
X117482857Y-102192142D01*
X117282857Y-102192142D01*
X118651428Y-102504428D02*
X118651428Y-101904428D01*
X118794285Y-101904428D01*
X118880000Y-101933000D01*
X118937142Y-101990142D01*
X118965714Y-102047285D01*
X118994285Y-102161571D01*
X118994285Y-102247285D01*
X118965714Y-102361571D01*
X118937142Y-102418714D01*
X118880000Y-102475857D01*
X118794285Y-102504428D01*
X118651428Y-102504428D01*
X119565714Y-102504428D02*
X119222857Y-102504428D01*
X119394285Y-102504428D02*
X119394285Y-101904428D01*
X119337142Y-101990142D01*
X119280000Y-102047285D01*
X119222857Y-102075857D01*
X119765714Y-101904428D02*
X120137142Y-101904428D01*
X119937142Y-102133000D01*
X120022857Y-102133000D01*
X120080000Y-102161571D01*
X120108571Y-102190142D01*
X120137142Y-102247285D01*
X120137142Y-102390142D01*
X120108571Y-102447285D01*
X120080000Y-102475857D01*
X120022857Y-102504428D01*
X119851428Y-102504428D01*
X119794285Y-102475857D01*
X119765714Y-102447285D01*
X118994285Y-103524428D02*
X118708571Y-103524428D01*
X118708571Y-102924428D01*
X119194285Y-103210142D02*
X119394285Y-103210142D01*
X119480000Y-103524428D02*
X119194285Y-103524428D01*
X119194285Y-102924428D01*
X119480000Y-102924428D01*
X119737142Y-103524428D02*
X119737142Y-102924428D01*
X119880000Y-102924428D01*
X119965714Y-102953000D01*
X120022857Y-103010142D01*
X120051428Y-103067285D01*
X120080000Y-103181571D01*
X120080000Y-103267285D01*
X120051428Y-103381571D01*
X120022857Y-103438714D01*
X119965714Y-103495857D01*
X119880000Y-103524428D01*
X119737142Y-103524428D01*
X121191428Y-102506428D02*
X121191428Y-101906428D01*
X121334285Y-101906428D01*
X121420000Y-101935000D01*
X121477142Y-101992142D01*
X121505714Y-102049285D01*
X121534285Y-102163571D01*
X121534285Y-102249285D01*
X121505714Y-102363571D01*
X121477142Y-102420714D01*
X121420000Y-102477857D01*
X121334285Y-102506428D01*
X121191428Y-102506428D01*
X122105714Y-102506428D02*
X121762857Y-102506428D01*
X121934285Y-102506428D02*
X121934285Y-101906428D01*
X121877142Y-101992142D01*
X121820000Y-102049285D01*
X121762857Y-102077857D01*
X122334285Y-101963571D02*
X122362857Y-101935000D01*
X122420000Y-101906428D01*
X122562857Y-101906428D01*
X122620000Y-101935000D01*
X122648571Y-101963571D01*
X122677142Y-102020714D01*
X122677142Y-102077857D01*
X122648571Y-102163571D01*
X122305714Y-102506428D01*
X122677142Y-102506428D01*
X123731428Y-102506428D02*
X123731428Y-101906428D01*
X123874285Y-101906428D01*
X123960000Y-101935000D01*
X124017142Y-101992142D01*
X124045714Y-102049285D01*
X124074285Y-102163571D01*
X124074285Y-102249285D01*
X124045714Y-102363571D01*
X124017142Y-102420714D01*
X123960000Y-102477857D01*
X123874285Y-102506428D01*
X123731428Y-102506428D01*
X124645714Y-102506428D02*
X124302857Y-102506428D01*
X124474285Y-102506428D02*
X124474285Y-101906428D01*
X124417142Y-101992142D01*
X124360000Y-102049285D01*
X124302857Y-102077857D01*
X125217142Y-102506428D02*
X124874285Y-102506428D01*
X125045714Y-102506428D02*
X125045714Y-101906428D01*
X124988571Y-101992142D01*
X124931428Y-102049285D01*
X124874285Y-102077857D01*
X126271428Y-102506428D02*
X126271428Y-101906428D01*
X126414285Y-101906428D01*
X126500000Y-101935000D01*
X126557142Y-101992142D01*
X126585714Y-102049285D01*
X126614285Y-102163571D01*
X126614285Y-102249285D01*
X126585714Y-102363571D01*
X126557142Y-102420714D01*
X126500000Y-102477857D01*
X126414285Y-102506428D01*
X126271428Y-102506428D01*
X127185714Y-102506428D02*
X126842857Y-102506428D01*
X127014285Y-102506428D02*
X127014285Y-101906428D01*
X126957142Y-101992142D01*
X126900000Y-102049285D01*
X126842857Y-102077857D01*
X127557142Y-101906428D02*
X127614285Y-101906428D01*
X127671428Y-101935000D01*
X127700000Y-101963571D01*
X127728571Y-102020714D01*
X127757142Y-102135000D01*
X127757142Y-102277857D01*
X127728571Y-102392142D01*
X127700000Y-102449285D01*
X127671428Y-102477857D01*
X127614285Y-102506428D01*
X127557142Y-102506428D01*
X127500000Y-102477857D01*
X127471428Y-102449285D01*
X127442857Y-102392142D01*
X127414285Y-102277857D01*
X127414285Y-102135000D01*
X127442857Y-102020714D01*
X127471428Y-101963571D01*
X127500000Y-101935000D01*
X127557142Y-101906428D01*
X129097142Y-102506428D02*
X129097142Y-101906428D01*
X129240000Y-101906428D01*
X129325714Y-101935000D01*
X129382857Y-101992142D01*
X129411428Y-102049285D01*
X129440000Y-102163571D01*
X129440000Y-102249285D01*
X129411428Y-102363571D01*
X129382857Y-102420714D01*
X129325714Y-102477857D01*
X129240000Y-102506428D01*
X129097142Y-102506428D01*
X129725714Y-102506428D02*
X129840000Y-102506428D01*
X129897142Y-102477857D01*
X129925714Y-102449285D01*
X129982857Y-102363571D01*
X130011428Y-102249285D01*
X130011428Y-102020714D01*
X129982857Y-101963571D01*
X129954285Y-101935000D01*
X129897142Y-101906428D01*
X129782857Y-101906428D01*
X129725714Y-101935000D01*
X129697142Y-101963571D01*
X129668571Y-102020714D01*
X129668571Y-102163571D01*
X129697142Y-102220714D01*
X129725714Y-102249285D01*
X129782857Y-102277857D01*
X129897142Y-102277857D01*
X129954285Y-102249285D01*
X129982857Y-102220714D01*
X130011428Y-102163571D01*
X131637142Y-102506428D02*
X131637142Y-101906428D01*
X131780000Y-101906428D01*
X131865714Y-101935000D01*
X131922857Y-101992142D01*
X131951428Y-102049285D01*
X131980000Y-102163571D01*
X131980000Y-102249285D01*
X131951428Y-102363571D01*
X131922857Y-102420714D01*
X131865714Y-102477857D01*
X131780000Y-102506428D01*
X131637142Y-102506428D01*
X132180000Y-101906428D02*
X132580000Y-101906428D01*
X132322857Y-102506428D01*
X134034285Y-102506428D02*
X134034285Y-101906428D01*
X134177142Y-101906428D01*
X134262857Y-101935000D01*
X134320000Y-101992142D01*
X134348571Y-102049285D01*
X134377142Y-102163571D01*
X134377142Y-102249285D01*
X134348571Y-102363571D01*
X134320000Y-102420714D01*
X134262857Y-102477857D01*
X134177142Y-102506428D01*
X134034285Y-102506428D01*
X134920000Y-101906428D02*
X134634285Y-101906428D01*
X134605714Y-102192142D01*
X134634285Y-102163571D01*
X134691428Y-102135000D01*
X134834285Y-102135000D01*
X134891428Y-102163571D01*
X134920000Y-102192142D01*
X134948571Y-102249285D01*
X134948571Y-102392142D01*
X134920000Y-102449285D01*
X134891428Y-102477857D01*
X134834285Y-102506428D01*
X134691428Y-102506428D01*
X134634285Y-102477857D01*
X134605714Y-102449285D01*
X135205714Y-102449285D02*
X135234285Y-102477857D01*
X135205714Y-102506428D01*
X135177142Y-102477857D01*
X135205714Y-102449285D01*
X135205714Y-102506428D01*
X135205714Y-102277857D02*
X135177142Y-101935000D01*
X135205714Y-101906428D01*
X135234285Y-101935000D01*
X135205714Y-102277857D01*
X135205714Y-101906428D01*
X136445714Y-102477857D02*
X136531428Y-102506428D01*
X136674285Y-102506428D01*
X136731428Y-102477857D01*
X136760000Y-102449285D01*
X136788571Y-102392142D01*
X136788571Y-102335000D01*
X136760000Y-102277857D01*
X136731428Y-102249285D01*
X136674285Y-102220714D01*
X136560000Y-102192142D01*
X136502857Y-102163571D01*
X136474285Y-102135000D01*
X136445714Y-102077857D01*
X136445714Y-102020714D01*
X136474285Y-101963571D01*
X136502857Y-101935000D01*
X136560000Y-101906428D01*
X136702857Y-101906428D01*
X136788571Y-101935000D01*
X137388571Y-102449285D02*
X137360000Y-102477857D01*
X137274285Y-102506428D01*
X137217142Y-102506428D01*
X137131428Y-102477857D01*
X137074285Y-102420714D01*
X137045714Y-102363571D01*
X137017142Y-102249285D01*
X137017142Y-102163571D01*
X137045714Y-102049285D01*
X137074285Y-101992142D01*
X137131428Y-101935000D01*
X137217142Y-101906428D01*
X137274285Y-101906428D01*
X137360000Y-101935000D01*
X137388571Y-101963571D01*
X137931428Y-102506428D02*
X137645714Y-102506428D01*
X137645714Y-101906428D01*
X138971428Y-102477857D02*
X139057142Y-102506428D01*
X139200000Y-102506428D01*
X139257142Y-102477857D01*
X139285714Y-102449285D01*
X139314285Y-102392142D01*
X139314285Y-102335000D01*
X139285714Y-102277857D01*
X139257142Y-102249285D01*
X139200000Y-102220714D01*
X139085714Y-102192142D01*
X139028571Y-102163571D01*
X139000000Y-102135000D01*
X138971428Y-102077857D01*
X138971428Y-102020714D01*
X139000000Y-101963571D01*
X139028571Y-101935000D01*
X139085714Y-101906428D01*
X139228571Y-101906428D01*
X139314285Y-101935000D01*
X139571428Y-102506428D02*
X139571428Y-101906428D01*
X139714285Y-101906428D01*
X139800000Y-101935000D01*
X139857142Y-101992142D01*
X139885714Y-102049285D01*
X139914285Y-102163571D01*
X139914285Y-102249285D01*
X139885714Y-102363571D01*
X139857142Y-102420714D01*
X139800000Y-102477857D01*
X139714285Y-102506428D01*
X139571428Y-102506428D01*
X140142857Y-102335000D02*
X140428571Y-102335000D01*
X140085714Y-102506428D02*
X140285714Y-101906428D01*
X140485714Y-102506428D01*
X141782857Y-102031428D02*
X142125714Y-102031428D01*
X141954285Y-102631428D02*
X141954285Y-102031428D01*
X142268571Y-102031428D02*
X142668571Y-102631428D01*
X142668571Y-102031428D02*
X142268571Y-102631428D01*
X141797142Y-103651428D02*
X141797142Y-103051428D01*
X141940000Y-103051428D01*
X142025714Y-103080000D01*
X142082857Y-103137142D01*
X142111428Y-103194285D01*
X142140000Y-103308571D01*
X142140000Y-103394285D01*
X142111428Y-103508571D01*
X142082857Y-103565714D01*
X142025714Y-103622857D01*
X141940000Y-103651428D01*
X141797142Y-103651428D01*
X142711428Y-103651428D02*
X142368571Y-103651428D01*
X142540000Y-103651428D02*
X142540000Y-103051428D01*
X142482857Y-103137142D01*
X142425714Y-103194285D01*
X142368571Y-103222857D01*
X149417142Y-102506428D02*
X149417142Y-101906428D01*
X149560000Y-101906428D01*
X149645714Y-101935000D01*
X149702857Y-101992142D01*
X149731428Y-102049285D01*
X149760000Y-102163571D01*
X149760000Y-102249285D01*
X149731428Y-102363571D01*
X149702857Y-102420714D01*
X149645714Y-102477857D01*
X149560000Y-102506428D01*
X149417142Y-102506428D01*
X149960000Y-101906428D02*
X150331428Y-101906428D01*
X150131428Y-102135000D01*
X150217142Y-102135000D01*
X150274285Y-102163571D01*
X150302857Y-102192142D01*
X150331428Y-102249285D01*
X150331428Y-102392142D01*
X150302857Y-102449285D01*
X150274285Y-102477857D01*
X150217142Y-102506428D01*
X150045714Y-102506428D01*
X149988571Y-102477857D01*
X149960000Y-102449285D01*
X146902542Y-102506428D02*
X146902542Y-101906428D01*
X147045400Y-101906428D01*
X147131114Y-101935000D01*
X147188257Y-101992142D01*
X147216828Y-102049285D01*
X147245400Y-102163571D01*
X147245400Y-102249285D01*
X147216828Y-102363571D01*
X147188257Y-102420714D01*
X147131114Y-102477857D01*
X147045400Y-102506428D01*
X146902542Y-102506428D01*
X147759685Y-102106428D02*
X147759685Y-102506428D01*
X147616828Y-101877857D02*
X147473971Y-102306428D01*
X147845400Y-102306428D01*
D12*
X151483333Y-113867380D02*
X151530952Y-113891190D01*
X151626190Y-113891190D01*
X151673809Y-113867380D01*
X151697619Y-113819761D01*
X151697619Y-113795952D01*
X151673809Y-113748333D01*
X151626190Y-113724523D01*
X151554761Y-113724523D01*
X151507142Y-113700714D01*
X151483333Y-113653095D01*
X151483333Y-113629285D01*
X151507142Y-113581666D01*
X151554761Y-113557857D01*
X151626190Y-113557857D01*
X151673809Y-113581666D01*
X151864285Y-113557857D02*
X151959523Y-113891190D01*
X152054761Y-113653095D01*
X152150000Y-113891190D01*
X152245238Y-113557857D01*
X152650000Y-113867380D02*
X152602380Y-113891190D01*
X152507142Y-113891190D01*
X152459523Y-113867380D01*
X152435714Y-113843571D01*
X152411904Y-113795952D01*
X152411904Y-113653095D01*
X152435714Y-113605476D01*
X152459523Y-113581666D01*
X152507142Y-113557857D01*
X152602380Y-113557857D01*
X152650000Y-113581666D01*
X152935714Y-113891190D02*
X152888095Y-113867380D01*
X152864285Y-113819761D01*
X152864285Y-113391190D01*
X153126190Y-113891190D02*
X153126190Y-113391190D01*
X153173809Y-113700714D02*
X153316666Y-113891190D01*
X153316666Y-113557857D02*
X153126190Y-113748333D01*
X148919523Y-113867380D02*
X148967142Y-113891190D01*
X149062380Y-113891190D01*
X149110000Y-113867380D01*
X149133809Y-113819761D01*
X149133809Y-113795952D01*
X149110000Y-113748333D01*
X149062380Y-113724523D01*
X148990952Y-113724523D01*
X148943333Y-113700714D01*
X148919523Y-113653095D01*
X148919523Y-113629285D01*
X148943333Y-113581666D01*
X148990952Y-113557857D01*
X149062380Y-113557857D01*
X149110000Y-113581666D01*
X149300476Y-113557857D02*
X149395714Y-113891190D01*
X149490952Y-113653095D01*
X149586190Y-113891190D01*
X149681428Y-113557857D01*
X150086190Y-113891190D02*
X150086190Y-113391190D01*
X150086190Y-113867380D02*
X150038571Y-113891190D01*
X149943333Y-113891190D01*
X149895714Y-113867380D01*
X149871904Y-113843571D01*
X149848095Y-113795952D01*
X149848095Y-113653095D01*
X149871904Y-113605476D01*
X149895714Y-113581666D01*
X149943333Y-113557857D01*
X150038571Y-113557857D01*
X150086190Y-113581666D01*
X150324285Y-113891190D02*
X150324285Y-113557857D01*
X150324285Y-113391190D02*
X150300476Y-113415000D01*
X150324285Y-113438809D01*
X150348095Y-113415000D01*
X150324285Y-113391190D01*
X150324285Y-113438809D01*
X150633809Y-113891190D02*
X150586190Y-113867380D01*
X150562380Y-113843571D01*
X150538571Y-113795952D01*
X150538571Y-113653095D01*
X150562380Y-113605476D01*
X150586190Y-113581666D01*
X150633809Y-113557857D01*
X150705238Y-113557857D01*
X150752857Y-113581666D01*
X150776666Y-113605476D01*
X150800476Y-113653095D01*
X150800476Y-113795952D01*
X150776666Y-113843571D01*
X150752857Y-113867380D01*
X150705238Y-113891190D01*
X150633809Y-113891190D01*
D11*
X146945400Y-113622142D02*
X147145400Y-113622142D01*
X147231114Y-113936428D02*
X146945400Y-113936428D01*
X146945400Y-113336428D01*
X147231114Y-113336428D01*
X147488257Y-113536428D02*
X147488257Y-113936428D01*
X147488257Y-113593571D02*
X147516828Y-113565000D01*
X147573971Y-113536428D01*
X147659685Y-113536428D01*
X147716828Y-113565000D01*
X147745400Y-113622142D01*
X147745400Y-113936428D01*
D15*
X116213476Y-106575380D02*
X116213476Y-105575380D01*
X116546809Y-105908714D02*
X116927761Y-105908714D01*
X116689666Y-105575380D02*
X116689666Y-106432523D01*
X116737285Y-106527761D01*
X116832523Y-106575380D01*
X116927761Y-106575380D01*
X117213476Y-106527761D02*
X117308714Y-106575380D01*
X117499190Y-106575380D01*
X117594428Y-106527761D01*
X117642047Y-106432523D01*
X117642047Y-106384904D01*
X117594428Y-106289666D01*
X117499190Y-106242047D01*
X117356333Y-106242047D01*
X117261095Y-106194428D01*
X117213476Y-106099190D01*
X117213476Y-106051571D01*
X117261095Y-105956333D01*
X117356333Y-105908714D01*
X117499190Y-105908714D01*
X117594428Y-105956333D01*
X117975380Y-105908714D02*
X118213476Y-106575380D01*
X118451571Y-105908714D02*
X118213476Y-106575380D01*
X118118238Y-106813476D01*
X118070619Y-106861095D01*
X117975380Y-106908714D01*
X119165857Y-106051571D02*
X119308714Y-106099190D01*
X119356333Y-106146809D01*
X119403952Y-106242047D01*
X119403952Y-106384904D01*
X119356333Y-106480142D01*
X119308714Y-106527761D01*
X119213476Y-106575380D01*
X118832523Y-106575380D01*
X118832523Y-105575380D01*
X119165857Y-105575380D01*
X119261095Y-105623000D01*
X119308714Y-105670619D01*
X119356333Y-105765857D01*
X119356333Y-105861095D01*
X119308714Y-105956333D01*
X119261095Y-106003952D01*
X119165857Y-106051571D01*
X118832523Y-106051571D01*
X119832523Y-106575380D02*
X119832523Y-105908714D01*
X119832523Y-105575380D02*
X119784904Y-105623000D01*
X119832523Y-105670619D01*
X119880142Y-105623000D01*
X119832523Y-105575380D01*
X119832523Y-105670619D01*
X120165857Y-105908714D02*
X120546809Y-105908714D01*
X120308714Y-105575380D02*
X120308714Y-106432523D01*
X120356333Y-106527761D01*
X120451571Y-106575380D01*
X120546809Y-106575380D01*
X120832523Y-106527761D02*
X120927761Y-106575380D01*
X121118238Y-106575380D01*
X121213476Y-106527761D01*
X121261095Y-106432523D01*
X121261095Y-106384904D01*
X121213476Y-106289666D01*
X121118238Y-106242047D01*
X120975380Y-106242047D01*
X120880142Y-106194428D01*
X120832523Y-106099190D01*
X120832523Y-106051571D01*
X120880142Y-105956333D01*
X120975380Y-105908714D01*
X121118238Y-105908714D01*
X121213476Y-105956333D01*
X121594428Y-105908714D02*
X121832523Y-106575380D01*
X122070619Y-105908714D02*
X121832523Y-106575380D01*
X121737285Y-106813476D01*
X121689666Y-106861095D01*
X121594428Y-106908714D01*
X123213476Y-106575380D02*
X123213476Y-105575380D01*
X123546809Y-106289666D01*
X123880142Y-105575380D01*
X123880142Y-106575380D01*
X124784904Y-105908714D02*
X124784904Y-106575380D01*
X124546809Y-105527761D02*
X124308714Y-106242047D01*
X124927761Y-106242047D01*
X116832523Y-107751571D02*
X116975380Y-107799190D01*
X117023000Y-107846809D01*
X117070619Y-107942047D01*
X117070619Y-108084904D01*
X117023000Y-108180142D01*
X116975380Y-108227761D01*
X116880142Y-108275380D01*
X116499190Y-108275380D01*
X116499190Y-107275380D01*
X116832523Y-107275380D01*
X116927761Y-107323000D01*
X116975380Y-107370619D01*
X117023000Y-107465857D01*
X117023000Y-107561095D01*
X116975380Y-107656333D01*
X116927761Y-107703952D01*
X116832523Y-107751571D01*
X116499190Y-107751571D01*
X117499190Y-108275380D02*
X117499190Y-107608714D01*
X117499190Y-107799190D02*
X117546809Y-107703952D01*
X117594428Y-107656333D01*
X117689666Y-107608714D01*
X117784904Y-107608714D01*
X118499190Y-108227761D02*
X118403952Y-108275380D01*
X118213476Y-108275380D01*
X118118238Y-108227761D01*
X118070619Y-108132523D01*
X118070619Y-107751571D01*
X118118238Y-107656333D01*
X118213476Y-107608714D01*
X118403952Y-107608714D01*
X118499190Y-107656333D01*
X118546809Y-107751571D01*
X118546809Y-107846809D01*
X118070619Y-107942047D01*
X119403952Y-108275380D02*
X119403952Y-107751571D01*
X119356333Y-107656333D01*
X119261095Y-107608714D01*
X119070619Y-107608714D01*
X118975380Y-107656333D01*
X119403952Y-108227761D02*
X119308714Y-108275380D01*
X119070619Y-108275380D01*
X118975380Y-108227761D01*
X118927761Y-108132523D01*
X118927761Y-108037285D01*
X118975380Y-107942047D01*
X119070619Y-107894428D01*
X119308714Y-107894428D01*
X119403952Y-107846809D01*
X120308714Y-108275380D02*
X120308714Y-107275380D01*
X120308714Y-108227761D02*
X120213476Y-108275380D01*
X120023000Y-108275380D01*
X119927761Y-108227761D01*
X119880142Y-108180142D01*
X119832523Y-108084904D01*
X119832523Y-107799190D01*
X119880142Y-107703952D01*
X119927761Y-107656333D01*
X120023000Y-107608714D01*
X120213476Y-107608714D01*
X120308714Y-107656333D01*
X120784904Y-108275380D02*
X120784904Y-107275380D01*
X120784904Y-107656333D02*
X120880142Y-107608714D01*
X121070619Y-107608714D01*
X121165857Y-107656333D01*
X121213476Y-107703952D01*
X121261095Y-107799190D01*
X121261095Y-108084904D01*
X121213476Y-108180142D01*
X121165857Y-108227761D01*
X121070619Y-108275380D01*
X120880142Y-108275380D01*
X120784904Y-108227761D01*
X121832523Y-108275380D02*
X121737285Y-108227761D01*
X121689666Y-108180142D01*
X121642047Y-108084904D01*
X121642047Y-107799190D01*
X121689666Y-107703952D01*
X121737285Y-107656333D01*
X121832523Y-107608714D01*
X121975380Y-107608714D01*
X122070619Y-107656333D01*
X122118238Y-107703952D01*
X122165857Y-107799190D01*
X122165857Y-108084904D01*
X122118238Y-108180142D01*
X122070619Y-108227761D01*
X121975380Y-108275380D01*
X121832523Y-108275380D01*
X123023000Y-108275380D02*
X123023000Y-107751571D01*
X122975380Y-107656333D01*
X122880142Y-107608714D01*
X122689666Y-107608714D01*
X122594428Y-107656333D01*
X123023000Y-108227761D02*
X122927761Y-108275380D01*
X122689666Y-108275380D01*
X122594428Y-108227761D01*
X122546809Y-108132523D01*
X122546809Y-108037285D01*
X122594428Y-107942047D01*
X122689666Y-107894428D01*
X122927761Y-107894428D01*
X123023000Y-107846809D01*
X123499190Y-108275380D02*
X123499190Y-107608714D01*
X123499190Y-107799190D02*
X123546809Y-107703952D01*
X123594428Y-107656333D01*
X123689666Y-107608714D01*
X123784904Y-107608714D01*
X124546809Y-108275380D02*
X124546809Y-107275380D01*
X124546809Y-108227761D02*
X124451571Y-108275380D01*
X124261095Y-108275380D01*
X124165857Y-108227761D01*
X124118238Y-108180142D01*
X124070619Y-108084904D01*
X124070619Y-107799190D01*
X124118238Y-107703952D01*
X124165857Y-107656333D01*
X124261095Y-107608714D01*
X124451571Y-107608714D01*
X124546809Y-107656333D01*
X117903952Y-109689666D02*
X118380142Y-109689666D01*
X117808714Y-109975380D02*
X118142047Y-108975380D01*
X118475380Y-109975380D01*
X119237285Y-109975380D02*
X119237285Y-108975380D01*
X119237285Y-109927761D02*
X119142047Y-109975380D01*
X118951571Y-109975380D01*
X118856333Y-109927761D01*
X118808714Y-109880142D01*
X118761095Y-109784904D01*
X118761095Y-109499190D01*
X118808714Y-109403952D01*
X118856333Y-109356333D01*
X118951571Y-109308714D01*
X119142047Y-109308714D01*
X119237285Y-109356333D01*
X120142047Y-109975380D02*
X120142047Y-109451571D01*
X120094428Y-109356333D01*
X119999190Y-109308714D01*
X119808714Y-109308714D01*
X119713476Y-109356333D01*
X120142047Y-109927761D02*
X120046809Y-109975380D01*
X119808714Y-109975380D01*
X119713476Y-109927761D01*
X119665857Y-109832523D01*
X119665857Y-109737285D01*
X119713476Y-109642047D01*
X119808714Y-109594428D01*
X120046809Y-109594428D01*
X120142047Y-109546809D01*
X120618238Y-109308714D02*
X120618238Y-110308714D01*
X120618238Y-109356333D02*
X120713476Y-109308714D01*
X120903952Y-109308714D01*
X120999190Y-109356333D01*
X121046809Y-109403952D01*
X121094428Y-109499190D01*
X121094428Y-109784904D01*
X121046809Y-109880142D01*
X120999190Y-109927761D01*
X120903952Y-109975380D01*
X120713476Y-109975380D01*
X120618238Y-109927761D01*
X121380142Y-109308714D02*
X121761095Y-109308714D01*
X121523000Y-108975380D02*
X121523000Y-109832523D01*
X121570619Y-109927761D01*
X121665857Y-109975380D01*
X121761095Y-109975380D01*
X122475380Y-109927761D02*
X122380142Y-109975380D01*
X122189666Y-109975380D01*
X122094428Y-109927761D01*
X122046809Y-109832523D01*
X122046809Y-109451571D01*
X122094428Y-109356333D01*
X122189666Y-109308714D01*
X122380142Y-109308714D01*
X122475380Y-109356333D01*
X122523000Y-109451571D01*
X122523000Y-109546809D01*
X122046809Y-109642047D01*
X122951571Y-109975380D02*
X122951571Y-109308714D01*
X122951571Y-109499190D02*
X122999190Y-109403952D01*
X123046809Y-109356333D01*
X123142047Y-109308714D01*
X123237285Y-109308714D01*
D11*
X139480666Y-111576407D02*
X138480666Y-111576407D01*
X139480666Y-108216407D02*
X138480666Y-108216407D01*
X150600000Y-113048000D02*
X155300000Y-113048000D01*
X155300000Y-113048000D02*
X155300000Y-102948000D01*
X155300000Y-102948000D02*
X150600000Y-102948000D01*
X150600000Y-102948000D02*
X150600000Y-113048000D01*
X150600000Y-110498000D02*
X151200000Y-110498000D01*
X151200000Y-110498000D02*
X151200000Y-112448000D01*
X151200000Y-112448000D02*
X154700000Y-112448000D01*
X154700000Y-112448000D02*
X154700000Y-103548000D01*
X154700000Y-103548000D02*
X151200000Y-103548000D01*
X151200000Y-103548000D02*
X151200000Y-105498000D01*
X151200000Y-105498000D02*
X150600000Y-105498000D01*
X151900000Y-113048000D02*
X151900000Y-112448000D01*
X153200000Y-113048000D02*
X153200000Y-112448000D01*
X151900000Y-102948000D02*
X151900000Y-103548000D01*
X153200000Y-102948000D02*
X153200000Y-103548000D01*
X150600000Y-111298000D02*
X150400000Y-111298000D01*
X150400000Y-111298000D02*
X150400000Y-111598000D01*
X150400000Y-111598000D02*
X150600000Y-111598000D01*
X150500000Y-111298000D02*
X150500000Y-111598000D01*
X154700000Y-110098000D02*
X154200000Y-110098000D01*
X154200000Y-110098000D02*
X154200000Y-109898000D01*
X154200000Y-109898000D02*
X154700000Y-109898000D01*
X154700000Y-109998000D02*
X154200000Y-109998000D01*
X154700000Y-108098000D02*
X154200000Y-108098000D01*
X154200000Y-108098000D02*
X154200000Y-107898000D01*
X154200000Y-107898000D02*
X154700000Y-107898000D01*
X154700000Y-107998000D02*
X154200000Y-107998000D01*
X154700000Y-106098000D02*
X154200000Y-106098000D01*
X154200000Y-106098000D02*
X154200000Y-105898000D01*
X154200000Y-105898000D02*
X154700000Y-105898000D01*
X154700000Y-105998000D02*
X154200000Y-105998000D01*
X150300000Y-112098000D02*
X150300000Y-113348000D01*
X150300000Y-113348000D02*
X151550000Y-113348000D01*
X108857000Y-101114000D02*
X108857000Y-96414000D01*
X108857000Y-96414000D02*
X102757000Y-96414000D01*
X102757000Y-96414000D02*
X102757000Y-101114000D01*
X102757000Y-101114000D02*
X108857000Y-101114000D01*
X106307000Y-101114000D02*
X106307000Y-100514000D01*
X106307000Y-100514000D02*
X108257000Y-100514000D01*
X108257000Y-100514000D02*
X108257000Y-97014000D01*
X108257000Y-97014000D02*
X103357000Y-97014000D01*
X103357000Y-97014000D02*
X103357000Y-100514000D01*
X103357000Y-100514000D02*
X105307000Y-100514000D01*
X105307000Y-100514000D02*
X105307000Y-101114000D01*
X108857000Y-99814000D02*
X108257000Y-99814000D01*
X108857000Y-98514000D02*
X108257000Y-98514000D01*
X102757000Y-99814000D02*
X103357000Y-99814000D01*
X102757000Y-98514000D02*
X103357000Y-98514000D01*
X107107000Y-101114000D02*
X107107000Y-101314000D01*
X107107000Y-101314000D02*
X107407000Y-101314000D01*
X107407000Y-101314000D02*
X107407000Y-101114000D01*
X107107000Y-101214000D02*
X107407000Y-101214000D01*
X105907000Y-97014000D02*
X105907000Y-97514000D01*
X105907000Y-97514000D02*
X105707000Y-97514000D01*
X105707000Y-97514000D02*
X105707000Y-97014000D01*
X105807000Y-97014000D02*
X105807000Y-97514000D01*
X107907000Y-101414000D02*
X109157000Y-101414000D01*
X109157000Y-101414000D02*
X109157000Y-100164000D01*
X108069000Y-102020000D02*
X107069000Y-102020000D01*
X107069000Y-103720000D02*
X108069000Y-103720000D01*
X103567000Y-105813000D02*
X104967000Y-105813000D01*
X104967000Y-105813000D02*
X104967000Y-103013000D01*
X103567000Y-105813000D02*
X103567000Y-103013000D01*
X104967000Y-114659000D02*
X104967000Y-117459000D01*
X103567000Y-114659000D02*
X103567000Y-117459000D01*
X104967000Y-114659000D02*
X103567000Y-114659000D01*
D12*
X135203666Y-108544407D02*
X134878666Y-108844407D01*
X134878666Y-108844407D02*
X134478666Y-108844407D01*
X136478666Y-108844407D02*
X136478666Y-108544407D01*
X136478666Y-108544407D02*
X136178666Y-108544407D01*
X134878666Y-110719407D02*
X134878666Y-110994407D01*
X134878666Y-110994407D02*
X135128666Y-110994407D01*
X136478666Y-110694407D02*
X136478666Y-110994407D01*
X136478666Y-110994407D02*
X136253666Y-110994407D01*
D11*
X111624000Y-107985000D02*
X111624000Y-109185000D01*
X109864000Y-109185000D02*
X109864000Y-107985000D01*
X107433000Y-115478000D02*
X107433000Y-116678000D01*
X105673000Y-116678000D02*
X105673000Y-115478000D01*
X113065000Y-106054000D02*
X114265000Y-106054000D01*
X114265000Y-107814000D02*
X113065000Y-107814000D01*
X107096000Y-108340000D02*
X108296000Y-108340000D01*
X108296000Y-110100000D02*
X107096000Y-110100000D01*
X113065000Y-108340000D02*
X114265000Y-108340000D01*
X114265000Y-110100000D02*
X113065000Y-110100000D01*
X106542000Y-107655000D02*
X108992000Y-107655000D01*
X108342000Y-104435000D02*
X106542000Y-104435000D01*
D12*
X141767761Y-108303190D02*
X141601095Y-108065095D01*
X141482047Y-108303190D02*
X141482047Y-107803190D01*
X141672523Y-107803190D01*
X141720142Y-107827000D01*
X141743952Y-107850809D01*
X141767761Y-107898428D01*
X141767761Y-107969857D01*
X141743952Y-108017476D01*
X141720142Y-108041285D01*
X141672523Y-108065095D01*
X141482047Y-108065095D01*
X141982047Y-108303190D02*
X141982047Y-107803190D01*
X142267761Y-108303190D01*
X142267761Y-107803190D01*
X142767761Y-108303190D02*
X142482047Y-108303190D01*
X142624904Y-108303190D02*
X142624904Y-107803190D01*
X142577285Y-107874619D01*
X142529666Y-107922238D01*
X142482047Y-107946047D01*
X140898666Y-108731857D02*
X140898666Y-109065190D01*
X140779619Y-108541380D02*
X140660571Y-108898523D01*
X140970095Y-108898523D01*
X141112952Y-109065190D02*
X141374857Y-108731857D01*
X141112952Y-108731857D02*
X141374857Y-109065190D01*
X141827238Y-109065190D02*
X141541523Y-109065190D01*
X141684380Y-109065190D02*
X141684380Y-108565190D01*
X141636761Y-108636619D01*
X141589142Y-108684238D01*
X141541523Y-108708047D01*
X142136761Y-108565190D02*
X142184380Y-108565190D01*
X142232000Y-108589000D01*
X142255809Y-108612809D01*
X142279619Y-108660428D01*
X142303428Y-108755666D01*
X142303428Y-108874714D01*
X142279619Y-108969952D01*
X142255809Y-109017571D01*
X142232000Y-109041380D01*
X142184380Y-109065190D01*
X142136761Y-109065190D01*
X142089142Y-109041380D01*
X142065333Y-109017571D01*
X142041523Y-108969952D01*
X142017714Y-108874714D01*
X142017714Y-108755666D01*
X142041523Y-108660428D01*
X142065333Y-108612809D01*
X142089142Y-108589000D01*
X142136761Y-108565190D01*
X142517714Y-109065190D02*
X142517714Y-108565190D01*
X142803428Y-109065190D02*
X142589142Y-108779476D01*
X142803428Y-108565190D02*
X142517714Y-108850904D01*
D11*
X150102857Y-109612285D02*
X150131428Y-109526571D01*
X150131428Y-109383714D01*
X150102857Y-109326571D01*
X150074285Y-109298000D01*
X150017142Y-109269428D01*
X149960000Y-109269428D01*
X149902857Y-109298000D01*
X149874285Y-109326571D01*
X149845714Y-109383714D01*
X149817142Y-109498000D01*
X149788571Y-109555142D01*
X149760000Y-109583714D01*
X149702857Y-109612285D01*
X149645714Y-109612285D01*
X149588571Y-109583714D01*
X149560000Y-109555142D01*
X149531428Y-109498000D01*
X149531428Y-109355142D01*
X149560000Y-109269428D01*
X149531428Y-109098000D02*
X149531428Y-108755142D01*
X150131428Y-108926571D02*
X149531428Y-108926571D01*
X149817142Y-108555142D02*
X149817142Y-108355142D01*
X150131428Y-108269428D02*
X150131428Y-108555142D01*
X149531428Y-108555142D01*
X149531428Y-108269428D01*
X150131428Y-108012285D02*
X149531428Y-108012285D01*
X149960000Y-107812285D01*
X149531428Y-107612285D01*
X150131428Y-107612285D01*
X150131428Y-107326571D02*
X149531428Y-107326571D01*
X149960000Y-107126571D01*
X149531428Y-106926571D01*
X150131428Y-106926571D01*
X149960000Y-106669428D02*
X149960000Y-106383714D01*
X150131428Y-106726571D02*
X149531428Y-106526571D01*
X150131428Y-106326571D01*
X102065142Y-100433000D02*
X102093714Y-100347285D01*
X102122285Y-100318714D01*
X102179428Y-100290142D01*
X102265142Y-100290142D01*
X102322285Y-100318714D01*
X102350857Y-100347285D01*
X102379428Y-100404428D01*
X102379428Y-100633000D01*
X101779428Y-100633000D01*
X101779428Y-100433000D01*
X101808000Y-100375857D01*
X101836571Y-100347285D01*
X101893714Y-100318714D01*
X101950857Y-100318714D01*
X102008000Y-100347285D01*
X102036571Y-100375857D01*
X102065142Y-100433000D01*
X102065142Y-100633000D01*
X102208000Y-100061571D02*
X102208000Y-99775857D01*
X102379428Y-100118714D02*
X101779428Y-99918714D01*
X102379428Y-99718714D01*
X101779428Y-99604428D02*
X101779428Y-99261571D01*
X102379428Y-99433000D02*
X101779428Y-99433000D01*
X101779428Y-99147285D02*
X101779428Y-98804428D01*
X102379428Y-98975857D02*
X101779428Y-98975857D01*
X102065142Y-98604428D02*
X102065142Y-98404428D01*
X102379428Y-98318714D02*
X102379428Y-98604428D01*
X101779428Y-98604428D01*
X101779428Y-98318714D01*
X102379428Y-97718714D02*
X102093714Y-97918714D01*
X102379428Y-98061571D02*
X101779428Y-98061571D01*
X101779428Y-97833000D01*
X101808000Y-97775857D01*
X101836571Y-97747285D01*
X101893714Y-97718714D01*
X101979428Y-97718714D01*
X102036571Y-97747285D01*
X102065142Y-97775857D01*
X102093714Y-97833000D01*
X102093714Y-98061571D01*
X102093714Y-97347285D02*
X102379428Y-97347285D01*
X101779428Y-97547285D02*
X102093714Y-97347285D01*
X101779428Y-97147285D01*
D12*
X109771666Y-103175571D02*
X109747857Y-103199380D01*
X109676428Y-103223190D01*
X109628809Y-103223190D01*
X109557380Y-103199380D01*
X109509761Y-103151761D01*
X109485952Y-103104142D01*
X109462142Y-103008904D01*
X109462142Y-102937476D01*
X109485952Y-102842238D01*
X109509761Y-102794619D01*
X109557380Y-102747000D01*
X109628809Y-102723190D01*
X109676428Y-102723190D01*
X109747857Y-102747000D01*
X109771666Y-102770809D01*
X110247857Y-103223190D02*
X109962142Y-103223190D01*
X110105000Y-103223190D02*
X110105000Y-102723190D01*
X110057380Y-102794619D01*
X110009761Y-102842238D01*
X109962142Y-102866047D01*
X110970285Y-103223190D02*
X110684571Y-103223190D01*
X110827428Y-103223190D02*
X110827428Y-102723190D01*
X110779809Y-102794619D01*
X110732190Y-102842238D01*
X110684571Y-102866047D01*
X111279809Y-102723190D02*
X111327428Y-102723190D01*
X111375047Y-102747000D01*
X111398857Y-102770809D01*
X111422666Y-102818428D01*
X111446476Y-102913666D01*
X111446476Y-103032714D01*
X111422666Y-103127952D01*
X111398857Y-103175571D01*
X111375047Y-103199380D01*
X111327428Y-103223190D01*
X111279809Y-103223190D01*
X111232190Y-103199380D01*
X111208380Y-103175571D01*
X111184571Y-103127952D01*
X111160761Y-103032714D01*
X111160761Y-102913666D01*
X111184571Y-102818428D01*
X111208380Y-102770809D01*
X111232190Y-102747000D01*
X111279809Y-102723190D01*
X111875047Y-102889857D02*
X111875047Y-103223190D01*
X111660761Y-102889857D02*
X111660761Y-103151761D01*
X111684571Y-103199380D01*
X111732190Y-103223190D01*
X111803619Y-103223190D01*
X111851238Y-103199380D01*
X111875047Y-103175571D01*
X112279809Y-102961285D02*
X112113142Y-102961285D01*
X112113142Y-103223190D02*
X112113142Y-102723190D01*
X112351238Y-102723190D01*
D11*
X103211285Y-105270142D02*
X103239857Y-105298714D01*
X103268428Y-105384428D01*
X103268428Y-105441571D01*
X103239857Y-105527285D01*
X103182714Y-105584428D01*
X103125571Y-105613000D01*
X103011285Y-105641571D01*
X102925571Y-105641571D01*
X102811285Y-105613000D01*
X102754142Y-105584428D01*
X102697000Y-105527285D01*
X102668428Y-105441571D01*
X102668428Y-105384428D01*
X102697000Y-105298714D01*
X102725571Y-105270142D01*
X103268428Y-105013000D02*
X102668428Y-105013000D01*
X102954142Y-105013000D02*
X102954142Y-104670142D01*
X103268428Y-104670142D02*
X102668428Y-104670142D01*
X103097000Y-104413000D02*
X103097000Y-104127285D01*
X103268428Y-104470142D02*
X102668428Y-104270142D01*
X103268428Y-104070142D01*
X103268428Y-103527285D02*
X102982714Y-103727285D01*
X103268428Y-103870142D02*
X102668428Y-103870142D01*
X102668428Y-103641571D01*
X102697000Y-103584428D01*
X102725571Y-103555857D01*
X102782714Y-103527285D01*
X102868428Y-103527285D01*
X102925571Y-103555857D01*
X102954142Y-103584428D01*
X102982714Y-103641571D01*
X102982714Y-103870142D01*
X102697000Y-102955857D02*
X102668428Y-103013000D01*
X102668428Y-103098714D01*
X102697000Y-103184428D01*
X102754142Y-103241571D01*
X102811285Y-103270142D01*
X102925571Y-103298714D01*
X103011285Y-103298714D01*
X103125571Y-103270142D01*
X103182714Y-103241571D01*
X103239857Y-103184428D01*
X103268428Y-103098714D01*
X103268428Y-103041571D01*
X103239857Y-102955857D01*
X103211285Y-102927285D01*
X103011285Y-102927285D01*
X103011285Y-103041571D01*
X102954142Y-102670142D02*
X102954142Y-102470142D01*
X103268428Y-102384428D02*
X103268428Y-102670142D01*
X102668428Y-102670142D01*
X102668428Y-102384428D01*
X103268428Y-117844714D02*
X102668428Y-117844714D01*
X102668428Y-117616142D01*
X102697000Y-117559000D01*
X102725571Y-117530428D01*
X102782714Y-117501857D01*
X102868428Y-117501857D01*
X102925571Y-117530428D01*
X102954142Y-117559000D01*
X102982714Y-117616142D01*
X102982714Y-117844714D01*
X102668428Y-117130428D02*
X102668428Y-117016142D01*
X102697000Y-116959000D01*
X102754142Y-116901857D01*
X102868428Y-116873285D01*
X103068428Y-116873285D01*
X103182714Y-116901857D01*
X103239857Y-116959000D01*
X103268428Y-117016142D01*
X103268428Y-117130428D01*
X103239857Y-117187571D01*
X103182714Y-117244714D01*
X103068428Y-117273285D01*
X102868428Y-117273285D01*
X102754142Y-117244714D01*
X102697000Y-117187571D01*
X102668428Y-117130428D01*
X102668428Y-116673285D02*
X103268428Y-116530428D01*
X102839857Y-116416142D01*
X103268428Y-116301857D01*
X102668428Y-116159000D01*
X102954142Y-115930428D02*
X102954142Y-115730428D01*
X103268428Y-115644714D02*
X103268428Y-115930428D01*
X102668428Y-115930428D01*
X102668428Y-115644714D01*
X103268428Y-115044714D02*
X102982714Y-115244714D01*
X103268428Y-115387571D02*
X102668428Y-115387571D01*
X102668428Y-115159000D01*
X102697000Y-115101857D01*
X102725571Y-115073285D01*
X102782714Y-115044714D01*
X102868428Y-115044714D01*
X102925571Y-115073285D01*
X102954142Y-115101857D01*
X102982714Y-115159000D01*
X102982714Y-115387571D01*
D12*
X134572380Y-107969809D02*
X134524761Y-107946000D01*
X134477142Y-107898380D01*
X134405714Y-107826952D01*
X134358095Y-107803142D01*
X134310476Y-107803142D01*
X134334285Y-107922190D02*
X134286666Y-107898380D01*
X134239047Y-107850761D01*
X134215238Y-107755523D01*
X134215238Y-107588857D01*
X134239047Y-107493619D01*
X134286666Y-107446000D01*
X134334285Y-107422190D01*
X134429523Y-107422190D01*
X134477142Y-107446000D01*
X134524761Y-107493619D01*
X134548571Y-107588857D01*
X134548571Y-107755523D01*
X134524761Y-107850761D01*
X134477142Y-107898380D01*
X134429523Y-107922190D01*
X134334285Y-107922190D01*
X135024761Y-107922190D02*
X134739047Y-107922190D01*
X134881904Y-107922190D02*
X134881904Y-107422190D01*
X134834285Y-107493619D01*
X134786666Y-107541238D01*
X134739047Y-107565047D01*
X134398095Y-106898285D02*
X134469523Y-106922095D01*
X134493333Y-106945904D01*
X134517142Y-106993523D01*
X134517142Y-107064952D01*
X134493333Y-107112571D01*
X134469523Y-107136380D01*
X134421904Y-107160190D01*
X134231428Y-107160190D01*
X134231428Y-106660190D01*
X134398095Y-106660190D01*
X134445714Y-106684000D01*
X134469523Y-106707809D01*
X134493333Y-106755428D01*
X134493333Y-106803047D01*
X134469523Y-106850666D01*
X134445714Y-106874476D01*
X134398095Y-106898285D01*
X134231428Y-106898285D01*
X134707619Y-107136380D02*
X134779047Y-107160190D01*
X134898095Y-107160190D01*
X134945714Y-107136380D01*
X134969523Y-107112571D01*
X134993333Y-107064952D01*
X134993333Y-107017333D01*
X134969523Y-106969714D01*
X134945714Y-106945904D01*
X134898095Y-106922095D01*
X134802857Y-106898285D01*
X134755238Y-106874476D01*
X134731428Y-106850666D01*
X134707619Y-106803047D01*
X134707619Y-106755428D01*
X134731428Y-106707809D01*
X134755238Y-106684000D01*
X134802857Y-106660190D01*
X134921904Y-106660190D01*
X134993333Y-106684000D01*
X135183809Y-107136380D02*
X135255238Y-107160190D01*
X135374285Y-107160190D01*
X135421904Y-107136380D01*
X135445714Y-107112571D01*
X135469523Y-107064952D01*
X135469523Y-107017333D01*
X135445714Y-106969714D01*
X135421904Y-106945904D01*
X135374285Y-106922095D01*
X135279047Y-106898285D01*
X135231428Y-106874476D01*
X135207619Y-106850666D01*
X135183809Y-106803047D01*
X135183809Y-106755428D01*
X135207619Y-106707809D01*
X135231428Y-106684000D01*
X135279047Y-106660190D01*
X135398095Y-106660190D01*
X135469523Y-106684000D01*
X135945714Y-107160190D02*
X135660000Y-107160190D01*
X135802857Y-107160190D02*
X135802857Y-106660190D01*
X135755238Y-106731619D01*
X135707619Y-106779238D01*
X135660000Y-106803047D01*
X136112380Y-106660190D02*
X136421904Y-106660190D01*
X136255238Y-106850666D01*
X136326666Y-106850666D01*
X136374285Y-106874476D01*
X136398095Y-106898285D01*
X136421904Y-106945904D01*
X136421904Y-107064952D01*
X136398095Y-107112571D01*
X136374285Y-107136380D01*
X136326666Y-107160190D01*
X136183809Y-107160190D01*
X136136190Y-107136380D01*
X136112380Y-107112571D01*
X136707619Y-106874476D02*
X136660000Y-106850666D01*
X136636190Y-106826857D01*
X136612380Y-106779238D01*
X136612380Y-106755428D01*
X136636190Y-106707809D01*
X136660000Y-106684000D01*
X136707619Y-106660190D01*
X136802857Y-106660190D01*
X136850476Y-106684000D01*
X136874285Y-106707809D01*
X136898095Y-106755428D01*
X136898095Y-106779238D01*
X136874285Y-106826857D01*
X136850476Y-106850666D01*
X136802857Y-106874476D01*
X136707619Y-106874476D01*
X136660000Y-106898285D01*
X136636190Y-106922095D01*
X136612380Y-106969714D01*
X136612380Y-107064952D01*
X136636190Y-107112571D01*
X136660000Y-107136380D01*
X136707619Y-107160190D01*
X136802857Y-107160190D01*
X136850476Y-107136380D01*
X136874285Y-107112571D01*
X136898095Y-107064952D01*
X136898095Y-106969714D01*
X136874285Y-106922095D01*
X136850476Y-106898285D01*
X136802857Y-106874476D01*
X137112380Y-107160190D02*
X137112380Y-106660190D01*
X137231428Y-106660190D01*
X137302857Y-106684000D01*
X137350476Y-106731619D01*
X137374285Y-106779238D01*
X137398095Y-106874476D01*
X137398095Y-106945904D01*
X137374285Y-107041142D01*
X137350476Y-107088761D01*
X137302857Y-107136380D01*
X137231428Y-107160190D01*
X137112380Y-107160190D01*
X137564761Y-106660190D02*
X137683809Y-107160190D01*
X137779047Y-106803047D01*
X137874285Y-107160190D01*
X137993333Y-106660190D01*
X138183809Y-106969714D02*
X138564761Y-106969714D01*
X138755238Y-106660190D02*
X139088571Y-106660190D01*
X138874285Y-107160190D01*
X139279047Y-106969714D02*
X139660000Y-106969714D01*
X140064761Y-106898285D02*
X139898095Y-106898285D01*
X139898095Y-107160190D02*
X139898095Y-106660190D01*
X140136190Y-106660190D01*
X110660666Y-110843190D02*
X110494000Y-110605095D01*
X110374952Y-110843190D02*
X110374952Y-110343190D01*
X110565428Y-110343190D01*
X110613047Y-110367000D01*
X110636857Y-110390809D01*
X110660666Y-110438428D01*
X110660666Y-110509857D01*
X110636857Y-110557476D01*
X110613047Y-110581285D01*
X110565428Y-110605095D01*
X110374952Y-110605095D01*
X111136857Y-110843190D02*
X110851142Y-110843190D01*
X110994000Y-110843190D02*
X110994000Y-110343190D01*
X110946380Y-110414619D01*
X110898761Y-110462238D01*
X110851142Y-110486047D01*
X110279714Y-111605190D02*
X109994000Y-111605190D01*
X110136857Y-111605190D02*
X110136857Y-111105190D01*
X110089238Y-111176619D01*
X110041619Y-111224238D01*
X109994000Y-111248047D01*
X110494000Y-111557571D02*
X110517809Y-111581380D01*
X110494000Y-111605190D01*
X110470190Y-111581380D01*
X110494000Y-111557571D01*
X110494000Y-111605190D01*
X110970190Y-111105190D02*
X110732095Y-111105190D01*
X110708285Y-111343285D01*
X110732095Y-111319476D01*
X110779714Y-111295666D01*
X110898761Y-111295666D01*
X110946380Y-111319476D01*
X110970190Y-111343285D01*
X110994000Y-111390904D01*
X110994000Y-111509952D01*
X110970190Y-111557571D01*
X110946380Y-111581380D01*
X110898761Y-111605190D01*
X110779714Y-111605190D01*
X110732095Y-111581380D01*
X110708285Y-111557571D01*
X111208285Y-111605190D02*
X111208285Y-111105190D01*
X111494000Y-111605190D02*
X111279714Y-111319476D01*
X111494000Y-111105190D02*
X111208285Y-111390904D01*
X107993666Y-115923190D02*
X107827000Y-115685095D01*
X107707952Y-115923190D02*
X107707952Y-115423190D01*
X107898428Y-115423190D01*
X107946047Y-115447000D01*
X107969857Y-115470809D01*
X107993666Y-115518428D01*
X107993666Y-115589857D01*
X107969857Y-115637476D01*
X107946047Y-115661285D01*
X107898428Y-115685095D01*
X107707952Y-115685095D01*
X108184142Y-115470809D02*
X108207952Y-115447000D01*
X108255571Y-115423190D01*
X108374619Y-115423190D01*
X108422238Y-115447000D01*
X108446047Y-115470809D01*
X108469857Y-115518428D01*
X108469857Y-115566047D01*
X108446047Y-115637476D01*
X108160333Y-115923190D01*
X108469857Y-115923190D01*
X107993714Y-116685190D02*
X107708000Y-116685190D01*
X107850857Y-116685190D02*
X107850857Y-116185190D01*
X107803238Y-116256619D01*
X107755619Y-116304238D01*
X107708000Y-116328047D01*
X108208000Y-116637571D02*
X108231809Y-116661380D01*
X108208000Y-116685190D01*
X108184190Y-116661380D01*
X108208000Y-116637571D01*
X108208000Y-116685190D01*
X108684190Y-116185190D02*
X108446095Y-116185190D01*
X108422285Y-116423285D01*
X108446095Y-116399476D01*
X108493714Y-116375666D01*
X108612761Y-116375666D01*
X108660380Y-116399476D01*
X108684190Y-116423285D01*
X108708000Y-116470904D01*
X108708000Y-116589952D01*
X108684190Y-116637571D01*
X108660380Y-116661380D01*
X108612761Y-116685190D01*
X108493714Y-116685190D01*
X108446095Y-116661380D01*
X108422285Y-116637571D01*
X108922285Y-116685190D02*
X108922285Y-116185190D01*
X109208000Y-116685190D02*
X108993714Y-116399476D01*
X109208000Y-116185190D02*
X108922285Y-116470904D01*
X112184666Y-105890190D02*
X112018000Y-105652095D01*
X111898952Y-105890190D02*
X111898952Y-105390190D01*
X112089428Y-105390190D01*
X112137047Y-105414000D01*
X112160857Y-105437809D01*
X112184666Y-105485428D01*
X112184666Y-105556857D01*
X112160857Y-105604476D01*
X112137047Y-105628285D01*
X112089428Y-105652095D01*
X111898952Y-105652095D01*
X112351333Y-105390190D02*
X112660857Y-105390190D01*
X112494190Y-105580666D01*
X112565619Y-105580666D01*
X112613238Y-105604476D01*
X112637047Y-105628285D01*
X112660857Y-105675904D01*
X112660857Y-105794952D01*
X112637047Y-105842571D01*
X112613238Y-105866380D01*
X112565619Y-105890190D01*
X112422761Y-105890190D01*
X112375142Y-105866380D01*
X112351333Y-105842571D01*
X113716666Y-105890190D02*
X113430952Y-105890190D01*
X113573809Y-105890190D02*
X113573809Y-105390190D01*
X113526190Y-105461619D01*
X113478571Y-105509238D01*
X113430952Y-105533047D01*
X114026190Y-105390190D02*
X114073809Y-105390190D01*
X114121428Y-105414000D01*
X114145238Y-105437809D01*
X114169047Y-105485428D01*
X114192857Y-105580666D01*
X114192857Y-105699714D01*
X114169047Y-105794952D01*
X114145238Y-105842571D01*
X114121428Y-105866380D01*
X114073809Y-105890190D01*
X114026190Y-105890190D01*
X113978571Y-105866380D01*
X113954761Y-105842571D01*
X113930952Y-105794952D01*
X113907142Y-105699714D01*
X113907142Y-105580666D01*
X113930952Y-105485428D01*
X113954761Y-105437809D01*
X113978571Y-105414000D01*
X114026190Y-105390190D01*
X114502380Y-105390190D02*
X114550000Y-105390190D01*
X114597619Y-105414000D01*
X114621428Y-105437809D01*
X114645238Y-105485428D01*
X114669047Y-105580666D01*
X114669047Y-105699714D01*
X114645238Y-105794952D01*
X114621428Y-105842571D01*
X114597619Y-105866380D01*
X114550000Y-105890190D01*
X114502380Y-105890190D01*
X114454761Y-105866380D01*
X114430952Y-105842571D01*
X114407142Y-105794952D01*
X114383333Y-105699714D01*
X114383333Y-105580666D01*
X114407142Y-105485428D01*
X114430952Y-105437809D01*
X114454761Y-105414000D01*
X114502380Y-105390190D01*
X114883333Y-105890190D02*
X114883333Y-105390190D01*
X115169047Y-105890190D02*
X114954761Y-105604476D01*
X115169047Y-105390190D02*
X114883333Y-105675904D01*
X106469666Y-110843190D02*
X106303000Y-110605095D01*
X106183952Y-110843190D02*
X106183952Y-110343190D01*
X106374428Y-110343190D01*
X106422047Y-110367000D01*
X106445857Y-110390809D01*
X106469666Y-110438428D01*
X106469666Y-110509857D01*
X106445857Y-110557476D01*
X106422047Y-110581285D01*
X106374428Y-110605095D01*
X106183952Y-110605095D01*
X106898238Y-110509857D02*
X106898238Y-110843190D01*
X106779190Y-110319380D02*
X106660142Y-110676523D01*
X106969666Y-110676523D01*
X107858761Y-110843190D02*
X107573047Y-110843190D01*
X107715904Y-110843190D02*
X107715904Y-110343190D01*
X107668285Y-110414619D01*
X107620666Y-110462238D01*
X107573047Y-110486047D01*
X108168285Y-110343190D02*
X108215904Y-110343190D01*
X108263523Y-110367000D01*
X108287333Y-110390809D01*
X108311142Y-110438428D01*
X108334952Y-110533666D01*
X108334952Y-110652714D01*
X108311142Y-110747952D01*
X108287333Y-110795571D01*
X108263523Y-110819380D01*
X108215904Y-110843190D01*
X108168285Y-110843190D01*
X108120666Y-110819380D01*
X108096857Y-110795571D01*
X108073047Y-110747952D01*
X108049238Y-110652714D01*
X108049238Y-110533666D01*
X108073047Y-110438428D01*
X108096857Y-110390809D01*
X108120666Y-110367000D01*
X108168285Y-110343190D01*
X108549238Y-110843190D02*
X108549238Y-110343190D01*
X108834952Y-110843190D02*
X108620666Y-110557476D01*
X108834952Y-110343190D02*
X108549238Y-110628904D01*
X112438666Y-110843190D02*
X112272000Y-110605095D01*
X112152952Y-110843190D02*
X112152952Y-110343190D01*
X112343428Y-110343190D01*
X112391047Y-110367000D01*
X112414857Y-110390809D01*
X112438666Y-110438428D01*
X112438666Y-110509857D01*
X112414857Y-110557476D01*
X112391047Y-110581285D01*
X112343428Y-110605095D01*
X112152952Y-110605095D01*
X112891047Y-110343190D02*
X112652952Y-110343190D01*
X112629142Y-110581285D01*
X112652952Y-110557476D01*
X112700571Y-110533666D01*
X112819619Y-110533666D01*
X112867238Y-110557476D01*
X112891047Y-110581285D01*
X112914857Y-110628904D01*
X112914857Y-110747952D01*
X112891047Y-110795571D01*
X112867238Y-110819380D01*
X112819619Y-110843190D01*
X112700571Y-110843190D01*
X112652952Y-110819380D01*
X112629142Y-110795571D01*
X113716666Y-110843190D02*
X113430952Y-110843190D01*
X113573809Y-110843190D02*
X113573809Y-110343190D01*
X113526190Y-110414619D01*
X113478571Y-110462238D01*
X113430952Y-110486047D01*
X114026190Y-110343190D02*
X114073809Y-110343190D01*
X114121428Y-110367000D01*
X114145238Y-110390809D01*
X114169047Y-110438428D01*
X114192857Y-110533666D01*
X114192857Y-110652714D01*
X114169047Y-110747952D01*
X114145238Y-110795571D01*
X114121428Y-110819380D01*
X114073809Y-110843190D01*
X114026190Y-110843190D01*
X113978571Y-110819380D01*
X113954761Y-110795571D01*
X113930952Y-110747952D01*
X113907142Y-110652714D01*
X113907142Y-110533666D01*
X113930952Y-110438428D01*
X113954761Y-110390809D01*
X113978571Y-110367000D01*
X114026190Y-110343190D01*
X114502380Y-110343190D02*
X114550000Y-110343190D01*
X114597619Y-110367000D01*
X114621428Y-110390809D01*
X114645238Y-110438428D01*
X114669047Y-110533666D01*
X114669047Y-110652714D01*
X114645238Y-110747952D01*
X114621428Y-110795571D01*
X114597619Y-110819380D01*
X114550000Y-110843190D01*
X114502380Y-110843190D01*
X114454761Y-110819380D01*
X114430952Y-110795571D01*
X114407142Y-110747952D01*
X114383333Y-110652714D01*
X114383333Y-110533666D01*
X114407142Y-110438428D01*
X114430952Y-110390809D01*
X114454761Y-110367000D01*
X114502380Y-110343190D01*
X114883333Y-110843190D02*
X114883333Y-110343190D01*
X115169047Y-110843190D02*
X114954761Y-110557476D01*
X115169047Y-110343190D02*
X114883333Y-110628904D01*
X109601047Y-103739190D02*
X109601047Y-104143952D01*
X109624857Y-104191571D01*
X109648666Y-104215380D01*
X109696285Y-104239190D01*
X109791523Y-104239190D01*
X109839142Y-104215380D01*
X109862952Y-104191571D01*
X109886761Y-104143952D01*
X109886761Y-103739190D01*
X110386761Y-104239190D02*
X110101047Y-104239190D01*
X110243904Y-104239190D02*
X110243904Y-103739190D01*
X110196285Y-103810619D01*
X110148666Y-103858238D01*
X110101047Y-103882047D01*
X109609333Y-105001190D02*
X109609333Y-104501190D01*
X109776000Y-104858333D01*
X109942666Y-104501190D01*
X109942666Y-105001190D01*
X110466476Y-104953571D02*
X110442666Y-104977380D01*
X110371238Y-105001190D01*
X110323619Y-105001190D01*
X110252190Y-104977380D01*
X110204571Y-104929761D01*
X110180761Y-104882142D01*
X110156952Y-104786904D01*
X110156952Y-104715476D01*
X110180761Y-104620238D01*
X110204571Y-104572619D01*
X110252190Y-104525000D01*
X110323619Y-104501190D01*
X110371238Y-104501190D01*
X110442666Y-104525000D01*
X110466476Y-104548809D01*
X110680761Y-105001190D02*
X110680761Y-104501190D01*
X110871238Y-104501190D01*
X110918857Y-104525000D01*
X110942666Y-104548809D01*
X110966476Y-104596428D01*
X110966476Y-104667857D01*
X110942666Y-104715476D01*
X110918857Y-104739285D01*
X110871238Y-104763095D01*
X110680761Y-104763095D01*
X111133142Y-104501190D02*
X111466476Y-104501190D01*
X111252190Y-105001190D01*
X111609333Y-104501190D02*
X111918857Y-104501190D01*
X111752190Y-104691666D01*
X111823619Y-104691666D01*
X111871238Y-104715476D01*
X111895047Y-104739285D01*
X111918857Y-104786904D01*
X111918857Y-104905952D01*
X111895047Y-104953571D01*
X111871238Y-104977380D01*
X111823619Y-105001190D01*
X111680761Y-105001190D01*
X111633142Y-104977380D01*
X111609333Y-104953571D01*
X112204571Y-104715476D02*
X112156952Y-104691666D01*
X112133142Y-104667857D01*
X112109333Y-104620238D01*
X112109333Y-104596428D01*
X112133142Y-104548809D01*
X112156952Y-104525000D01*
X112204571Y-104501190D01*
X112299809Y-104501190D01*
X112347428Y-104525000D01*
X112371238Y-104548809D01*
X112395047Y-104596428D01*
X112395047Y-104620238D01*
X112371238Y-104667857D01*
X112347428Y-104691666D01*
X112299809Y-104715476D01*
X112204571Y-104715476D01*
X112156952Y-104739285D01*
X112133142Y-104763095D01*
X112109333Y-104810714D01*
X112109333Y-104905952D01*
X112133142Y-104953571D01*
X112156952Y-104977380D01*
X112204571Y-105001190D01*
X112299809Y-105001190D01*
X112347428Y-104977380D01*
X112371238Y-104953571D01*
X112395047Y-104905952D01*
X112395047Y-104810714D01*
X112371238Y-104763095D01*
X112347428Y-104739285D01*
X112299809Y-104715476D01*
X112561714Y-104501190D02*
X112871238Y-104501190D01*
X112704571Y-104691666D01*
X112776000Y-104691666D01*
X112823619Y-104715476D01*
X112847428Y-104739285D01*
X112871238Y-104786904D01*
X112871238Y-104905952D01*
X112847428Y-104953571D01*
X112823619Y-104977380D01*
X112776000Y-105001190D01*
X112633142Y-105001190D01*
X112585523Y-104977380D01*
X112561714Y-104953571D01*
X113347428Y-105001190D02*
X113061714Y-105001190D01*
X113204571Y-105001190D02*
X113204571Y-104501190D01*
X113156952Y-104572619D01*
X113109333Y-104620238D01*
X113061714Y-104644047D01*
X113561714Y-104810714D02*
X113942666Y-104810714D01*
X114156952Y-104548809D02*
X114180761Y-104525000D01*
X114228380Y-104501190D01*
X114347428Y-104501190D01*
X114395047Y-104525000D01*
X114418857Y-104548809D01*
X114442666Y-104596428D01*
X114442666Y-104644047D01*
X114418857Y-104715476D01*
X114133142Y-105001190D01*
X114442666Y-105001190D01*
X114656952Y-104810714D02*
X115037904Y-104810714D01*
X115371238Y-104501190D02*
X115466476Y-104501190D01*
X115514095Y-104525000D01*
X115561714Y-104572619D01*
X115585523Y-104667857D01*
X115585523Y-104834523D01*
X115561714Y-104929761D01*
X115514095Y-104977380D01*
X115466476Y-105001190D01*
X115371238Y-105001190D01*
X115323619Y-104977380D01*
X115276000Y-104929761D01*
X115252190Y-104834523D01*
X115252190Y-104667857D01*
X115276000Y-104572619D01*
X115323619Y-104525000D01*
X115371238Y-104501190D01*
X115728380Y-104501190D02*
X116014095Y-104501190D01*
X115871238Y-105001190D02*
X115871238Y-104501190D01*
M02*
