M48
;DRILL file {KiCad (5.0.0-rc2-dev-444-g2974a2c10)} date 04/27/19 15:19:10
;FORMAT={-:-/ absolute / inch / decimal}
FMAT,2
INCH,TZ
T1C0.0130
T2C0.0200
T3C0.0295
T4C0.0394
T5C0.1063
%
G90
G05
M72
T1
X4.4Y-4.075
X4.4Y-4.425
X5.15Y-4.01
X5.15Y-4.46
X5.6Y-4.15
X5.6Y-4.4
X5.63Y-4.3
X5.8Y-4.3
X6.075Y-3.925
X6.075Y-4.575
X6.275Y-3.95
X6.275Y-4.55
T2
X4.75Y-4.04
T3
X6.2Y-3.9763
X6.2Y-4.055
X6.2Y-4.2888
X6.2Y-4.3675
X6.2Y-4.4463
X6.2Y-4.525
T4
X4.4Y-4.65
X4.5Y-4.65
X4.6Y-4.65
X4.7Y-4.65
X4.8Y-4.65
X4.9Y-4.65
X5.Y-4.65
X5.1Y-4.65
X5.2Y-4.65
X5.3Y-4.65
X5.4Y-4.65
X5.5Y-4.65
X5.6Y-4.65
X5.7Y-4.65
X5.8Y-4.65
X5.9Y-4.65
X6.Y-4.65
X4.4Y-3.85
X4.5Y-3.85
X4.6Y-3.85
X4.7Y-3.85
X4.8Y-3.85
X4.9Y-3.85
X5.Y-3.85
X5.1Y-3.85
X5.2Y-3.85
X5.3Y-3.85
X5.4Y-3.85
X5.5Y-3.85
X5.6Y-3.85
X5.7Y-3.85
X5.8Y-3.85
X5.9Y-3.85
X4.4Y-3.95
X4.5Y-3.95
X4.6Y-3.95
X4.7Y-3.95
X4.8Y-3.95
X4.9Y-3.95
X5.Y-3.95
X5.1Y-3.95
X5.2Y-3.95
X5.3Y-3.95
X5.4Y-3.95
X5.5Y-3.95
X5.6Y-3.95
X5.7Y-3.95
X5.8Y-3.95
X5.9Y-3.95
X4.4Y-4.55
X4.5Y-4.55
X4.6Y-4.55
X4.7Y-4.55
X4.8Y-4.55
X4.9Y-4.55
X5.Y-4.55
X5.1Y-4.55
X5.2Y-4.55
X5.3Y-4.55
X5.4Y-4.55
X5.5Y-4.55
X5.6Y-4.55
X5.7Y-4.55
X5.8Y-4.55
X5.9Y-4.55
X6.Y-4.55
X6.Y-4.15
X6.Y-4.25
X6.Y-4.35
X5.7Y-4.05
X5.7Y-4.15
X5.7Y-4.25
X5.7Y-4.35
X5.7Y-4.45
T5
X6.42Y-3.915
X6.42Y-4.585
X4.23Y-3.915
X4.23Y-4.585
T0
M30
