G04 #@! TF.GenerationSoftware,KiCad,Pcbnew,(5.0.0-rc2-dev-444-g2974a2c10)*
G04 #@! TF.CreationDate,2019-11-24T19:21:20-08:00*
G04 #@! TF.ProjectId,ItsyBitsy breadboard,49747379426974737920627265616462,v02*
G04 #@! TF.SameCoordinates,Original*
G04 #@! TF.FileFunction,Soldermask,Top*
G04 #@! TF.FilePolarity,Negative*
%FSLAX46Y46*%
G04 Gerber Fmt 4.6, Leading zero omitted, Abs format (unit mm)*
G04 Created by KiCad (PCBNEW (5.0.0-rc2-dev-444-g2974a2c10)) date 11/24/19 19:21:20*
%MOMM*%
%LPD*%
G01*
G04 APERTURE LIST*
%ADD10O,1.801600X1.801600*%
%ADD11R,1.801600X1.801600*%
%ADD12R,0.901600X0.601600*%
%ADD13R,0.901600X0.501600*%
%ADD14C,2.801600*%
%ADD15R,1.801600X1.301600*%
%ADD16O,1.801600X1.301600*%
%ADD17R,1.301600X1.801600*%
%ADD18O,1.301600X1.801600*%
%ADD19R,1.101600X1.351600*%
%ADD20R,1.301600X1.301600*%
%ADD21R,0.701600X0.521600*%
%ADD22R,1.401600X0.801600*%
%ADD23R,0.801600X1.401600*%
%ADD24R,1.161600X0.751600*%
G04 APERTURE END LIST*
D10*
X144780000Y-102870000D03*
X144780000Y-105410000D03*
X144780000Y-107950000D03*
X144780000Y-110490000D03*
D11*
X144780000Y-113030000D03*
D12*
X138080666Y-108696407D03*
D13*
X138080666Y-110296407D03*
X138080666Y-109496407D03*
D12*
X138080666Y-111096407D03*
D13*
X139880666Y-109496407D03*
D12*
X139880666Y-108696407D03*
D13*
X139880666Y-110296407D03*
D12*
X139880666Y-111096407D03*
D11*
X111760000Y-115570000D03*
D10*
X114300000Y-115570000D03*
X116840000Y-115570000D03*
X119380000Y-115570000D03*
X121920000Y-115570000D03*
X124460000Y-115570000D03*
X127000000Y-115570000D03*
X129540000Y-115570000D03*
X132080000Y-115570000D03*
X134620000Y-115570000D03*
X137160000Y-115570000D03*
X139700000Y-115570000D03*
X142240000Y-115570000D03*
X144780000Y-115570000D03*
X147320000Y-115570000D03*
X149860000Y-115570000D03*
X152400000Y-115570000D03*
D11*
X111760000Y-100330000D03*
D10*
X114300000Y-100330000D03*
X116840000Y-100330000D03*
X119380000Y-100330000D03*
X121920000Y-100330000D03*
X124460000Y-100330000D03*
X127000000Y-100330000D03*
X129540000Y-100330000D03*
X132080000Y-100330000D03*
X134620000Y-100330000D03*
X137160000Y-100330000D03*
X139700000Y-100330000D03*
X142240000Y-100330000D03*
X144780000Y-100330000D03*
X147320000Y-100330000D03*
X149860000Y-100330000D03*
D14*
X99314000Y-99441000D03*
X99314000Y-116459000D03*
X157480000Y-116459000D03*
D15*
X152400000Y-110998000D03*
D16*
X152400000Y-108998000D03*
X152400000Y-106998000D03*
X152400000Y-104998000D03*
D17*
X106807000Y-99314000D03*
D18*
X104807000Y-99314000D03*
D14*
X157480000Y-99441000D03*
D10*
X152400000Y-118110000D03*
X149860000Y-118110000D03*
X147320000Y-118110000D03*
X144780000Y-118110000D03*
X142240000Y-118110000D03*
X139700000Y-118110000D03*
X137160000Y-118110000D03*
X134620000Y-118110000D03*
X132080000Y-118110000D03*
X129540000Y-118110000D03*
X127000000Y-118110000D03*
X124460000Y-118110000D03*
X121920000Y-118110000D03*
X119380000Y-118110000D03*
X116840000Y-118110000D03*
X114300000Y-118110000D03*
D11*
X111760000Y-118110000D03*
D10*
X149860000Y-97790000D03*
X147320000Y-97790000D03*
X144780000Y-97790000D03*
X142240000Y-97790000D03*
X139700000Y-97790000D03*
X137160000Y-97790000D03*
X134620000Y-97790000D03*
X132080000Y-97790000D03*
X129540000Y-97790000D03*
X127000000Y-97790000D03*
X124460000Y-97790000D03*
X121920000Y-97790000D03*
X119380000Y-97790000D03*
X116840000Y-97790000D03*
X114300000Y-97790000D03*
D11*
X111760000Y-97790000D03*
D19*
X106569000Y-102870000D03*
X108569000Y-102870000D03*
D20*
X104267000Y-102913000D03*
X104267000Y-105113000D03*
X104267000Y-115359000D03*
X104267000Y-117559000D03*
D21*
X136628666Y-109119407D03*
X136628666Y-109769407D03*
X136628666Y-110419407D03*
X134728666Y-109119407D03*
X134728666Y-109769407D03*
X134728666Y-110419407D03*
D22*
X110744000Y-109535000D03*
X110744000Y-107635000D03*
X106553000Y-117028000D03*
X106553000Y-115128000D03*
D23*
X114615000Y-106934000D03*
X112715000Y-106934000D03*
X108646000Y-109220000D03*
X106746000Y-109220000D03*
X114615000Y-109220000D03*
X112715000Y-109220000D03*
D24*
X106342000Y-106995000D03*
X106342000Y-105095000D03*
X108542000Y-105095000D03*
X108542000Y-106045000D03*
X108542000Y-106995000D03*
M02*
