%FSLAX45Y45*%
G04 Gerber Fmt 4.5, Leading zero omitted, Abs format (unit mm)*
G04 Created by KiCad (PCBNEW (5.0.0-rc2-dev-444-g2974a2c10)) date 11/25/19 15:22:14*
%MOMM*%
%LPD*%
G01*
G04 APERTURE LIST*
%ADD10C,0.100000*%
%ADD11C,0.200000*%
%ADD12C,0.300000*%
G04 APERTURE END LIST*
D10*
X16014700Y-11874500D02*
X16014700Y-11430000D01*
X16014700Y-10160000D02*
G75*
G02X15951200Y-10223500I-63500J0D01*
G01*
X15951200Y-10223500D02*
X15633700Y-10223500D01*
X15570200Y-10287000D02*
X15570200Y-11303000D01*
X15570200Y-10287000D02*
G75*
G02X15633700Y-10223500I63500J0D01*
G01*
X15633700Y-11366500D02*
G75*
G02X15570200Y-11303000I0J63500D01*
G01*
X15951200Y-11366500D02*
G75*
G02X16014700Y-11430000I0J-63500D01*
G01*
X15951200Y-11366500D02*
X15633700Y-11366500D01*
X9728200Y-11366500D02*
X10045700Y-11366500D01*
X9728200Y-10223500D02*
X10045700Y-10223500D01*
X10109200Y-11303000D02*
G75*
G02X10045700Y-11366500I-63500J0D01*
G01*
X10045700Y-10223500D02*
G75*
G02X10109200Y-10287000I0J-63500D01*
G01*
X10109200Y-11303000D02*
X10109200Y-10287000D01*
X9664700Y-11874500D02*
X9664700Y-11430000D01*
X9664700Y-11430000D02*
G75*
G02X9728200Y-11366500I63500J0D01*
G01*
X9728200Y-10223500D02*
G75*
G02X9664700Y-10160000I0J63500D01*
G01*
X16014700Y-11874500D02*
G75*
G02X15951200Y-11938000I-63500J0D01*
G01*
X9728200Y-11938000D02*
G75*
G02X9664700Y-11874500I0J63500D01*
G01*
X9664700Y-9715500D02*
G75*
G02X9728200Y-9652000I63500J0D01*
G01*
X15951200Y-9652000D02*
G75*
G02X16014700Y-9715500I0J-63500D01*
G01*
X9664700Y-10160000D02*
X9664700Y-9715500D01*
X9728200Y-11938000D02*
X15951200Y-11938000D01*
X9728200Y-9652000D02*
X15951200Y-9652000D01*
X16014700Y-10160000D02*
X16014700Y-9715500D01*
D11*
X10206990Y-10232390D02*
X10240010Y-10265410D01*
X10240010Y-10232390D02*
X10206990Y-10265410D01*
X10206990Y-11324590D02*
X10240010Y-11357610D01*
X10240010Y-11324590D02*
X10206990Y-11357610D01*
X10918190Y-9762490D02*
X10951210Y-9795510D01*
X10951210Y-9762490D02*
X10918190Y-9795510D01*
X10981690Y-11667490D02*
X11014710Y-11700510D01*
X11014710Y-11667490D02*
X10981690Y-11700510D01*
X11451590Y-11172190D02*
X11484610Y-11205210D01*
X11484610Y-11172190D02*
X11451590Y-11205210D01*
X11578590Y-10778490D02*
X11611610Y-10811510D01*
X11611610Y-10778490D02*
X11578590Y-10811510D01*
X12505690Y-10778490D02*
X12538710Y-10811510D01*
X12538710Y-10778490D02*
X12505690Y-10811510D01*
X13051790Y-11159490D02*
X13084810Y-11192510D01*
X13084810Y-11159490D02*
X13051790Y-11192510D01*
X13229590Y-10321290D02*
X13262610Y-10354310D01*
X13262610Y-10321290D02*
X13229590Y-10354310D01*
X13496290Y-10321290D02*
X13529310Y-10354310D01*
X13529310Y-10321290D02*
X13496290Y-10354310D01*
X13559790Y-10765790D02*
X13592810Y-10798810D01*
X13592810Y-10765790D02*
X13559790Y-10798810D01*
X13699490Y-11210290D02*
X13732510Y-11243310D01*
X13732510Y-11210290D02*
X13699490Y-11243310D01*
X13826490Y-10270490D02*
X13859510Y-10303510D01*
X13859510Y-10270490D02*
X13826490Y-10303510D01*
X13877290Y-11210290D02*
X13910310Y-11243310D01*
X13910310Y-11210290D02*
X13877290Y-11243310D01*
X14080490Y-11375390D02*
X14113510Y-11408410D01*
X14113510Y-11375390D02*
X14080490Y-11408410D01*
X14090949Y-10933131D02*
X14123969Y-10966151D01*
X14123969Y-10933131D02*
X14090949Y-10966151D01*
X14105890Y-10740390D02*
X14138910Y-10773410D01*
X14138910Y-10740390D02*
X14105890Y-10773410D01*
X14156690Y-11045190D02*
X14189710Y-11078210D01*
X14189710Y-11045190D02*
X14156690Y-11078210D01*
X14207490Y-10270490D02*
X14240510Y-10303510D01*
X14240510Y-10270490D02*
X14207490Y-10303510D01*
X14842490Y-11667490D02*
X14875510Y-11700510D01*
X14875510Y-11667490D02*
X14842490Y-11700510D01*
X15096490Y-11667490D02*
X15129510Y-11700510D01*
X15129510Y-11667490D02*
X15096490Y-11700510D01*
X15363190Y-9889490D02*
X15396210Y-9922510D01*
X15396210Y-9889490D02*
X15363190Y-9922510D01*
X15363190Y-11667490D02*
X15396210Y-11700510D01*
X15396210Y-11667490D02*
X15363190Y-11700510D01*
X10287000Y-10668000D02*
G75*
G03X10287000Y-10668000I-25400J0D01*
G01*
X13271500Y-11176000D02*
G75*
G03X13271500Y-11176000I-25400J0D01*
G01*
X14770100Y-10579100D02*
G75*
G03X14770100Y-10579100I-25400J0D01*
G01*
X14922500Y-11176000D02*
G75*
G03X14922500Y-11176000I-25400J0D01*
G01*
X15240000Y-10462300D02*
X15240000Y-10537300D01*
X15202500Y-10499800D02*
X15277500Y-10499800D01*
X15240000Y-10662300D02*
X15240000Y-10737300D01*
X15202500Y-10699800D02*
X15277500Y-10699800D01*
X15240000Y-10862300D02*
X15240000Y-10937300D01*
X15202500Y-10899800D02*
X15277500Y-10899800D01*
X15240000Y-11062300D02*
X15240000Y-11137300D01*
X15202500Y-11099800D02*
X15277500Y-11099800D01*
X10480700Y-9893900D02*
X10480700Y-9968900D01*
X10443200Y-9931400D02*
X10518200Y-9931400D01*
X10680700Y-9893900D02*
X10680700Y-9968900D01*
X10643200Y-9931400D02*
X10718200Y-9931400D01*
X11211356Y-11846356D02*
X11211356Y-11775644D01*
X11140644Y-11775644D01*
X11140644Y-11846356D01*
X11211356Y-11846356D01*
X11465356Y-11846356D02*
X11465356Y-11775644D01*
X11394644Y-11775644D01*
X11394644Y-11846356D01*
X11465356Y-11846356D01*
X11719356Y-11846356D02*
X11719356Y-11775644D01*
X11648644Y-11775644D01*
X11648644Y-11846356D01*
X11719356Y-11846356D01*
X11973356Y-11846356D02*
X11973356Y-11775644D01*
X11902644Y-11775644D01*
X11902644Y-11846356D01*
X11973356Y-11846356D01*
X12227356Y-11846356D02*
X12227356Y-11775644D01*
X12156644Y-11775644D01*
X12156644Y-11846356D01*
X12227356Y-11846356D01*
X12481356Y-11846356D02*
X12481356Y-11775644D01*
X12410644Y-11775644D01*
X12410644Y-11846356D01*
X12481356Y-11846356D01*
X12735356Y-11846356D02*
X12735356Y-11775644D01*
X12664644Y-11775644D01*
X12664644Y-11846356D01*
X12735356Y-11846356D01*
X12989356Y-11846356D02*
X12989356Y-11775644D01*
X12918644Y-11775644D01*
X12918644Y-11846356D01*
X12989356Y-11846356D01*
X13243356Y-11846356D02*
X13243356Y-11775644D01*
X13172644Y-11775644D01*
X13172644Y-11846356D01*
X13243356Y-11846356D01*
X13497356Y-11846356D02*
X13497356Y-11775644D01*
X13426644Y-11775644D01*
X13426644Y-11846356D01*
X13497356Y-11846356D01*
X13751356Y-11846356D02*
X13751356Y-11775644D01*
X13680644Y-11775644D01*
X13680644Y-11846356D01*
X13751356Y-11846356D01*
X14005356Y-11846356D02*
X14005356Y-11775644D01*
X13934644Y-11775644D01*
X13934644Y-11846356D01*
X14005356Y-11846356D01*
X14259356Y-11846356D02*
X14259356Y-11775644D01*
X14188644Y-11775644D01*
X14188644Y-11846356D01*
X14259356Y-11846356D01*
X14513356Y-11846356D02*
X14513356Y-11775644D01*
X14442644Y-11775644D01*
X14442644Y-11846356D01*
X14513356Y-11846356D01*
X14767356Y-11846356D02*
X14767356Y-11775644D01*
X14696644Y-11775644D01*
X14696644Y-11846356D01*
X14767356Y-11846356D01*
X15021356Y-11846356D02*
X15021356Y-11775644D01*
X14950644Y-11775644D01*
X14950644Y-11846356D01*
X15021356Y-11846356D01*
X15275356Y-11846356D02*
X15275356Y-11775644D01*
X15204644Y-11775644D01*
X15204644Y-11846356D01*
X15275356Y-11846356D01*
X14513356Y-10322356D02*
X14513356Y-10251644D01*
X14442644Y-10251644D01*
X14442644Y-10322356D01*
X14513356Y-10322356D01*
X14513356Y-10576356D02*
X14513356Y-10505644D01*
X14442644Y-10505644D01*
X14442644Y-10576356D01*
X14513356Y-10576356D01*
X14513356Y-10830356D02*
X14513356Y-10759644D01*
X14442644Y-10759644D01*
X14442644Y-10830356D01*
X14513356Y-10830356D01*
X14513356Y-11084356D02*
X14513356Y-11013644D01*
X14442644Y-11013644D01*
X14442644Y-11084356D01*
X14513356Y-11084356D01*
X14513356Y-11338356D02*
X14513356Y-11267644D01*
X14442644Y-11267644D01*
X14442644Y-11338356D01*
X14513356Y-11338356D01*
X11211356Y-10068356D02*
X11211356Y-9997644D01*
X11140644Y-9997644D01*
X11140644Y-10068356D01*
X11211356Y-10068356D01*
X11465356Y-10068356D02*
X11465356Y-9997644D01*
X11394644Y-9997644D01*
X11394644Y-10068356D01*
X11465356Y-10068356D01*
X11719356Y-10068356D02*
X11719356Y-9997644D01*
X11648644Y-9997644D01*
X11648644Y-10068356D01*
X11719356Y-10068356D01*
X11973356Y-10068356D02*
X11973356Y-9997644D01*
X11902644Y-9997644D01*
X11902644Y-10068356D01*
X11973356Y-10068356D01*
X12227356Y-10068356D02*
X12227356Y-9997644D01*
X12156644Y-9997644D01*
X12156644Y-10068356D01*
X12227356Y-10068356D01*
X12481356Y-10068356D02*
X12481356Y-9997644D01*
X12410644Y-9997644D01*
X12410644Y-10068356D01*
X12481356Y-10068356D01*
X12735356Y-10068356D02*
X12735356Y-9997644D01*
X12664644Y-9997644D01*
X12664644Y-10068356D01*
X12735356Y-10068356D01*
X12989356Y-10068356D02*
X12989356Y-9997644D01*
X12918644Y-9997644D01*
X12918644Y-10068356D01*
X12989356Y-10068356D01*
X13243356Y-10068356D02*
X13243356Y-9997644D01*
X13172644Y-9997644D01*
X13172644Y-10068356D01*
X13243356Y-10068356D01*
X13497356Y-10068356D02*
X13497356Y-9997644D01*
X13426644Y-9997644D01*
X13426644Y-10068356D01*
X13497356Y-10068356D01*
X13751356Y-10068356D02*
X13751356Y-9997644D01*
X13680644Y-9997644D01*
X13680644Y-10068356D01*
X13751356Y-10068356D01*
X14005356Y-10068356D02*
X14005356Y-9997644D01*
X13934644Y-9997644D01*
X13934644Y-10068356D01*
X14005356Y-10068356D01*
X14259356Y-10068356D02*
X14259356Y-9997644D01*
X14188644Y-9997644D01*
X14188644Y-10068356D01*
X14259356Y-10068356D01*
X14513356Y-10068356D02*
X14513356Y-9997644D01*
X14442644Y-9997644D01*
X14442644Y-10068356D01*
X14513356Y-10068356D01*
X14767356Y-10068356D02*
X14767356Y-9997644D01*
X14696644Y-9997644D01*
X14696644Y-10068356D01*
X14767356Y-10068356D01*
X15021356Y-10068356D02*
X15021356Y-9997644D01*
X14950644Y-9997644D01*
X14950644Y-10068356D01*
X15021356Y-10068356D01*
X11211356Y-11592356D02*
X11211356Y-11521644D01*
X11140644Y-11521644D01*
X11140644Y-11592356D01*
X11211356Y-11592356D01*
X11465356Y-11592356D02*
X11465356Y-11521644D01*
X11394644Y-11521644D01*
X11394644Y-11592356D01*
X11465356Y-11592356D01*
X11719356Y-11592356D02*
X11719356Y-11521644D01*
X11648644Y-11521644D01*
X11648644Y-11592356D01*
X11719356Y-11592356D01*
X11973356Y-11592356D02*
X11973356Y-11521644D01*
X11902644Y-11521644D01*
X11902644Y-11592356D01*
X11973356Y-11592356D01*
X12227356Y-11592356D02*
X12227356Y-11521644D01*
X12156644Y-11521644D01*
X12156644Y-11592356D01*
X12227356Y-11592356D01*
X12481356Y-11592356D02*
X12481356Y-11521644D01*
X12410644Y-11521644D01*
X12410644Y-11592356D01*
X12481356Y-11592356D01*
X12735356Y-11592356D02*
X12735356Y-11521644D01*
X12664644Y-11521644D01*
X12664644Y-11592356D01*
X12735356Y-11592356D01*
X12989356Y-11592356D02*
X12989356Y-11521644D01*
X12918644Y-11521644D01*
X12918644Y-11592356D01*
X12989356Y-11592356D01*
X13243356Y-11592356D02*
X13243356Y-11521644D01*
X13172644Y-11521644D01*
X13172644Y-11592356D01*
X13243356Y-11592356D01*
X13497356Y-11592356D02*
X13497356Y-11521644D01*
X13426644Y-11521644D01*
X13426644Y-11592356D01*
X13497356Y-11592356D01*
X13751356Y-11592356D02*
X13751356Y-11521644D01*
X13680644Y-11521644D01*
X13680644Y-11592356D01*
X13751356Y-11592356D01*
X14005356Y-11592356D02*
X14005356Y-11521644D01*
X13934644Y-11521644D01*
X13934644Y-11592356D01*
X14005356Y-11592356D01*
X14259356Y-11592356D02*
X14259356Y-11521644D01*
X14188644Y-11521644D01*
X14188644Y-11592356D01*
X14259356Y-11592356D01*
X14513356Y-11592356D02*
X14513356Y-11521644D01*
X14442644Y-11521644D01*
X14442644Y-11592356D01*
X14513356Y-11592356D01*
X14767356Y-11592356D02*
X14767356Y-11521644D01*
X14696644Y-11521644D01*
X14696644Y-11592356D01*
X14767356Y-11592356D01*
X15021356Y-11592356D02*
X15021356Y-11521644D01*
X14950644Y-11521644D01*
X14950644Y-11592356D01*
X15021356Y-11592356D01*
X15275356Y-11592356D02*
X15275356Y-11521644D01*
X15204644Y-11521644D01*
X15204644Y-11592356D01*
X15275356Y-11592356D01*
X11211356Y-9814356D02*
X11211356Y-9743644D01*
X11140644Y-9743644D01*
X11140644Y-9814356D01*
X11211356Y-9814356D01*
X11465356Y-9814356D02*
X11465356Y-9743644D01*
X11394644Y-9743644D01*
X11394644Y-9814356D01*
X11465356Y-9814356D01*
X11719356Y-9814356D02*
X11719356Y-9743644D01*
X11648644Y-9743644D01*
X11648644Y-9814356D01*
X11719356Y-9814356D01*
X11973356Y-9814356D02*
X11973356Y-9743644D01*
X11902644Y-9743644D01*
X11902644Y-9814356D01*
X11973356Y-9814356D01*
X12227356Y-9814356D02*
X12227356Y-9743644D01*
X12156644Y-9743644D01*
X12156644Y-9814356D01*
X12227356Y-9814356D01*
X12481356Y-9814356D02*
X12481356Y-9743644D01*
X12410644Y-9743644D01*
X12410644Y-9814356D01*
X12481356Y-9814356D01*
X12735356Y-9814356D02*
X12735356Y-9743644D01*
X12664644Y-9743644D01*
X12664644Y-9814356D01*
X12735356Y-9814356D01*
X12989356Y-9814356D02*
X12989356Y-9743644D01*
X12918644Y-9743644D01*
X12918644Y-9814356D01*
X12989356Y-9814356D01*
X13243356Y-9814356D02*
X13243356Y-9743644D01*
X13172644Y-9743644D01*
X13172644Y-9814356D01*
X13243356Y-9814356D01*
X13497356Y-9814356D02*
X13497356Y-9743644D01*
X13426644Y-9743644D01*
X13426644Y-9814356D01*
X13497356Y-9814356D01*
X13751356Y-9814356D02*
X13751356Y-9743644D01*
X13680644Y-9743644D01*
X13680644Y-9814356D01*
X13751356Y-9814356D01*
X14005356Y-9814356D02*
X14005356Y-9743644D01*
X13934644Y-9743644D01*
X13934644Y-9814356D01*
X14005356Y-9814356D01*
X14259356Y-9814356D02*
X14259356Y-9743644D01*
X14188644Y-9743644D01*
X14188644Y-9814356D01*
X14259356Y-9814356D01*
X14513356Y-9814356D02*
X14513356Y-9743644D01*
X14442644Y-9743644D01*
X14442644Y-9814356D01*
X14513356Y-9814356D01*
X14767356Y-9814356D02*
X14767356Y-9743644D01*
X14696644Y-9743644D01*
X14696644Y-9814356D01*
X14767356Y-9814356D01*
X15021356Y-9814356D02*
X15021356Y-9743644D01*
X14950644Y-9743644D01*
X14950644Y-9814356D01*
X15021356Y-9814356D01*
X15748000Y-11780900D02*
X15883000Y-11645900D01*
X15748000Y-11510900D01*
X15613000Y-11645900D01*
X15748000Y-11780900D01*
X9931400Y-11780900D02*
X10066400Y-11645900D01*
X9931400Y-11510900D01*
X9796400Y-11645900D01*
X9931400Y-11780900D01*
X15748000Y-10079100D02*
X15883000Y-9944100D01*
X15748000Y-9809100D01*
X15613000Y-9944100D01*
X15748000Y-10079100D01*
X9931400Y-10079100D02*
X10066400Y-9944100D01*
X9931400Y-9809100D01*
X9796400Y-9944100D01*
X9931400Y-10079100D01*
D12*
X9946128Y-12408714D02*
X9946128Y-12108714D01*
X10017557Y-12108714D01*
X10060414Y-12123000D01*
X10088986Y-12151571D01*
X10103271Y-12180143D01*
X10117557Y-12237286D01*
X10117557Y-12280143D01*
X10103271Y-12337286D01*
X10088986Y-12365857D01*
X10060414Y-12394429D01*
X10017557Y-12408714D01*
X9946128Y-12408714D01*
X10246128Y-12408714D02*
X10246128Y-12208714D01*
X10246128Y-12265857D02*
X10260414Y-12237286D01*
X10274700Y-12223000D01*
X10303271Y-12208714D01*
X10331843Y-12208714D01*
X10431843Y-12408714D02*
X10431843Y-12208714D01*
X10431843Y-12108714D02*
X10417557Y-12123000D01*
X10431843Y-12137286D01*
X10446128Y-12123000D01*
X10431843Y-12108714D01*
X10431843Y-12137286D01*
X10617557Y-12408714D02*
X10588986Y-12394429D01*
X10574700Y-12365857D01*
X10574700Y-12108714D01*
X10774700Y-12408714D02*
X10746128Y-12394429D01*
X10731843Y-12365857D01*
X10731843Y-12108714D01*
X11117557Y-12408714D02*
X11117557Y-12108714D01*
X11217557Y-12323000D01*
X11317557Y-12108714D01*
X11317557Y-12408714D01*
X11588986Y-12408714D02*
X11588986Y-12251571D01*
X11574700Y-12223000D01*
X11546128Y-12208714D01*
X11488986Y-12208714D01*
X11460414Y-12223000D01*
X11588986Y-12394429D02*
X11560414Y-12408714D01*
X11488986Y-12408714D01*
X11460414Y-12394429D01*
X11446128Y-12365857D01*
X11446128Y-12337286D01*
X11460414Y-12308714D01*
X11488986Y-12294429D01*
X11560414Y-12294429D01*
X11588986Y-12280143D01*
X11731843Y-12208714D02*
X11731843Y-12508714D01*
X11731843Y-12223000D02*
X11760414Y-12208714D01*
X11817557Y-12208714D01*
X11846128Y-12223000D01*
X11860414Y-12237286D01*
X11874700Y-12265857D01*
X11874700Y-12351571D01*
X11860414Y-12380143D01*
X11846128Y-12394429D01*
X11817557Y-12408714D01*
X11760414Y-12408714D01*
X11731843Y-12394429D01*
X12003271Y-12380143D02*
X12017557Y-12394429D01*
X12003271Y-12408714D01*
X11988986Y-12394429D01*
X12003271Y-12380143D01*
X12003271Y-12408714D01*
X12003271Y-12223000D02*
X12017557Y-12237286D01*
X12003271Y-12251571D01*
X11988986Y-12237286D01*
X12003271Y-12223000D01*
X12003271Y-12251571D01*
X9626680Y-12886490D02*
X9659700Y-12919510D01*
X9659700Y-12886490D02*
X9626680Y-12919510D01*
X10003271Y-12738714D02*
X10031843Y-12738714D01*
X10060414Y-12753000D01*
X10074700Y-12767286D01*
X10088986Y-12795857D01*
X10103271Y-12853000D01*
X10103271Y-12924429D01*
X10088986Y-12981571D01*
X10074700Y-13010143D01*
X10060414Y-13024429D01*
X10031843Y-13038714D01*
X10003271Y-13038714D01*
X9974700Y-13024429D01*
X9960414Y-13010143D01*
X9946128Y-12981571D01*
X9931843Y-12924429D01*
X9931843Y-12853000D01*
X9946128Y-12795857D01*
X9960414Y-12767286D01*
X9974700Y-12753000D01*
X10003271Y-12738714D01*
X10231843Y-13010143D02*
X10246128Y-13024429D01*
X10231843Y-13038714D01*
X10217557Y-13024429D01*
X10231843Y-13010143D01*
X10231843Y-13038714D01*
X10346128Y-12738714D02*
X10531843Y-12738714D01*
X10431843Y-12853000D01*
X10474700Y-12853000D01*
X10503271Y-12867286D01*
X10517557Y-12881571D01*
X10531843Y-12910143D01*
X10531843Y-12981571D01*
X10517557Y-13010143D01*
X10503271Y-13024429D01*
X10474700Y-13038714D01*
X10388986Y-13038714D01*
X10360414Y-13024429D01*
X10346128Y-13010143D01*
X10631843Y-12738714D02*
X10817557Y-12738714D01*
X10717557Y-12853000D01*
X10760414Y-12853000D01*
X10788986Y-12867286D01*
X10803271Y-12881571D01*
X10817557Y-12910143D01*
X10817557Y-12981571D01*
X10803271Y-13010143D01*
X10788986Y-13024429D01*
X10760414Y-13038714D01*
X10674700Y-13038714D01*
X10646128Y-13024429D01*
X10631843Y-13010143D01*
X10946128Y-13038714D02*
X10946128Y-12838714D01*
X10946128Y-12867286D02*
X10960414Y-12853000D01*
X10988986Y-12838714D01*
X11031843Y-12838714D01*
X11060414Y-12853000D01*
X11074700Y-12881571D01*
X11074700Y-13038714D01*
X11074700Y-12881571D02*
X11088986Y-12853000D01*
X11117557Y-12838714D01*
X11160414Y-12838714D01*
X11188986Y-12853000D01*
X11203271Y-12881571D01*
X11203271Y-13038714D01*
X11346128Y-13038714D02*
X11346128Y-12838714D01*
X11346128Y-12867286D02*
X11360414Y-12853000D01*
X11388986Y-12838714D01*
X11431843Y-12838714D01*
X11460414Y-12853000D01*
X11474700Y-12881571D01*
X11474700Y-13038714D01*
X11474700Y-12881571D02*
X11488986Y-12853000D01*
X11517557Y-12838714D01*
X11560414Y-12838714D01*
X11588986Y-12853000D01*
X11603271Y-12881571D01*
X11603271Y-13038714D01*
X12188986Y-12724429D02*
X11931843Y-13110143D01*
X12574700Y-12738714D02*
X12603271Y-12738714D01*
X12631843Y-12753000D01*
X12646128Y-12767286D01*
X12660414Y-12795857D01*
X12674700Y-12853000D01*
X12674700Y-12924429D01*
X12660414Y-12981571D01*
X12646128Y-13010143D01*
X12631843Y-13024429D01*
X12603271Y-13038714D01*
X12574700Y-13038714D01*
X12546128Y-13024429D01*
X12531843Y-13010143D01*
X12517557Y-12981571D01*
X12503271Y-12924429D01*
X12503271Y-12853000D01*
X12517557Y-12795857D01*
X12531843Y-12767286D01*
X12546128Y-12753000D01*
X12574700Y-12738714D01*
X12803271Y-13010143D02*
X12817557Y-13024429D01*
X12803271Y-13038714D01*
X12788986Y-13024429D01*
X12803271Y-13010143D01*
X12803271Y-13038714D01*
X13003271Y-12738714D02*
X13031843Y-12738714D01*
X13060414Y-12753000D01*
X13074700Y-12767286D01*
X13088986Y-12795857D01*
X13103271Y-12853000D01*
X13103271Y-12924429D01*
X13088986Y-12981571D01*
X13074700Y-13010143D01*
X13060414Y-13024429D01*
X13031843Y-13038714D01*
X13003271Y-13038714D01*
X12974700Y-13024429D01*
X12960414Y-13010143D01*
X12946128Y-12981571D01*
X12931843Y-12924429D01*
X12931843Y-12853000D01*
X12946128Y-12795857D01*
X12960414Y-12767286D01*
X12974700Y-12753000D01*
X13003271Y-12738714D01*
X13388986Y-13038714D02*
X13217557Y-13038714D01*
X13303271Y-13038714D02*
X13303271Y-12738714D01*
X13274700Y-12781571D01*
X13246128Y-12810143D01*
X13217557Y-12824429D01*
X13488986Y-12738714D02*
X13674700Y-12738714D01*
X13574700Y-12853000D01*
X13617557Y-12853000D01*
X13646128Y-12867286D01*
X13660414Y-12881571D01*
X13674700Y-12910143D01*
X13674700Y-12981571D01*
X13660414Y-13010143D01*
X13646128Y-13024429D01*
X13617557Y-13038714D01*
X13531843Y-13038714D01*
X13503271Y-13024429D01*
X13488986Y-13010143D01*
X13788986Y-12738714D02*
X13788986Y-12795857D01*
X13903271Y-12738714D02*
X13903271Y-12795857D01*
X14346128Y-13153000D02*
X14331843Y-13138714D01*
X14303271Y-13095857D01*
X14288986Y-13067286D01*
X14274700Y-13024429D01*
X14260414Y-12953000D01*
X14260414Y-12895857D01*
X14274700Y-12824429D01*
X14288986Y-12781571D01*
X14303271Y-12753000D01*
X14331843Y-12710143D01*
X14346128Y-12695857D01*
X14446128Y-12767286D02*
X14460414Y-12753000D01*
X14488986Y-12738714D01*
X14560414Y-12738714D01*
X14588986Y-12753000D01*
X14603271Y-12767286D01*
X14617557Y-12795857D01*
X14617557Y-12824429D01*
X14603271Y-12867286D01*
X14431843Y-13038714D01*
X14617557Y-13038714D01*
X14717557Y-12738714D02*
X14903271Y-12738714D01*
X14803271Y-12853000D01*
X14846128Y-12853000D01*
X14874700Y-12867286D01*
X14888986Y-12881571D01*
X14903271Y-12910143D01*
X14903271Y-12981571D01*
X14888986Y-13010143D01*
X14874700Y-13024429D01*
X14846128Y-13038714D01*
X14760414Y-13038714D01*
X14731843Y-13024429D01*
X14717557Y-13010143D01*
X15260414Y-13038714D02*
X15260414Y-12738714D01*
X15388986Y-13038714D02*
X15388986Y-12881571D01*
X15374700Y-12853000D01*
X15346128Y-12838714D01*
X15303271Y-12838714D01*
X15274700Y-12853000D01*
X15260414Y-12867286D01*
X15574700Y-13038714D02*
X15546128Y-13024429D01*
X15531843Y-13010143D01*
X15517557Y-12981571D01*
X15517557Y-12895857D01*
X15531843Y-12867286D01*
X15546128Y-12853000D01*
X15574700Y-12838714D01*
X15617557Y-12838714D01*
X15646128Y-12853000D01*
X15660414Y-12867286D01*
X15674700Y-12895857D01*
X15674700Y-12981571D01*
X15660414Y-13010143D01*
X15646128Y-13024429D01*
X15617557Y-13038714D01*
X15574700Y-13038714D01*
X15846128Y-13038714D02*
X15817557Y-13024429D01*
X15803271Y-12995857D01*
X15803271Y-12738714D01*
X16074700Y-13024429D02*
X16046128Y-13038714D01*
X15988986Y-13038714D01*
X15960414Y-13024429D01*
X15946128Y-12995857D01*
X15946128Y-12881571D01*
X15960414Y-12853000D01*
X15988986Y-12838714D01*
X16046128Y-12838714D01*
X16074700Y-12853000D01*
X16088986Y-12881571D01*
X16088986Y-12910143D01*
X15946128Y-12938714D01*
X16203271Y-13024429D02*
X16231843Y-13038714D01*
X16288986Y-13038714D01*
X16317557Y-13024429D01*
X16331843Y-12995857D01*
X16331843Y-12981571D01*
X16317557Y-12953000D01*
X16288986Y-12938714D01*
X16246128Y-12938714D01*
X16217557Y-12924429D01*
X16203271Y-12895857D01*
X16203271Y-12881571D01*
X16217557Y-12853000D01*
X16246128Y-12838714D01*
X16288986Y-12838714D01*
X16317557Y-12853000D01*
X16431843Y-13153000D02*
X16446128Y-13138714D01*
X16474700Y-13095857D01*
X16488986Y-13067286D01*
X16503271Y-13024429D01*
X16517557Y-12953000D01*
X16517557Y-12895857D01*
X16503271Y-12824429D01*
X16488986Y-12781571D01*
X16474700Y-12753000D01*
X16446128Y-12710143D01*
X16431843Y-12695857D01*
X9659700Y-13299000D02*
G75*
G03X9659700Y-13299000I-25400J0D01*
G01*
X10003271Y-13134714D02*
X10031843Y-13134714D01*
X10060414Y-13149000D01*
X10074700Y-13163286D01*
X10088986Y-13191857D01*
X10103271Y-13249000D01*
X10103271Y-13320429D01*
X10088986Y-13377571D01*
X10074700Y-13406143D01*
X10060414Y-13420429D01*
X10031843Y-13434714D01*
X10003271Y-13434714D01*
X9974700Y-13420429D01*
X9960414Y-13406143D01*
X9946128Y-13377571D01*
X9931843Y-13320429D01*
X9931843Y-13249000D01*
X9946128Y-13191857D01*
X9960414Y-13163286D01*
X9974700Y-13149000D01*
X10003271Y-13134714D01*
X10231843Y-13406143D02*
X10246128Y-13420429D01*
X10231843Y-13434714D01*
X10217557Y-13420429D01*
X10231843Y-13406143D01*
X10231843Y-13434714D01*
X10517557Y-13134714D02*
X10374700Y-13134714D01*
X10360414Y-13277571D01*
X10374700Y-13263286D01*
X10403271Y-13249000D01*
X10474700Y-13249000D01*
X10503271Y-13263286D01*
X10517557Y-13277571D01*
X10531843Y-13306143D01*
X10531843Y-13377571D01*
X10517557Y-13406143D01*
X10503271Y-13420429D01*
X10474700Y-13434714D01*
X10403271Y-13434714D01*
X10374700Y-13420429D01*
X10360414Y-13406143D01*
X10817557Y-13434714D02*
X10646128Y-13434714D01*
X10731843Y-13434714D02*
X10731843Y-13134714D01*
X10703271Y-13177571D01*
X10674700Y-13206143D01*
X10646128Y-13220429D01*
X10946128Y-13434714D02*
X10946128Y-13234714D01*
X10946128Y-13263286D02*
X10960414Y-13249000D01*
X10988986Y-13234714D01*
X11031843Y-13234714D01*
X11060414Y-13249000D01*
X11074700Y-13277571D01*
X11074700Y-13434714D01*
X11074700Y-13277571D02*
X11088986Y-13249000D01*
X11117557Y-13234714D01*
X11160414Y-13234714D01*
X11188986Y-13249000D01*
X11203271Y-13277571D01*
X11203271Y-13434714D01*
X11346128Y-13434714D02*
X11346128Y-13234714D01*
X11346128Y-13263286D02*
X11360414Y-13249000D01*
X11388986Y-13234714D01*
X11431843Y-13234714D01*
X11460414Y-13249000D01*
X11474700Y-13277571D01*
X11474700Y-13434714D01*
X11474700Y-13277571D02*
X11488986Y-13249000D01*
X11517557Y-13234714D01*
X11560414Y-13234714D01*
X11588986Y-13249000D01*
X11603271Y-13277571D01*
X11603271Y-13434714D01*
X12188986Y-13120429D02*
X11931843Y-13506143D01*
X12574700Y-13134714D02*
X12603271Y-13134714D01*
X12631843Y-13149000D01*
X12646128Y-13163286D01*
X12660414Y-13191857D01*
X12674700Y-13249000D01*
X12674700Y-13320429D01*
X12660414Y-13377571D01*
X12646128Y-13406143D01*
X12631843Y-13420429D01*
X12603271Y-13434714D01*
X12574700Y-13434714D01*
X12546128Y-13420429D01*
X12531843Y-13406143D01*
X12517557Y-13377571D01*
X12503271Y-13320429D01*
X12503271Y-13249000D01*
X12517557Y-13191857D01*
X12531843Y-13163286D01*
X12546128Y-13149000D01*
X12574700Y-13134714D01*
X12803271Y-13406143D02*
X12817557Y-13420429D01*
X12803271Y-13434714D01*
X12788986Y-13420429D01*
X12803271Y-13406143D01*
X12803271Y-13434714D01*
X13003271Y-13134714D02*
X13031843Y-13134714D01*
X13060414Y-13149000D01*
X13074700Y-13163286D01*
X13088986Y-13191857D01*
X13103271Y-13249000D01*
X13103271Y-13320429D01*
X13088986Y-13377571D01*
X13074700Y-13406143D01*
X13060414Y-13420429D01*
X13031843Y-13434714D01*
X13003271Y-13434714D01*
X12974700Y-13420429D01*
X12960414Y-13406143D01*
X12946128Y-13377571D01*
X12931843Y-13320429D01*
X12931843Y-13249000D01*
X12946128Y-13191857D01*
X12960414Y-13163286D01*
X12974700Y-13149000D01*
X13003271Y-13134714D01*
X13217557Y-13163286D02*
X13231843Y-13149000D01*
X13260414Y-13134714D01*
X13331843Y-13134714D01*
X13360414Y-13149000D01*
X13374700Y-13163286D01*
X13388986Y-13191857D01*
X13388986Y-13220429D01*
X13374700Y-13263286D01*
X13203271Y-13434714D01*
X13388986Y-13434714D01*
X13574700Y-13134714D02*
X13603271Y-13134714D01*
X13631843Y-13149000D01*
X13646128Y-13163286D01*
X13660414Y-13191857D01*
X13674700Y-13249000D01*
X13674700Y-13320429D01*
X13660414Y-13377571D01*
X13646128Y-13406143D01*
X13631843Y-13420429D01*
X13603271Y-13434714D01*
X13574700Y-13434714D01*
X13546128Y-13420429D01*
X13531843Y-13406143D01*
X13517557Y-13377571D01*
X13503271Y-13320429D01*
X13503271Y-13249000D01*
X13517557Y-13191857D01*
X13531843Y-13163286D01*
X13546128Y-13149000D01*
X13574700Y-13134714D01*
X13788986Y-13134714D02*
X13788986Y-13191857D01*
X13903271Y-13134714D02*
X13903271Y-13191857D01*
X14346128Y-13549000D02*
X14331843Y-13534714D01*
X14303271Y-13491857D01*
X14288986Y-13463286D01*
X14274700Y-13420429D01*
X14260414Y-13349000D01*
X14260414Y-13291857D01*
X14274700Y-13220429D01*
X14288986Y-13177571D01*
X14303271Y-13149000D01*
X14331843Y-13106143D01*
X14346128Y-13091857D01*
X14588986Y-13234714D02*
X14588986Y-13434714D01*
X14517557Y-13120429D02*
X14446128Y-13334714D01*
X14631843Y-13334714D01*
X14974700Y-13434714D02*
X14974700Y-13134714D01*
X15103271Y-13434714D02*
X15103271Y-13277571D01*
X15088986Y-13249000D01*
X15060414Y-13234714D01*
X15017557Y-13234714D01*
X14988986Y-13249000D01*
X14974700Y-13263286D01*
X15288986Y-13434714D02*
X15260414Y-13420429D01*
X15246128Y-13406143D01*
X15231843Y-13377571D01*
X15231843Y-13291857D01*
X15246128Y-13263286D01*
X15260414Y-13249000D01*
X15288986Y-13234714D01*
X15331843Y-13234714D01*
X15360414Y-13249000D01*
X15374700Y-13263286D01*
X15388986Y-13291857D01*
X15388986Y-13377571D01*
X15374700Y-13406143D01*
X15360414Y-13420429D01*
X15331843Y-13434714D01*
X15288986Y-13434714D01*
X15560414Y-13434714D02*
X15531843Y-13420429D01*
X15517557Y-13391857D01*
X15517557Y-13134714D01*
X15788986Y-13420429D02*
X15760414Y-13434714D01*
X15703271Y-13434714D01*
X15674700Y-13420429D01*
X15660414Y-13391857D01*
X15660414Y-13277571D01*
X15674700Y-13249000D01*
X15703271Y-13234714D01*
X15760414Y-13234714D01*
X15788986Y-13249000D01*
X15803271Y-13277571D01*
X15803271Y-13306143D01*
X15660414Y-13334714D01*
X15917557Y-13420429D02*
X15946128Y-13434714D01*
X16003271Y-13434714D01*
X16031843Y-13420429D01*
X16046128Y-13391857D01*
X16046128Y-13377571D01*
X16031843Y-13349000D01*
X16003271Y-13334714D01*
X15960414Y-13334714D01*
X15931843Y-13320429D01*
X15917557Y-13291857D01*
X15917557Y-13277571D01*
X15931843Y-13249000D01*
X15960414Y-13234714D01*
X16003271Y-13234714D01*
X16031843Y-13249000D01*
X16146128Y-13549000D02*
X16160414Y-13534714D01*
X16188986Y-13491857D01*
X16203271Y-13463286D01*
X16217557Y-13420429D01*
X16231843Y-13349000D01*
X16231843Y-13291857D01*
X16217557Y-13220429D01*
X16203271Y-13177571D01*
X16188986Y-13149000D01*
X16160414Y-13106143D01*
X16146128Y-13091857D01*
X9622200Y-13657500D02*
X9622200Y-13732500D01*
X9584700Y-13695000D02*
X9659700Y-13695000D01*
X10003271Y-13530714D02*
X10031843Y-13530714D01*
X10060414Y-13545000D01*
X10074700Y-13559286D01*
X10088986Y-13587857D01*
X10103271Y-13645000D01*
X10103271Y-13716429D01*
X10088986Y-13773571D01*
X10074700Y-13802143D01*
X10060414Y-13816429D01*
X10031843Y-13830714D01*
X10003271Y-13830714D01*
X9974700Y-13816429D01*
X9960414Y-13802143D01*
X9946128Y-13773571D01*
X9931843Y-13716429D01*
X9931843Y-13645000D01*
X9946128Y-13587857D01*
X9960414Y-13559286D01*
X9974700Y-13545000D01*
X10003271Y-13530714D01*
X10231843Y-13802143D02*
X10246128Y-13816429D01*
X10231843Y-13830714D01*
X10217557Y-13816429D01*
X10231843Y-13802143D01*
X10231843Y-13830714D01*
X10346128Y-13530714D02*
X10546128Y-13530714D01*
X10417557Y-13830714D01*
X10803271Y-13530714D02*
X10660414Y-13530714D01*
X10646128Y-13673571D01*
X10660414Y-13659286D01*
X10688986Y-13645000D01*
X10760414Y-13645000D01*
X10788986Y-13659286D01*
X10803271Y-13673571D01*
X10817557Y-13702143D01*
X10817557Y-13773571D01*
X10803271Y-13802143D01*
X10788986Y-13816429D01*
X10760414Y-13830714D01*
X10688986Y-13830714D01*
X10660414Y-13816429D01*
X10646128Y-13802143D01*
X10946128Y-13830714D02*
X10946128Y-13630714D01*
X10946128Y-13659286D02*
X10960414Y-13645000D01*
X10988986Y-13630714D01*
X11031843Y-13630714D01*
X11060414Y-13645000D01*
X11074700Y-13673571D01*
X11074700Y-13830714D01*
X11074700Y-13673571D02*
X11088986Y-13645000D01*
X11117557Y-13630714D01*
X11160414Y-13630714D01*
X11188986Y-13645000D01*
X11203271Y-13673571D01*
X11203271Y-13830714D01*
X11346128Y-13830714D02*
X11346128Y-13630714D01*
X11346128Y-13659286D02*
X11360414Y-13645000D01*
X11388986Y-13630714D01*
X11431843Y-13630714D01*
X11460414Y-13645000D01*
X11474700Y-13673571D01*
X11474700Y-13830714D01*
X11474700Y-13673571D02*
X11488986Y-13645000D01*
X11517557Y-13630714D01*
X11560414Y-13630714D01*
X11588986Y-13645000D01*
X11603271Y-13673571D01*
X11603271Y-13830714D01*
X12188986Y-13516429D02*
X11931843Y-13902143D01*
X12574700Y-13530714D02*
X12603271Y-13530714D01*
X12631843Y-13545000D01*
X12646128Y-13559286D01*
X12660414Y-13587857D01*
X12674700Y-13645000D01*
X12674700Y-13716429D01*
X12660414Y-13773571D01*
X12646128Y-13802143D01*
X12631843Y-13816429D01*
X12603271Y-13830714D01*
X12574700Y-13830714D01*
X12546128Y-13816429D01*
X12531843Y-13802143D01*
X12517557Y-13773571D01*
X12503271Y-13716429D01*
X12503271Y-13645000D01*
X12517557Y-13587857D01*
X12531843Y-13559286D01*
X12546128Y-13545000D01*
X12574700Y-13530714D01*
X12803271Y-13802143D02*
X12817557Y-13816429D01*
X12803271Y-13830714D01*
X12788986Y-13816429D01*
X12803271Y-13802143D01*
X12803271Y-13830714D01*
X13003271Y-13530714D02*
X13031843Y-13530714D01*
X13060414Y-13545000D01*
X13074700Y-13559286D01*
X13088986Y-13587857D01*
X13103271Y-13645000D01*
X13103271Y-13716429D01*
X13088986Y-13773571D01*
X13074700Y-13802143D01*
X13060414Y-13816429D01*
X13031843Y-13830714D01*
X13003271Y-13830714D01*
X12974700Y-13816429D01*
X12960414Y-13802143D01*
X12946128Y-13773571D01*
X12931843Y-13716429D01*
X12931843Y-13645000D01*
X12946128Y-13587857D01*
X12960414Y-13559286D01*
X12974700Y-13545000D01*
X13003271Y-13530714D01*
X13203271Y-13530714D02*
X13388986Y-13530714D01*
X13288986Y-13645000D01*
X13331843Y-13645000D01*
X13360414Y-13659286D01*
X13374700Y-13673571D01*
X13388986Y-13702143D01*
X13388986Y-13773571D01*
X13374700Y-13802143D01*
X13360414Y-13816429D01*
X13331843Y-13830714D01*
X13246128Y-13830714D01*
X13217557Y-13816429D01*
X13203271Y-13802143D01*
X13574700Y-13530714D02*
X13603271Y-13530714D01*
X13631843Y-13545000D01*
X13646128Y-13559286D01*
X13660414Y-13587857D01*
X13674700Y-13645000D01*
X13674700Y-13716429D01*
X13660414Y-13773571D01*
X13646128Y-13802143D01*
X13631843Y-13816429D01*
X13603271Y-13830714D01*
X13574700Y-13830714D01*
X13546128Y-13816429D01*
X13531843Y-13802143D01*
X13517557Y-13773571D01*
X13503271Y-13716429D01*
X13503271Y-13645000D01*
X13517557Y-13587857D01*
X13531843Y-13559286D01*
X13546128Y-13545000D01*
X13574700Y-13530714D01*
X13788986Y-13530714D02*
X13788986Y-13587857D01*
X13903271Y-13530714D02*
X13903271Y-13587857D01*
X14346128Y-13945000D02*
X14331843Y-13930714D01*
X14303271Y-13887857D01*
X14288986Y-13859286D01*
X14274700Y-13816429D01*
X14260414Y-13745000D01*
X14260414Y-13687857D01*
X14274700Y-13616429D01*
X14288986Y-13573571D01*
X14303271Y-13545000D01*
X14331843Y-13502143D01*
X14346128Y-13487857D01*
X14588986Y-13530714D02*
X14531843Y-13530714D01*
X14503271Y-13545000D01*
X14488986Y-13559286D01*
X14460414Y-13602143D01*
X14446128Y-13659286D01*
X14446128Y-13773571D01*
X14460414Y-13802143D01*
X14474700Y-13816429D01*
X14503271Y-13830714D01*
X14560414Y-13830714D01*
X14588986Y-13816429D01*
X14603271Y-13802143D01*
X14617557Y-13773571D01*
X14617557Y-13702143D01*
X14603271Y-13673571D01*
X14588986Y-13659286D01*
X14560414Y-13645000D01*
X14503271Y-13645000D01*
X14474700Y-13659286D01*
X14460414Y-13673571D01*
X14446128Y-13702143D01*
X14974700Y-13830714D02*
X14974700Y-13530714D01*
X15103271Y-13830714D02*
X15103271Y-13673571D01*
X15088986Y-13645000D01*
X15060414Y-13630714D01*
X15017557Y-13630714D01*
X14988986Y-13645000D01*
X14974700Y-13659286D01*
X15288986Y-13830714D02*
X15260414Y-13816429D01*
X15246128Y-13802143D01*
X15231843Y-13773571D01*
X15231843Y-13687857D01*
X15246128Y-13659286D01*
X15260414Y-13645000D01*
X15288986Y-13630714D01*
X15331843Y-13630714D01*
X15360414Y-13645000D01*
X15374700Y-13659286D01*
X15388986Y-13687857D01*
X15388986Y-13773571D01*
X15374700Y-13802143D01*
X15360414Y-13816429D01*
X15331843Y-13830714D01*
X15288986Y-13830714D01*
X15560414Y-13830714D02*
X15531843Y-13816429D01*
X15517557Y-13787857D01*
X15517557Y-13530714D01*
X15788986Y-13816429D02*
X15760414Y-13830714D01*
X15703271Y-13830714D01*
X15674700Y-13816429D01*
X15660414Y-13787857D01*
X15660414Y-13673571D01*
X15674700Y-13645000D01*
X15703271Y-13630714D01*
X15760414Y-13630714D01*
X15788986Y-13645000D01*
X15803271Y-13673571D01*
X15803271Y-13702143D01*
X15660414Y-13730714D01*
X15917557Y-13816429D02*
X15946128Y-13830714D01*
X16003271Y-13830714D01*
X16031843Y-13816429D01*
X16046128Y-13787857D01*
X16046128Y-13773571D01*
X16031843Y-13745000D01*
X16003271Y-13730714D01*
X15960414Y-13730714D01*
X15931843Y-13716429D01*
X15917557Y-13687857D01*
X15917557Y-13673571D01*
X15931843Y-13645000D01*
X15960414Y-13630714D01*
X16003271Y-13630714D01*
X16031843Y-13645000D01*
X16146128Y-13945000D02*
X16160414Y-13930714D01*
X16188986Y-13887857D01*
X16203271Y-13859286D01*
X16217557Y-13816429D01*
X16231843Y-13745000D01*
X16231843Y-13687857D01*
X16217557Y-13616429D01*
X16203271Y-13573571D01*
X16188986Y-13545000D01*
X16160414Y-13502143D01*
X16146128Y-13487857D01*
X9645056Y-14126356D02*
X9645056Y-14055644D01*
X9574344Y-14055644D01*
X9574344Y-14126356D01*
X9645056Y-14126356D01*
X10103271Y-14226714D02*
X9931843Y-14226714D01*
X10017557Y-14226714D02*
X10017557Y-13926714D01*
X9988986Y-13969571D01*
X9960414Y-13998143D01*
X9931843Y-14012429D01*
X10231843Y-14198143D02*
X10246128Y-14212429D01*
X10231843Y-14226714D01*
X10217557Y-14212429D01*
X10231843Y-14198143D01*
X10231843Y-14226714D01*
X10431843Y-13926714D02*
X10460414Y-13926714D01*
X10488986Y-13941000D01*
X10503271Y-13955286D01*
X10517557Y-13983857D01*
X10531843Y-14041000D01*
X10531843Y-14112429D01*
X10517557Y-14169571D01*
X10503271Y-14198143D01*
X10488986Y-14212429D01*
X10460414Y-14226714D01*
X10431843Y-14226714D01*
X10403271Y-14212429D01*
X10388986Y-14198143D01*
X10374700Y-14169571D01*
X10360414Y-14112429D01*
X10360414Y-14041000D01*
X10374700Y-13983857D01*
X10388986Y-13955286D01*
X10403271Y-13941000D01*
X10431843Y-13926714D01*
X10717557Y-13926714D02*
X10746128Y-13926714D01*
X10774700Y-13941000D01*
X10788986Y-13955286D01*
X10803271Y-13983857D01*
X10817557Y-14041000D01*
X10817557Y-14112429D01*
X10803271Y-14169571D01*
X10788986Y-14198143D01*
X10774700Y-14212429D01*
X10746128Y-14226714D01*
X10717557Y-14226714D01*
X10688986Y-14212429D01*
X10674700Y-14198143D01*
X10660414Y-14169571D01*
X10646128Y-14112429D01*
X10646128Y-14041000D01*
X10660414Y-13983857D01*
X10674700Y-13955286D01*
X10688986Y-13941000D01*
X10717557Y-13926714D01*
X10946128Y-14226714D02*
X10946128Y-14026714D01*
X10946128Y-14055286D02*
X10960414Y-14041000D01*
X10988986Y-14026714D01*
X11031843Y-14026714D01*
X11060414Y-14041000D01*
X11074700Y-14069571D01*
X11074700Y-14226714D01*
X11074700Y-14069571D02*
X11088986Y-14041000D01*
X11117557Y-14026714D01*
X11160414Y-14026714D01*
X11188986Y-14041000D01*
X11203271Y-14069571D01*
X11203271Y-14226714D01*
X11346128Y-14226714D02*
X11346128Y-14026714D01*
X11346128Y-14055286D02*
X11360414Y-14041000D01*
X11388986Y-14026714D01*
X11431843Y-14026714D01*
X11460414Y-14041000D01*
X11474700Y-14069571D01*
X11474700Y-14226714D01*
X11474700Y-14069571D02*
X11488986Y-14041000D01*
X11517557Y-14026714D01*
X11560414Y-14026714D01*
X11588986Y-14041000D01*
X11603271Y-14069571D01*
X11603271Y-14226714D01*
X12188986Y-13912429D02*
X11931843Y-14298143D01*
X12574700Y-13926714D02*
X12603271Y-13926714D01*
X12631843Y-13941000D01*
X12646128Y-13955286D01*
X12660414Y-13983857D01*
X12674700Y-14041000D01*
X12674700Y-14112429D01*
X12660414Y-14169571D01*
X12646128Y-14198143D01*
X12631843Y-14212429D01*
X12603271Y-14226714D01*
X12574700Y-14226714D01*
X12546128Y-14212429D01*
X12531843Y-14198143D01*
X12517557Y-14169571D01*
X12503271Y-14112429D01*
X12503271Y-14041000D01*
X12517557Y-13983857D01*
X12531843Y-13955286D01*
X12546128Y-13941000D01*
X12574700Y-13926714D01*
X12803271Y-14198143D02*
X12817557Y-14212429D01*
X12803271Y-14226714D01*
X12788986Y-14212429D01*
X12803271Y-14198143D01*
X12803271Y-14226714D01*
X13003271Y-13926714D02*
X13031843Y-13926714D01*
X13060414Y-13941000D01*
X13074700Y-13955286D01*
X13088986Y-13983857D01*
X13103271Y-14041000D01*
X13103271Y-14112429D01*
X13088986Y-14169571D01*
X13074700Y-14198143D01*
X13060414Y-14212429D01*
X13031843Y-14226714D01*
X13003271Y-14226714D01*
X12974700Y-14212429D01*
X12960414Y-14198143D01*
X12946128Y-14169571D01*
X12931843Y-14112429D01*
X12931843Y-14041000D01*
X12946128Y-13983857D01*
X12960414Y-13955286D01*
X12974700Y-13941000D01*
X13003271Y-13926714D01*
X13203271Y-13926714D02*
X13388986Y-13926714D01*
X13288986Y-14041000D01*
X13331843Y-14041000D01*
X13360414Y-14055286D01*
X13374700Y-14069571D01*
X13388986Y-14098143D01*
X13388986Y-14169571D01*
X13374700Y-14198143D01*
X13360414Y-14212429D01*
X13331843Y-14226714D01*
X13246128Y-14226714D01*
X13217557Y-14212429D01*
X13203271Y-14198143D01*
X13531843Y-14226714D02*
X13588986Y-14226714D01*
X13617557Y-14212429D01*
X13631843Y-14198143D01*
X13660414Y-14155286D01*
X13674700Y-14098143D01*
X13674700Y-13983857D01*
X13660414Y-13955286D01*
X13646128Y-13941000D01*
X13617557Y-13926714D01*
X13560414Y-13926714D01*
X13531843Y-13941000D01*
X13517557Y-13955286D01*
X13503271Y-13983857D01*
X13503271Y-14055286D01*
X13517557Y-14083857D01*
X13531843Y-14098143D01*
X13560414Y-14112429D01*
X13617557Y-14112429D01*
X13646128Y-14098143D01*
X13660414Y-14083857D01*
X13674700Y-14055286D01*
X13788986Y-13926714D02*
X13788986Y-13983857D01*
X13903271Y-13926714D02*
X13903271Y-13983857D01*
X14346128Y-14341000D02*
X14331843Y-14326714D01*
X14303271Y-14283857D01*
X14288986Y-14255286D01*
X14274700Y-14212429D01*
X14260414Y-14141000D01*
X14260414Y-14083857D01*
X14274700Y-14012429D01*
X14288986Y-13969571D01*
X14303271Y-13941000D01*
X14331843Y-13898143D01*
X14346128Y-13883857D01*
X14431843Y-13926714D02*
X14631843Y-13926714D01*
X14503271Y-14226714D01*
X14903271Y-14226714D02*
X14731843Y-14226714D01*
X14817557Y-14226714D02*
X14817557Y-13926714D01*
X14788986Y-13969571D01*
X14760414Y-13998143D01*
X14731843Y-14012429D01*
X15260414Y-14226714D02*
X15260414Y-13926714D01*
X15388986Y-14226714D02*
X15388986Y-14069571D01*
X15374700Y-14041000D01*
X15346128Y-14026714D01*
X15303271Y-14026714D01*
X15274700Y-14041000D01*
X15260414Y-14055286D01*
X15574700Y-14226714D02*
X15546128Y-14212429D01*
X15531843Y-14198143D01*
X15517557Y-14169571D01*
X15517557Y-14083857D01*
X15531843Y-14055286D01*
X15546128Y-14041000D01*
X15574700Y-14026714D01*
X15617557Y-14026714D01*
X15646128Y-14041000D01*
X15660414Y-14055286D01*
X15674700Y-14083857D01*
X15674700Y-14169571D01*
X15660414Y-14198143D01*
X15646128Y-14212429D01*
X15617557Y-14226714D01*
X15574700Y-14226714D01*
X15846128Y-14226714D02*
X15817557Y-14212429D01*
X15803271Y-14183857D01*
X15803271Y-13926714D01*
X16074700Y-14212429D02*
X16046128Y-14226714D01*
X15988986Y-14226714D01*
X15960414Y-14212429D01*
X15946128Y-14183857D01*
X15946128Y-14069571D01*
X15960414Y-14041000D01*
X15988986Y-14026714D01*
X16046128Y-14026714D01*
X16074700Y-14041000D01*
X16088986Y-14069571D01*
X16088986Y-14098143D01*
X15946128Y-14126714D01*
X16203271Y-14212429D02*
X16231843Y-14226714D01*
X16288986Y-14226714D01*
X16317557Y-14212429D01*
X16331843Y-14183857D01*
X16331843Y-14169571D01*
X16317557Y-14141000D01*
X16288986Y-14126714D01*
X16246128Y-14126714D01*
X16217557Y-14112429D01*
X16203271Y-14083857D01*
X16203271Y-14069571D01*
X16217557Y-14041000D01*
X16246128Y-14026714D01*
X16288986Y-14026714D01*
X16317557Y-14041000D01*
X16431843Y-14341000D02*
X16446128Y-14326714D01*
X16474700Y-14283857D01*
X16488986Y-14255286D01*
X16503271Y-14212429D01*
X16517557Y-14141000D01*
X16517557Y-14083857D01*
X16503271Y-14012429D01*
X16488986Y-13969571D01*
X16474700Y-13941000D01*
X16446128Y-13898143D01*
X16431843Y-13883857D01*
X9524700Y-14622000D02*
X9659700Y-14487000D01*
X9524700Y-14352000D01*
X9389700Y-14487000D01*
X9524700Y-14622000D01*
X9931843Y-14351286D02*
X9946128Y-14337000D01*
X9974700Y-14322714D01*
X10046128Y-14322714D01*
X10074700Y-14337000D01*
X10088986Y-14351286D01*
X10103271Y-14379857D01*
X10103271Y-14408429D01*
X10088986Y-14451286D01*
X9917557Y-14622714D01*
X10103271Y-14622714D01*
X10231843Y-14594143D02*
X10246128Y-14608429D01*
X10231843Y-14622714D01*
X10217557Y-14608429D01*
X10231843Y-14594143D01*
X10231843Y-14622714D01*
X10346128Y-14322714D02*
X10546128Y-14322714D01*
X10417557Y-14622714D01*
X10717557Y-14322714D02*
X10746128Y-14322714D01*
X10774700Y-14337000D01*
X10788986Y-14351286D01*
X10803271Y-14379857D01*
X10817557Y-14437000D01*
X10817557Y-14508429D01*
X10803271Y-14565571D01*
X10788986Y-14594143D01*
X10774700Y-14608429D01*
X10746128Y-14622714D01*
X10717557Y-14622714D01*
X10688986Y-14608429D01*
X10674700Y-14594143D01*
X10660414Y-14565571D01*
X10646128Y-14508429D01*
X10646128Y-14437000D01*
X10660414Y-14379857D01*
X10674700Y-14351286D01*
X10688986Y-14337000D01*
X10717557Y-14322714D01*
X10946128Y-14622714D02*
X10946128Y-14422714D01*
X10946128Y-14451286D02*
X10960414Y-14437000D01*
X10988986Y-14422714D01*
X11031843Y-14422714D01*
X11060414Y-14437000D01*
X11074700Y-14465571D01*
X11074700Y-14622714D01*
X11074700Y-14465571D02*
X11088986Y-14437000D01*
X11117557Y-14422714D01*
X11160414Y-14422714D01*
X11188986Y-14437000D01*
X11203271Y-14465571D01*
X11203271Y-14622714D01*
X11346128Y-14622714D02*
X11346128Y-14422714D01*
X11346128Y-14451286D02*
X11360414Y-14437000D01*
X11388986Y-14422714D01*
X11431843Y-14422714D01*
X11460414Y-14437000D01*
X11474700Y-14465571D01*
X11474700Y-14622714D01*
X11474700Y-14465571D02*
X11488986Y-14437000D01*
X11517557Y-14422714D01*
X11560414Y-14422714D01*
X11588986Y-14437000D01*
X11603271Y-14465571D01*
X11603271Y-14622714D01*
X12188986Y-14308429D02*
X11931843Y-14694143D01*
X12574700Y-14322714D02*
X12603271Y-14322714D01*
X12631843Y-14337000D01*
X12646128Y-14351286D01*
X12660414Y-14379857D01*
X12674700Y-14437000D01*
X12674700Y-14508429D01*
X12660414Y-14565571D01*
X12646128Y-14594143D01*
X12631843Y-14608429D01*
X12603271Y-14622714D01*
X12574700Y-14622714D01*
X12546128Y-14608429D01*
X12531843Y-14594143D01*
X12517557Y-14565571D01*
X12503271Y-14508429D01*
X12503271Y-14437000D01*
X12517557Y-14379857D01*
X12531843Y-14351286D01*
X12546128Y-14337000D01*
X12574700Y-14322714D01*
X12803271Y-14594143D02*
X12817557Y-14608429D01*
X12803271Y-14622714D01*
X12788986Y-14608429D01*
X12803271Y-14594143D01*
X12803271Y-14622714D01*
X13103271Y-14622714D02*
X12931843Y-14622714D01*
X13017557Y-14622714D02*
X13017557Y-14322714D01*
X12988986Y-14365571D01*
X12960414Y-14394143D01*
X12931843Y-14408429D01*
X13288986Y-14322714D02*
X13317557Y-14322714D01*
X13346128Y-14337000D01*
X13360414Y-14351286D01*
X13374700Y-14379857D01*
X13388986Y-14437000D01*
X13388986Y-14508429D01*
X13374700Y-14565571D01*
X13360414Y-14594143D01*
X13346128Y-14608429D01*
X13317557Y-14622714D01*
X13288986Y-14622714D01*
X13260414Y-14608429D01*
X13246128Y-14594143D01*
X13231843Y-14565571D01*
X13217557Y-14508429D01*
X13217557Y-14437000D01*
X13231843Y-14379857D01*
X13246128Y-14351286D01*
X13260414Y-14337000D01*
X13288986Y-14322714D01*
X13646128Y-14322714D02*
X13588986Y-14322714D01*
X13560414Y-14337000D01*
X13546128Y-14351286D01*
X13517557Y-14394143D01*
X13503271Y-14451286D01*
X13503271Y-14565571D01*
X13517557Y-14594143D01*
X13531843Y-14608429D01*
X13560414Y-14622714D01*
X13617557Y-14622714D01*
X13646128Y-14608429D01*
X13660414Y-14594143D01*
X13674700Y-14565571D01*
X13674700Y-14494143D01*
X13660414Y-14465571D01*
X13646128Y-14451286D01*
X13617557Y-14437000D01*
X13560414Y-14437000D01*
X13531843Y-14451286D01*
X13517557Y-14465571D01*
X13503271Y-14494143D01*
X13788986Y-14322714D02*
X13788986Y-14379857D01*
X13903271Y-14322714D02*
X13903271Y-14379857D01*
X14346128Y-14737000D02*
X14331843Y-14722714D01*
X14303271Y-14679857D01*
X14288986Y-14651286D01*
X14274700Y-14608429D01*
X14260414Y-14537000D01*
X14260414Y-14479857D01*
X14274700Y-14408429D01*
X14288986Y-14365571D01*
X14303271Y-14337000D01*
X14331843Y-14294143D01*
X14346128Y-14279857D01*
X14588986Y-14422714D02*
X14588986Y-14622714D01*
X14517557Y-14308429D02*
X14446128Y-14522714D01*
X14631843Y-14522714D01*
X14974700Y-14622714D02*
X14974700Y-14322714D01*
X15103271Y-14622714D02*
X15103271Y-14465571D01*
X15088986Y-14437000D01*
X15060414Y-14422714D01*
X15017557Y-14422714D01*
X14988986Y-14437000D01*
X14974700Y-14451286D01*
X15288986Y-14622714D02*
X15260414Y-14608429D01*
X15246128Y-14594143D01*
X15231843Y-14565571D01*
X15231843Y-14479857D01*
X15246128Y-14451286D01*
X15260414Y-14437000D01*
X15288986Y-14422714D01*
X15331843Y-14422714D01*
X15360414Y-14437000D01*
X15374700Y-14451286D01*
X15388986Y-14479857D01*
X15388986Y-14565571D01*
X15374700Y-14594143D01*
X15360414Y-14608429D01*
X15331843Y-14622714D01*
X15288986Y-14622714D01*
X15560414Y-14622714D02*
X15531843Y-14608429D01*
X15517557Y-14579857D01*
X15517557Y-14322714D01*
X15788986Y-14608429D02*
X15760414Y-14622714D01*
X15703271Y-14622714D01*
X15674700Y-14608429D01*
X15660414Y-14579857D01*
X15660414Y-14465571D01*
X15674700Y-14437000D01*
X15703271Y-14422714D01*
X15760414Y-14422714D01*
X15788986Y-14437000D01*
X15803271Y-14465571D01*
X15803271Y-14494143D01*
X15660414Y-14522714D01*
X15917557Y-14608429D02*
X15946128Y-14622714D01*
X16003271Y-14622714D01*
X16031843Y-14608429D01*
X16046128Y-14579857D01*
X16046128Y-14565571D01*
X16031843Y-14537000D01*
X16003271Y-14522714D01*
X15960414Y-14522714D01*
X15931843Y-14508429D01*
X15917557Y-14479857D01*
X15917557Y-14465571D01*
X15931843Y-14437000D01*
X15960414Y-14422714D01*
X16003271Y-14422714D01*
X16031843Y-14437000D01*
X16146128Y-14737000D02*
X16160414Y-14722714D01*
X16188986Y-14679857D01*
X16203271Y-14651286D01*
X16217557Y-14608429D01*
X16231843Y-14537000D01*
X16231843Y-14479857D01*
X16217557Y-14408429D01*
X16203271Y-14365571D01*
X16188986Y-14337000D01*
X16160414Y-14294143D01*
X16146128Y-14279857D01*
X16688986Y-14737000D02*
X16674700Y-14722714D01*
X16646128Y-14679857D01*
X16631843Y-14651286D01*
X16617557Y-14608429D01*
X16603271Y-14537000D01*
X16603271Y-14479857D01*
X16617557Y-14408429D01*
X16631843Y-14365571D01*
X16646128Y-14337000D01*
X16674700Y-14294143D01*
X16688986Y-14279857D01*
X16803271Y-14422714D02*
X16803271Y-14622714D01*
X16803271Y-14451286D02*
X16817557Y-14437000D01*
X16846128Y-14422714D01*
X16888986Y-14422714D01*
X16917557Y-14437000D01*
X16931843Y-14465571D01*
X16931843Y-14622714D01*
X17117557Y-14622714D02*
X17088986Y-14608429D01*
X17074700Y-14594143D01*
X17060414Y-14565571D01*
X17060414Y-14479857D01*
X17074700Y-14451286D01*
X17088986Y-14437000D01*
X17117557Y-14422714D01*
X17160414Y-14422714D01*
X17188986Y-14437000D01*
X17203271Y-14451286D01*
X17217557Y-14479857D01*
X17217557Y-14565571D01*
X17203271Y-14594143D01*
X17188986Y-14608429D01*
X17160414Y-14622714D01*
X17117557Y-14622714D01*
X17303271Y-14422714D02*
X17417557Y-14422714D01*
X17346128Y-14322714D02*
X17346128Y-14579857D01*
X17360414Y-14608429D01*
X17388986Y-14622714D01*
X17417557Y-14622714D01*
X17746128Y-14422714D02*
X17746128Y-14722714D01*
X17746128Y-14437000D02*
X17774700Y-14422714D01*
X17831843Y-14422714D01*
X17860414Y-14437000D01*
X17874700Y-14451286D01*
X17888986Y-14479857D01*
X17888986Y-14565571D01*
X17874700Y-14594143D01*
X17860414Y-14608429D01*
X17831843Y-14622714D01*
X17774700Y-14622714D01*
X17746128Y-14608429D01*
X18060414Y-14622714D02*
X18031843Y-14608429D01*
X18017557Y-14579857D01*
X18017557Y-14322714D01*
X18303271Y-14622714D02*
X18303271Y-14465571D01*
X18288986Y-14437000D01*
X18260414Y-14422714D01*
X18203271Y-14422714D01*
X18174700Y-14437000D01*
X18303271Y-14608429D02*
X18274700Y-14622714D01*
X18203271Y-14622714D01*
X18174700Y-14608429D01*
X18160414Y-14579857D01*
X18160414Y-14551286D01*
X18174700Y-14522714D01*
X18203271Y-14508429D01*
X18274700Y-14508429D01*
X18303271Y-14494143D01*
X18403271Y-14422714D02*
X18517557Y-14422714D01*
X18446128Y-14322714D02*
X18446128Y-14579857D01*
X18460414Y-14608429D01*
X18488986Y-14622714D01*
X18517557Y-14622714D01*
X18731843Y-14608429D02*
X18703271Y-14622714D01*
X18646128Y-14622714D01*
X18617557Y-14608429D01*
X18603271Y-14579857D01*
X18603271Y-14465571D01*
X18617557Y-14437000D01*
X18646128Y-14422714D01*
X18703271Y-14422714D01*
X18731843Y-14437000D01*
X18746128Y-14465571D01*
X18746128Y-14494143D01*
X18603271Y-14522714D01*
X19003271Y-14622714D02*
X19003271Y-14322714D01*
X19003271Y-14608429D02*
X18974700Y-14622714D01*
X18917557Y-14622714D01*
X18888986Y-14608429D01*
X18874700Y-14594143D01*
X18860414Y-14565571D01*
X18860414Y-14479857D01*
X18874700Y-14451286D01*
X18888986Y-14437000D01*
X18917557Y-14422714D01*
X18974700Y-14422714D01*
X19003271Y-14437000D01*
X19117557Y-14737000D02*
X19131843Y-14722714D01*
X19160414Y-14679857D01*
X19174700Y-14651286D01*
X19188986Y-14608429D01*
X19203271Y-14537000D01*
X19203271Y-14479857D01*
X19188986Y-14408429D01*
X19174700Y-14365571D01*
X19160414Y-14337000D01*
X19131843Y-14294143D01*
X19117557Y-14279857D01*
M02*
