G04 #@! TF.GenerationSoftware,KiCad,Pcbnew,(5.0.0-rc2-dev-444-g2974a2c10)*
G04 #@! TF.CreationDate,2019-04-27T15:19:08-07:00*
G04 #@! TF.ProjectId,ItsyBitsy breadboad,49747379426974737920627265616462,v01*
G04 #@! TF.SameCoordinates,Original*
G04 #@! TF.FileFunction,Profile,NP*
%FSLAX46Y46*%
G04 Gerber Fmt 4.6, Leading zero omitted, Abs format (unit mm)*
G04 Created by KiCad (PCBNEW (5.0.0-rc2-dev-444-g2974a2c10)) date 04/27/19 15:19:08*
%MOMM*%
%LPD*%
G01*
G04 APERTURE LIST*
%ADD10C,0.100000*%
G04 APERTURE END LIST*
D10*
X165735000Y-118745000D02*
X165735000Y-114300000D01*
X165735000Y-101600000D02*
G75*
G02X165100000Y-102235000I-635000J0D01*
G01*
X165100000Y-102235000D02*
X161925000Y-102235000D01*
X161290000Y-102870000D02*
X161290000Y-113030000D01*
X161290000Y-102870000D02*
G75*
G02X161925000Y-102235000I635000J0D01*
G01*
X161925000Y-113665000D02*
G75*
G02X161290000Y-113030000I0J635000D01*
G01*
X165100000Y-113665000D02*
G75*
G02X165735000Y-114300000I0J-635000D01*
G01*
X165100000Y-113665000D02*
X161925000Y-113665000D01*
X105410000Y-113665000D02*
X108585000Y-113665000D01*
X105410000Y-102235000D02*
X108585000Y-102235000D01*
X109220000Y-113030000D02*
G75*
G02X108585000Y-113665000I-635000J0D01*
G01*
X108585000Y-102235000D02*
G75*
G02X109220000Y-102870000I0J-635000D01*
G01*
X109220000Y-113030000D02*
X109220000Y-102870000D01*
X104775000Y-118745000D02*
X104775000Y-114300000D01*
X104775000Y-114300000D02*
G75*
G02X105410000Y-113665000I635000J0D01*
G01*
X105410000Y-102235000D02*
G75*
G02X104775000Y-101600000I0J635000D01*
G01*
X165735000Y-118745000D02*
G75*
G02X165100000Y-119380000I-635000J0D01*
G01*
X105410000Y-119380000D02*
G75*
G02X104775000Y-118745000I0J635000D01*
G01*
X104775000Y-97155000D02*
G75*
G02X105410000Y-96520000I635000J0D01*
G01*
X165100000Y-96520000D02*
G75*
G02X165735000Y-97155000I0J-635000D01*
G01*
X104775000Y-101600000D02*
X104775000Y-97155000D01*
X105410000Y-119380000D02*
X165100000Y-119380000D01*
X105410000Y-96520000D02*
X165100000Y-96520000D01*
X165735000Y-101600000D02*
X165735000Y-97155000D01*
M02*
