%FSLAX45Y45*%
G04 Gerber Fmt 4.5, Leading zero omitted, Abs format (unit mm)*
G04 Created by KiCad (PCBNEW (5.0.0-rc2-dev-444-g2974a2c10)) date 04/27/19 15:19:11*
%MOMM*%
%LPD*%
G01*
G04 APERTURE LIST*
%ADD10C,0.100000*%
%ADD11C,0.200000*%
%ADD12C,0.300000*%
G04 APERTURE END LIST*
D10*
X16573500Y-11874500D02*
X16573500Y-11430000D01*
X16573500Y-10160000D02*
G75*
G02X16510000Y-10223500I-63500J0D01*
G01*
X16510000Y-10223500D02*
X16192500Y-10223500D01*
X16129000Y-10287000D02*
X16129000Y-11303000D01*
X16129000Y-10287000D02*
G75*
G02X16192500Y-10223500I63500J0D01*
G01*
X16192500Y-11366500D02*
G75*
G02X16129000Y-11303000I0J63500D01*
G01*
X16510000Y-11366500D02*
G75*
G02X16573500Y-11430000I0J-63500D01*
G01*
X16510000Y-11366500D02*
X16192500Y-11366500D01*
X10541000Y-11366500D02*
X10858500Y-11366500D01*
X10541000Y-10223500D02*
X10858500Y-10223500D01*
X10922000Y-11303000D02*
G75*
G02X10858500Y-11366500I-63500J0D01*
G01*
X10858500Y-10223500D02*
G75*
G02X10922000Y-10287000I0J-63500D01*
G01*
X10922000Y-11303000D02*
X10922000Y-10287000D01*
X10477500Y-11874500D02*
X10477500Y-11430000D01*
X10477500Y-11430000D02*
G75*
G02X10541000Y-11366500I63500J0D01*
G01*
X10541000Y-10223500D02*
G75*
G02X10477500Y-10160000I0J63500D01*
G01*
X16573500Y-11874500D02*
G75*
G02X16510000Y-11938000I-63500J0D01*
G01*
X10541000Y-11938000D02*
G75*
G02X10477500Y-11874500I0J63500D01*
G01*
X10477500Y-9715500D02*
G75*
G02X10541000Y-9652000I63500J0D01*
G01*
X16510000Y-9652000D02*
G75*
G02X16573500Y-9715500I0J-63500D01*
G01*
X10477500Y-10160000D02*
X10477500Y-9715500D01*
X10541000Y-11938000D02*
X16510000Y-11938000D01*
X10541000Y-9652000D02*
X16510000Y-9652000D01*
X16573500Y-10160000D02*
X16573500Y-9715500D01*
D11*
X11159490Y-10333990D02*
X11192510Y-10367010D01*
X11192510Y-10333990D02*
X11159490Y-10367010D01*
X11159490Y-11222990D02*
X11192510Y-11256010D01*
X11192510Y-11222990D02*
X11159490Y-11256010D01*
X13064490Y-10168890D02*
X13097510Y-10201910D01*
X13097510Y-10168890D02*
X13064490Y-10201910D01*
X13064490Y-11311890D02*
X13097510Y-11344910D01*
X13097510Y-11311890D02*
X13064490Y-11344910D01*
X14207490Y-10524490D02*
X14240510Y-10557510D01*
X14240510Y-10524490D02*
X14207490Y-10557510D01*
X14207490Y-11159490D02*
X14240510Y-11192510D01*
X14240510Y-11159490D02*
X14207490Y-11192510D01*
X14283690Y-10905490D02*
X14316710Y-10938510D01*
X14316710Y-10905490D02*
X14283690Y-10938510D01*
X14715490Y-10905490D02*
X14748510Y-10938510D01*
X14748510Y-10905490D02*
X14715490Y-10938510D01*
X15413990Y-9952990D02*
X15447010Y-9986010D01*
X15447010Y-9952990D02*
X15413990Y-9986010D01*
X15413990Y-11603990D02*
X15447010Y-11637010D01*
X15447010Y-11603990D02*
X15413990Y-11637010D01*
X15921990Y-10016490D02*
X15955010Y-10049510D01*
X15955010Y-10016490D02*
X15921990Y-10049510D01*
X15921990Y-11540490D02*
X15955010Y-11573510D01*
X15955010Y-11540490D02*
X15921990Y-11573510D01*
X12090400Y-10261600D02*
G75*
G03X12090400Y-10261600I-25400J0D01*
G01*
X15748000Y-10062200D02*
X15748000Y-10137200D01*
X15710500Y-10099700D02*
X15785500Y-10099700D01*
X15748000Y-10262200D02*
X15748000Y-10337200D01*
X15710500Y-10299700D02*
X15785500Y-10299700D01*
X15748000Y-10856000D02*
X15748000Y-10931000D01*
X15710500Y-10893500D02*
X15785500Y-10893500D01*
X15748000Y-11056000D02*
X15748000Y-11131000D01*
X15710500Y-11093500D02*
X15785500Y-11093500D01*
X15748000Y-11256000D02*
X15748000Y-11331000D01*
X15710500Y-11293500D02*
X15785500Y-11293500D01*
X15748000Y-11456000D02*
X15748000Y-11531000D01*
X15710500Y-11493500D02*
X15785500Y-11493500D01*
X11211356Y-11846356D02*
X11211356Y-11775644D01*
X11140644Y-11775644D01*
X11140644Y-11846356D01*
X11211356Y-11846356D01*
X11465356Y-11846356D02*
X11465356Y-11775644D01*
X11394644Y-11775644D01*
X11394644Y-11846356D01*
X11465356Y-11846356D01*
X11719356Y-11846356D02*
X11719356Y-11775644D01*
X11648644Y-11775644D01*
X11648644Y-11846356D01*
X11719356Y-11846356D01*
X11973356Y-11846356D02*
X11973356Y-11775644D01*
X11902644Y-11775644D01*
X11902644Y-11846356D01*
X11973356Y-11846356D01*
X12227356Y-11846356D02*
X12227356Y-11775644D01*
X12156644Y-11775644D01*
X12156644Y-11846356D01*
X12227356Y-11846356D01*
X12481356Y-11846356D02*
X12481356Y-11775644D01*
X12410644Y-11775644D01*
X12410644Y-11846356D01*
X12481356Y-11846356D01*
X12735356Y-11846356D02*
X12735356Y-11775644D01*
X12664644Y-11775644D01*
X12664644Y-11846356D01*
X12735356Y-11846356D01*
X12989356Y-11846356D02*
X12989356Y-11775644D01*
X12918644Y-11775644D01*
X12918644Y-11846356D01*
X12989356Y-11846356D01*
X13243356Y-11846356D02*
X13243356Y-11775644D01*
X13172644Y-11775644D01*
X13172644Y-11846356D01*
X13243356Y-11846356D01*
X13497356Y-11846356D02*
X13497356Y-11775644D01*
X13426644Y-11775644D01*
X13426644Y-11846356D01*
X13497356Y-11846356D01*
X13751356Y-11846356D02*
X13751356Y-11775644D01*
X13680644Y-11775644D01*
X13680644Y-11846356D01*
X13751356Y-11846356D01*
X14005356Y-11846356D02*
X14005356Y-11775644D01*
X13934644Y-11775644D01*
X13934644Y-11846356D01*
X14005356Y-11846356D01*
X14259356Y-11846356D02*
X14259356Y-11775644D01*
X14188644Y-11775644D01*
X14188644Y-11846356D01*
X14259356Y-11846356D01*
X14513356Y-11846356D02*
X14513356Y-11775644D01*
X14442644Y-11775644D01*
X14442644Y-11846356D01*
X14513356Y-11846356D01*
X14767356Y-11846356D02*
X14767356Y-11775644D01*
X14696644Y-11775644D01*
X14696644Y-11846356D01*
X14767356Y-11846356D01*
X15021356Y-11846356D02*
X15021356Y-11775644D01*
X14950644Y-11775644D01*
X14950644Y-11846356D01*
X15021356Y-11846356D01*
X15275356Y-11846356D02*
X15275356Y-11775644D01*
X15204644Y-11775644D01*
X15204644Y-11846356D01*
X15275356Y-11846356D01*
X11211356Y-9814356D02*
X11211356Y-9743644D01*
X11140644Y-9743644D01*
X11140644Y-9814356D01*
X11211356Y-9814356D01*
X11465356Y-9814356D02*
X11465356Y-9743644D01*
X11394644Y-9743644D01*
X11394644Y-9814356D01*
X11465356Y-9814356D01*
X11719356Y-9814356D02*
X11719356Y-9743644D01*
X11648644Y-9743644D01*
X11648644Y-9814356D01*
X11719356Y-9814356D01*
X11973356Y-9814356D02*
X11973356Y-9743644D01*
X11902644Y-9743644D01*
X11902644Y-9814356D01*
X11973356Y-9814356D01*
X12227356Y-9814356D02*
X12227356Y-9743644D01*
X12156644Y-9743644D01*
X12156644Y-9814356D01*
X12227356Y-9814356D01*
X12481356Y-9814356D02*
X12481356Y-9743644D01*
X12410644Y-9743644D01*
X12410644Y-9814356D01*
X12481356Y-9814356D01*
X12735356Y-9814356D02*
X12735356Y-9743644D01*
X12664644Y-9743644D01*
X12664644Y-9814356D01*
X12735356Y-9814356D01*
X12989356Y-9814356D02*
X12989356Y-9743644D01*
X12918644Y-9743644D01*
X12918644Y-9814356D01*
X12989356Y-9814356D01*
X13243356Y-9814356D02*
X13243356Y-9743644D01*
X13172644Y-9743644D01*
X13172644Y-9814356D01*
X13243356Y-9814356D01*
X13497356Y-9814356D02*
X13497356Y-9743644D01*
X13426644Y-9743644D01*
X13426644Y-9814356D01*
X13497356Y-9814356D01*
X13751356Y-9814356D02*
X13751356Y-9743644D01*
X13680644Y-9743644D01*
X13680644Y-9814356D01*
X13751356Y-9814356D01*
X14005356Y-9814356D02*
X14005356Y-9743644D01*
X13934644Y-9743644D01*
X13934644Y-9814356D01*
X14005356Y-9814356D01*
X14259356Y-9814356D02*
X14259356Y-9743644D01*
X14188644Y-9743644D01*
X14188644Y-9814356D01*
X14259356Y-9814356D01*
X14513356Y-9814356D02*
X14513356Y-9743644D01*
X14442644Y-9743644D01*
X14442644Y-9814356D01*
X14513356Y-9814356D01*
X14767356Y-9814356D02*
X14767356Y-9743644D01*
X14696644Y-9743644D01*
X14696644Y-9814356D01*
X14767356Y-9814356D01*
X15021356Y-9814356D02*
X15021356Y-9743644D01*
X14950644Y-9743644D01*
X14950644Y-9814356D01*
X15021356Y-9814356D01*
X11211356Y-10068356D02*
X11211356Y-9997644D01*
X11140644Y-9997644D01*
X11140644Y-10068356D01*
X11211356Y-10068356D01*
X11465356Y-10068356D02*
X11465356Y-9997644D01*
X11394644Y-9997644D01*
X11394644Y-10068356D01*
X11465356Y-10068356D01*
X11719356Y-10068356D02*
X11719356Y-9997644D01*
X11648644Y-9997644D01*
X11648644Y-10068356D01*
X11719356Y-10068356D01*
X11973356Y-10068356D02*
X11973356Y-9997644D01*
X11902644Y-9997644D01*
X11902644Y-10068356D01*
X11973356Y-10068356D01*
X12227356Y-10068356D02*
X12227356Y-9997644D01*
X12156644Y-9997644D01*
X12156644Y-10068356D01*
X12227356Y-10068356D01*
X12481356Y-10068356D02*
X12481356Y-9997644D01*
X12410644Y-9997644D01*
X12410644Y-10068356D01*
X12481356Y-10068356D01*
X12735356Y-10068356D02*
X12735356Y-9997644D01*
X12664644Y-9997644D01*
X12664644Y-10068356D01*
X12735356Y-10068356D01*
X12989356Y-10068356D02*
X12989356Y-9997644D01*
X12918644Y-9997644D01*
X12918644Y-10068356D01*
X12989356Y-10068356D01*
X13243356Y-10068356D02*
X13243356Y-9997644D01*
X13172644Y-9997644D01*
X13172644Y-10068356D01*
X13243356Y-10068356D01*
X13497356Y-10068356D02*
X13497356Y-9997644D01*
X13426644Y-9997644D01*
X13426644Y-10068356D01*
X13497356Y-10068356D01*
X13751356Y-10068356D02*
X13751356Y-9997644D01*
X13680644Y-9997644D01*
X13680644Y-10068356D01*
X13751356Y-10068356D01*
X14005356Y-10068356D02*
X14005356Y-9997644D01*
X13934644Y-9997644D01*
X13934644Y-10068356D01*
X14005356Y-10068356D01*
X14259356Y-10068356D02*
X14259356Y-9997644D01*
X14188644Y-9997644D01*
X14188644Y-10068356D01*
X14259356Y-10068356D01*
X14513356Y-10068356D02*
X14513356Y-9997644D01*
X14442644Y-9997644D01*
X14442644Y-10068356D01*
X14513356Y-10068356D01*
X14767356Y-10068356D02*
X14767356Y-9997644D01*
X14696644Y-9997644D01*
X14696644Y-10068356D01*
X14767356Y-10068356D01*
X15021356Y-10068356D02*
X15021356Y-9997644D01*
X14950644Y-9997644D01*
X14950644Y-10068356D01*
X15021356Y-10068356D01*
X11211356Y-11592356D02*
X11211356Y-11521644D01*
X11140644Y-11521644D01*
X11140644Y-11592356D01*
X11211356Y-11592356D01*
X11465356Y-11592356D02*
X11465356Y-11521644D01*
X11394644Y-11521644D01*
X11394644Y-11592356D01*
X11465356Y-11592356D01*
X11719356Y-11592356D02*
X11719356Y-11521644D01*
X11648644Y-11521644D01*
X11648644Y-11592356D01*
X11719356Y-11592356D01*
X11973356Y-11592356D02*
X11973356Y-11521644D01*
X11902644Y-11521644D01*
X11902644Y-11592356D01*
X11973356Y-11592356D01*
X12227356Y-11592356D02*
X12227356Y-11521644D01*
X12156644Y-11521644D01*
X12156644Y-11592356D01*
X12227356Y-11592356D01*
X12481356Y-11592356D02*
X12481356Y-11521644D01*
X12410644Y-11521644D01*
X12410644Y-11592356D01*
X12481356Y-11592356D01*
X12735356Y-11592356D02*
X12735356Y-11521644D01*
X12664644Y-11521644D01*
X12664644Y-11592356D01*
X12735356Y-11592356D01*
X12989356Y-11592356D02*
X12989356Y-11521644D01*
X12918644Y-11521644D01*
X12918644Y-11592356D01*
X12989356Y-11592356D01*
X13243356Y-11592356D02*
X13243356Y-11521644D01*
X13172644Y-11521644D01*
X13172644Y-11592356D01*
X13243356Y-11592356D01*
X13497356Y-11592356D02*
X13497356Y-11521644D01*
X13426644Y-11521644D01*
X13426644Y-11592356D01*
X13497356Y-11592356D01*
X13751356Y-11592356D02*
X13751356Y-11521644D01*
X13680644Y-11521644D01*
X13680644Y-11592356D01*
X13751356Y-11592356D01*
X14005356Y-11592356D02*
X14005356Y-11521644D01*
X13934644Y-11521644D01*
X13934644Y-11592356D01*
X14005356Y-11592356D01*
X14259356Y-11592356D02*
X14259356Y-11521644D01*
X14188644Y-11521644D01*
X14188644Y-11592356D01*
X14259356Y-11592356D01*
X14513356Y-11592356D02*
X14513356Y-11521644D01*
X14442644Y-11521644D01*
X14442644Y-11592356D01*
X14513356Y-11592356D01*
X14767356Y-11592356D02*
X14767356Y-11521644D01*
X14696644Y-11521644D01*
X14696644Y-11592356D01*
X14767356Y-11592356D01*
X15021356Y-11592356D02*
X15021356Y-11521644D01*
X14950644Y-11521644D01*
X14950644Y-11592356D01*
X15021356Y-11592356D01*
X15275356Y-11592356D02*
X15275356Y-11521644D01*
X15204644Y-11521644D01*
X15204644Y-11592356D01*
X15275356Y-11592356D01*
X15275356Y-10576356D02*
X15275356Y-10505644D01*
X15204644Y-10505644D01*
X15204644Y-10576356D01*
X15275356Y-10576356D01*
X15275356Y-10830356D02*
X15275356Y-10759644D01*
X15204644Y-10759644D01*
X15204644Y-10830356D01*
X15275356Y-10830356D01*
X15275356Y-11084356D02*
X15275356Y-11013644D01*
X15204644Y-11013644D01*
X15204644Y-11084356D01*
X15275356Y-11084356D01*
X14513356Y-10322356D02*
X14513356Y-10251644D01*
X14442644Y-10251644D01*
X14442644Y-10322356D01*
X14513356Y-10322356D01*
X14513356Y-10576356D02*
X14513356Y-10505644D01*
X14442644Y-10505644D01*
X14442644Y-10576356D01*
X14513356Y-10576356D01*
X14513356Y-10830356D02*
X14513356Y-10759644D01*
X14442644Y-10759644D01*
X14442644Y-10830356D01*
X14513356Y-10830356D01*
X14513356Y-11084356D02*
X14513356Y-11013644D01*
X14442644Y-11013644D01*
X14442644Y-11084356D01*
X14513356Y-11084356D01*
X14513356Y-11338356D02*
X14513356Y-11267644D01*
X14442644Y-11267644D01*
X14442644Y-11338356D01*
X14513356Y-11338356D01*
X16306800Y-10079100D02*
X16441800Y-9944100D01*
X16306800Y-9809100D01*
X16171800Y-9944100D01*
X16306800Y-10079100D01*
X16306800Y-11780900D02*
X16441800Y-11645900D01*
X16306800Y-11510900D01*
X16171800Y-11645900D01*
X16306800Y-11780900D01*
X10744200Y-10079100D02*
X10879200Y-9944100D01*
X10744200Y-9809100D01*
X10609200Y-9944100D01*
X10744200Y-10079100D01*
X10744200Y-11780900D02*
X10879200Y-11645900D01*
X10744200Y-11510900D01*
X10609200Y-11645900D01*
X10744200Y-11780900D01*
D12*
X10758928Y-12408714D02*
X10758928Y-12108714D01*
X10830357Y-12108714D01*
X10873214Y-12123000D01*
X10901786Y-12151571D01*
X10916071Y-12180143D01*
X10930357Y-12237286D01*
X10930357Y-12280143D01*
X10916071Y-12337286D01*
X10901786Y-12365857D01*
X10873214Y-12394429D01*
X10830357Y-12408714D01*
X10758928Y-12408714D01*
X11058928Y-12408714D02*
X11058928Y-12208714D01*
X11058928Y-12265857D02*
X11073214Y-12237286D01*
X11087500Y-12223000D01*
X11116071Y-12208714D01*
X11144643Y-12208714D01*
X11244643Y-12408714D02*
X11244643Y-12208714D01*
X11244643Y-12108714D02*
X11230357Y-12123000D01*
X11244643Y-12137286D01*
X11258928Y-12123000D01*
X11244643Y-12108714D01*
X11244643Y-12137286D01*
X11430357Y-12408714D02*
X11401786Y-12394429D01*
X11387500Y-12365857D01*
X11387500Y-12108714D01*
X11587500Y-12408714D02*
X11558928Y-12394429D01*
X11544643Y-12365857D01*
X11544643Y-12108714D01*
X11930357Y-12408714D02*
X11930357Y-12108714D01*
X12030357Y-12323000D01*
X12130357Y-12108714D01*
X12130357Y-12408714D01*
X12401786Y-12408714D02*
X12401786Y-12251571D01*
X12387500Y-12223000D01*
X12358928Y-12208714D01*
X12301786Y-12208714D01*
X12273214Y-12223000D01*
X12401786Y-12394429D02*
X12373214Y-12408714D01*
X12301786Y-12408714D01*
X12273214Y-12394429D01*
X12258928Y-12365857D01*
X12258928Y-12337286D01*
X12273214Y-12308714D01*
X12301786Y-12294429D01*
X12373214Y-12294429D01*
X12401786Y-12280143D01*
X12544643Y-12208714D02*
X12544643Y-12508714D01*
X12544643Y-12223000D02*
X12573214Y-12208714D01*
X12630357Y-12208714D01*
X12658928Y-12223000D01*
X12673214Y-12237286D01*
X12687500Y-12265857D01*
X12687500Y-12351571D01*
X12673214Y-12380143D01*
X12658928Y-12394429D01*
X12630357Y-12408714D01*
X12573214Y-12408714D01*
X12544643Y-12394429D01*
X12816071Y-12380143D02*
X12830357Y-12394429D01*
X12816071Y-12408714D01*
X12801786Y-12394429D01*
X12816071Y-12380143D01*
X12816071Y-12408714D01*
X12816071Y-12223000D02*
X12830357Y-12237286D01*
X12816071Y-12251571D01*
X12801786Y-12237286D01*
X12816071Y-12223000D01*
X12816071Y-12251571D01*
X10439480Y-12886490D02*
X10472500Y-12919510D01*
X10472500Y-12886490D02*
X10439480Y-12919510D01*
X10816071Y-12738714D02*
X10844643Y-12738714D01*
X10873214Y-12753000D01*
X10887500Y-12767286D01*
X10901786Y-12795857D01*
X10916071Y-12853000D01*
X10916071Y-12924429D01*
X10901786Y-12981571D01*
X10887500Y-13010143D01*
X10873214Y-13024429D01*
X10844643Y-13038714D01*
X10816071Y-13038714D01*
X10787500Y-13024429D01*
X10773214Y-13010143D01*
X10758928Y-12981571D01*
X10744643Y-12924429D01*
X10744643Y-12853000D01*
X10758928Y-12795857D01*
X10773214Y-12767286D01*
X10787500Y-12753000D01*
X10816071Y-12738714D01*
X11044643Y-13010143D02*
X11058928Y-13024429D01*
X11044643Y-13038714D01*
X11030357Y-13024429D01*
X11044643Y-13010143D01*
X11044643Y-13038714D01*
X11158928Y-12738714D02*
X11344643Y-12738714D01*
X11244643Y-12853000D01*
X11287500Y-12853000D01*
X11316071Y-12867286D01*
X11330357Y-12881571D01*
X11344643Y-12910143D01*
X11344643Y-12981571D01*
X11330357Y-13010143D01*
X11316071Y-13024429D01*
X11287500Y-13038714D01*
X11201786Y-13038714D01*
X11173214Y-13024429D01*
X11158928Y-13010143D01*
X11444643Y-12738714D02*
X11630357Y-12738714D01*
X11530357Y-12853000D01*
X11573214Y-12853000D01*
X11601786Y-12867286D01*
X11616071Y-12881571D01*
X11630357Y-12910143D01*
X11630357Y-12981571D01*
X11616071Y-13010143D01*
X11601786Y-13024429D01*
X11573214Y-13038714D01*
X11487500Y-13038714D01*
X11458928Y-13024429D01*
X11444643Y-13010143D01*
X11758928Y-13038714D02*
X11758928Y-12838714D01*
X11758928Y-12867286D02*
X11773214Y-12853000D01*
X11801786Y-12838714D01*
X11844643Y-12838714D01*
X11873214Y-12853000D01*
X11887500Y-12881571D01*
X11887500Y-13038714D01*
X11887500Y-12881571D02*
X11901786Y-12853000D01*
X11930357Y-12838714D01*
X11973214Y-12838714D01*
X12001786Y-12853000D01*
X12016071Y-12881571D01*
X12016071Y-13038714D01*
X12158928Y-13038714D02*
X12158928Y-12838714D01*
X12158928Y-12867286D02*
X12173214Y-12853000D01*
X12201786Y-12838714D01*
X12244643Y-12838714D01*
X12273214Y-12853000D01*
X12287500Y-12881571D01*
X12287500Y-13038714D01*
X12287500Y-12881571D02*
X12301786Y-12853000D01*
X12330357Y-12838714D01*
X12373214Y-12838714D01*
X12401786Y-12853000D01*
X12416071Y-12881571D01*
X12416071Y-13038714D01*
X13001786Y-12724429D02*
X12744643Y-13110143D01*
X13387500Y-12738714D02*
X13416071Y-12738714D01*
X13444643Y-12753000D01*
X13458928Y-12767286D01*
X13473214Y-12795857D01*
X13487500Y-12853000D01*
X13487500Y-12924429D01*
X13473214Y-12981571D01*
X13458928Y-13010143D01*
X13444643Y-13024429D01*
X13416071Y-13038714D01*
X13387500Y-13038714D01*
X13358928Y-13024429D01*
X13344643Y-13010143D01*
X13330357Y-12981571D01*
X13316071Y-12924429D01*
X13316071Y-12853000D01*
X13330357Y-12795857D01*
X13344643Y-12767286D01*
X13358928Y-12753000D01*
X13387500Y-12738714D01*
X13616071Y-13010143D02*
X13630357Y-13024429D01*
X13616071Y-13038714D01*
X13601786Y-13024429D01*
X13616071Y-13010143D01*
X13616071Y-13038714D01*
X13816071Y-12738714D02*
X13844643Y-12738714D01*
X13873214Y-12753000D01*
X13887500Y-12767286D01*
X13901786Y-12795857D01*
X13916071Y-12853000D01*
X13916071Y-12924429D01*
X13901786Y-12981571D01*
X13887500Y-13010143D01*
X13873214Y-13024429D01*
X13844643Y-13038714D01*
X13816071Y-13038714D01*
X13787500Y-13024429D01*
X13773214Y-13010143D01*
X13758928Y-12981571D01*
X13744643Y-12924429D01*
X13744643Y-12853000D01*
X13758928Y-12795857D01*
X13773214Y-12767286D01*
X13787500Y-12753000D01*
X13816071Y-12738714D01*
X14201786Y-13038714D02*
X14030357Y-13038714D01*
X14116071Y-13038714D02*
X14116071Y-12738714D01*
X14087500Y-12781571D01*
X14058928Y-12810143D01*
X14030357Y-12824429D01*
X14301786Y-12738714D02*
X14487500Y-12738714D01*
X14387500Y-12853000D01*
X14430357Y-12853000D01*
X14458928Y-12867286D01*
X14473214Y-12881571D01*
X14487500Y-12910143D01*
X14487500Y-12981571D01*
X14473214Y-13010143D01*
X14458928Y-13024429D01*
X14430357Y-13038714D01*
X14344643Y-13038714D01*
X14316071Y-13024429D01*
X14301786Y-13010143D01*
X14601786Y-12738714D02*
X14601786Y-12795857D01*
X14716071Y-12738714D02*
X14716071Y-12795857D01*
X15158928Y-13153000D02*
X15144643Y-13138714D01*
X15116071Y-13095857D01*
X15101786Y-13067286D01*
X15087500Y-13024429D01*
X15073214Y-12953000D01*
X15073214Y-12895857D01*
X15087500Y-12824429D01*
X15101786Y-12781571D01*
X15116071Y-12753000D01*
X15144643Y-12710143D01*
X15158928Y-12695857D01*
X15430357Y-13038714D02*
X15258928Y-13038714D01*
X15344643Y-13038714D02*
X15344643Y-12738714D01*
X15316071Y-12781571D01*
X15287500Y-12810143D01*
X15258928Y-12824429D01*
X15544643Y-12767286D02*
X15558928Y-12753000D01*
X15587500Y-12738714D01*
X15658928Y-12738714D01*
X15687500Y-12753000D01*
X15701786Y-12767286D01*
X15716071Y-12795857D01*
X15716071Y-12824429D01*
X15701786Y-12867286D01*
X15530357Y-13038714D01*
X15716071Y-13038714D01*
X16073214Y-13038714D02*
X16073214Y-12738714D01*
X16201786Y-13038714D02*
X16201786Y-12881571D01*
X16187500Y-12853000D01*
X16158928Y-12838714D01*
X16116071Y-12838714D01*
X16087500Y-12853000D01*
X16073214Y-12867286D01*
X16387500Y-13038714D02*
X16358928Y-13024429D01*
X16344643Y-13010143D01*
X16330357Y-12981571D01*
X16330357Y-12895857D01*
X16344643Y-12867286D01*
X16358928Y-12853000D01*
X16387500Y-12838714D01*
X16430357Y-12838714D01*
X16458928Y-12853000D01*
X16473214Y-12867286D01*
X16487500Y-12895857D01*
X16487500Y-12981571D01*
X16473214Y-13010143D01*
X16458928Y-13024429D01*
X16430357Y-13038714D01*
X16387500Y-13038714D01*
X16658928Y-13038714D02*
X16630357Y-13024429D01*
X16616071Y-12995857D01*
X16616071Y-12738714D01*
X16887500Y-13024429D02*
X16858928Y-13038714D01*
X16801786Y-13038714D01*
X16773214Y-13024429D01*
X16758928Y-12995857D01*
X16758928Y-12881571D01*
X16773214Y-12853000D01*
X16801786Y-12838714D01*
X16858928Y-12838714D01*
X16887500Y-12853000D01*
X16901786Y-12881571D01*
X16901786Y-12910143D01*
X16758928Y-12938714D01*
X17016071Y-13024429D02*
X17044643Y-13038714D01*
X17101786Y-13038714D01*
X17130357Y-13024429D01*
X17144643Y-12995857D01*
X17144643Y-12981571D01*
X17130357Y-12953000D01*
X17101786Y-12938714D01*
X17058928Y-12938714D01*
X17030357Y-12924429D01*
X17016071Y-12895857D01*
X17016071Y-12881571D01*
X17030357Y-12853000D01*
X17058928Y-12838714D01*
X17101786Y-12838714D01*
X17130357Y-12853000D01*
X17244643Y-13153000D02*
X17258928Y-13138714D01*
X17287500Y-13095857D01*
X17301786Y-13067286D01*
X17316071Y-13024429D01*
X17330357Y-12953000D01*
X17330357Y-12895857D01*
X17316071Y-12824429D01*
X17301786Y-12781571D01*
X17287500Y-12753000D01*
X17258928Y-12710143D01*
X17244643Y-12695857D01*
X10472500Y-13299000D02*
G75*
G03X10472500Y-13299000I-25400J0D01*
G01*
X10816071Y-13134714D02*
X10844643Y-13134714D01*
X10873214Y-13149000D01*
X10887500Y-13163286D01*
X10901786Y-13191857D01*
X10916071Y-13249000D01*
X10916071Y-13320429D01*
X10901786Y-13377571D01*
X10887500Y-13406143D01*
X10873214Y-13420429D01*
X10844643Y-13434714D01*
X10816071Y-13434714D01*
X10787500Y-13420429D01*
X10773214Y-13406143D01*
X10758928Y-13377571D01*
X10744643Y-13320429D01*
X10744643Y-13249000D01*
X10758928Y-13191857D01*
X10773214Y-13163286D01*
X10787500Y-13149000D01*
X10816071Y-13134714D01*
X11044643Y-13406143D02*
X11058928Y-13420429D01*
X11044643Y-13434714D01*
X11030357Y-13420429D01*
X11044643Y-13406143D01*
X11044643Y-13434714D01*
X11330357Y-13134714D02*
X11187500Y-13134714D01*
X11173214Y-13277571D01*
X11187500Y-13263286D01*
X11216071Y-13249000D01*
X11287500Y-13249000D01*
X11316071Y-13263286D01*
X11330357Y-13277571D01*
X11344643Y-13306143D01*
X11344643Y-13377571D01*
X11330357Y-13406143D01*
X11316071Y-13420429D01*
X11287500Y-13434714D01*
X11216071Y-13434714D01*
X11187500Y-13420429D01*
X11173214Y-13406143D01*
X11630357Y-13434714D02*
X11458928Y-13434714D01*
X11544643Y-13434714D02*
X11544643Y-13134714D01*
X11516071Y-13177571D01*
X11487500Y-13206143D01*
X11458928Y-13220429D01*
X11758928Y-13434714D02*
X11758928Y-13234714D01*
X11758928Y-13263286D02*
X11773214Y-13249000D01*
X11801786Y-13234714D01*
X11844643Y-13234714D01*
X11873214Y-13249000D01*
X11887500Y-13277571D01*
X11887500Y-13434714D01*
X11887500Y-13277571D02*
X11901786Y-13249000D01*
X11930357Y-13234714D01*
X11973214Y-13234714D01*
X12001786Y-13249000D01*
X12016071Y-13277571D01*
X12016071Y-13434714D01*
X12158928Y-13434714D02*
X12158928Y-13234714D01*
X12158928Y-13263286D02*
X12173214Y-13249000D01*
X12201786Y-13234714D01*
X12244643Y-13234714D01*
X12273214Y-13249000D01*
X12287500Y-13277571D01*
X12287500Y-13434714D01*
X12287500Y-13277571D02*
X12301786Y-13249000D01*
X12330357Y-13234714D01*
X12373214Y-13234714D01*
X12401786Y-13249000D01*
X12416071Y-13277571D01*
X12416071Y-13434714D01*
X13001786Y-13120429D02*
X12744643Y-13506143D01*
X13387500Y-13134714D02*
X13416071Y-13134714D01*
X13444643Y-13149000D01*
X13458928Y-13163286D01*
X13473214Y-13191857D01*
X13487500Y-13249000D01*
X13487500Y-13320429D01*
X13473214Y-13377571D01*
X13458928Y-13406143D01*
X13444643Y-13420429D01*
X13416071Y-13434714D01*
X13387500Y-13434714D01*
X13358928Y-13420429D01*
X13344643Y-13406143D01*
X13330357Y-13377571D01*
X13316071Y-13320429D01*
X13316071Y-13249000D01*
X13330357Y-13191857D01*
X13344643Y-13163286D01*
X13358928Y-13149000D01*
X13387500Y-13134714D01*
X13616071Y-13406143D02*
X13630357Y-13420429D01*
X13616071Y-13434714D01*
X13601786Y-13420429D01*
X13616071Y-13406143D01*
X13616071Y-13434714D01*
X13816071Y-13134714D02*
X13844643Y-13134714D01*
X13873214Y-13149000D01*
X13887500Y-13163286D01*
X13901786Y-13191857D01*
X13916071Y-13249000D01*
X13916071Y-13320429D01*
X13901786Y-13377571D01*
X13887500Y-13406143D01*
X13873214Y-13420429D01*
X13844643Y-13434714D01*
X13816071Y-13434714D01*
X13787500Y-13420429D01*
X13773214Y-13406143D01*
X13758928Y-13377571D01*
X13744643Y-13320429D01*
X13744643Y-13249000D01*
X13758928Y-13191857D01*
X13773214Y-13163286D01*
X13787500Y-13149000D01*
X13816071Y-13134714D01*
X14030357Y-13163286D02*
X14044643Y-13149000D01*
X14073214Y-13134714D01*
X14144643Y-13134714D01*
X14173214Y-13149000D01*
X14187500Y-13163286D01*
X14201786Y-13191857D01*
X14201786Y-13220429D01*
X14187500Y-13263286D01*
X14016071Y-13434714D01*
X14201786Y-13434714D01*
X14387500Y-13134714D02*
X14416071Y-13134714D01*
X14444643Y-13149000D01*
X14458928Y-13163286D01*
X14473214Y-13191857D01*
X14487500Y-13249000D01*
X14487500Y-13320429D01*
X14473214Y-13377571D01*
X14458928Y-13406143D01*
X14444643Y-13420429D01*
X14416071Y-13434714D01*
X14387500Y-13434714D01*
X14358928Y-13420429D01*
X14344643Y-13406143D01*
X14330357Y-13377571D01*
X14316071Y-13320429D01*
X14316071Y-13249000D01*
X14330357Y-13191857D01*
X14344643Y-13163286D01*
X14358928Y-13149000D01*
X14387500Y-13134714D01*
X14601786Y-13134714D02*
X14601786Y-13191857D01*
X14716071Y-13134714D02*
X14716071Y-13191857D01*
X15158928Y-13549000D02*
X15144643Y-13534714D01*
X15116071Y-13491857D01*
X15101786Y-13463286D01*
X15087500Y-13420429D01*
X15073214Y-13349000D01*
X15073214Y-13291857D01*
X15087500Y-13220429D01*
X15101786Y-13177571D01*
X15116071Y-13149000D01*
X15144643Y-13106143D01*
X15158928Y-13091857D01*
X15430357Y-13434714D02*
X15258928Y-13434714D01*
X15344643Y-13434714D02*
X15344643Y-13134714D01*
X15316071Y-13177571D01*
X15287500Y-13206143D01*
X15258928Y-13220429D01*
X15787500Y-13434714D02*
X15787500Y-13134714D01*
X15916071Y-13434714D02*
X15916071Y-13277571D01*
X15901786Y-13249000D01*
X15873214Y-13234714D01*
X15830357Y-13234714D01*
X15801786Y-13249000D01*
X15787500Y-13263286D01*
X16101786Y-13434714D02*
X16073214Y-13420429D01*
X16058928Y-13406143D01*
X16044643Y-13377571D01*
X16044643Y-13291857D01*
X16058928Y-13263286D01*
X16073214Y-13249000D01*
X16101786Y-13234714D01*
X16144643Y-13234714D01*
X16173214Y-13249000D01*
X16187500Y-13263286D01*
X16201786Y-13291857D01*
X16201786Y-13377571D01*
X16187500Y-13406143D01*
X16173214Y-13420429D01*
X16144643Y-13434714D01*
X16101786Y-13434714D01*
X16373214Y-13434714D02*
X16344643Y-13420429D01*
X16330357Y-13391857D01*
X16330357Y-13134714D01*
X16601786Y-13420429D02*
X16573214Y-13434714D01*
X16516071Y-13434714D01*
X16487500Y-13420429D01*
X16473214Y-13391857D01*
X16473214Y-13277571D01*
X16487500Y-13249000D01*
X16516071Y-13234714D01*
X16573214Y-13234714D01*
X16601786Y-13249000D01*
X16616071Y-13277571D01*
X16616071Y-13306143D01*
X16473214Y-13334714D01*
X16716071Y-13549000D02*
X16730357Y-13534714D01*
X16758928Y-13491857D01*
X16773214Y-13463286D01*
X16787500Y-13420429D01*
X16801786Y-13349000D01*
X16801786Y-13291857D01*
X16787500Y-13220429D01*
X16773214Y-13177571D01*
X16758928Y-13149000D01*
X16730357Y-13106143D01*
X16716071Y-13091857D01*
X10435000Y-13657500D02*
X10435000Y-13732500D01*
X10397500Y-13695000D02*
X10472500Y-13695000D01*
X10816071Y-13530714D02*
X10844643Y-13530714D01*
X10873214Y-13545000D01*
X10887500Y-13559286D01*
X10901786Y-13587857D01*
X10916071Y-13645000D01*
X10916071Y-13716429D01*
X10901786Y-13773571D01*
X10887500Y-13802143D01*
X10873214Y-13816429D01*
X10844643Y-13830714D01*
X10816071Y-13830714D01*
X10787500Y-13816429D01*
X10773214Y-13802143D01*
X10758928Y-13773571D01*
X10744643Y-13716429D01*
X10744643Y-13645000D01*
X10758928Y-13587857D01*
X10773214Y-13559286D01*
X10787500Y-13545000D01*
X10816071Y-13530714D01*
X11044643Y-13802143D02*
X11058928Y-13816429D01*
X11044643Y-13830714D01*
X11030357Y-13816429D01*
X11044643Y-13802143D01*
X11044643Y-13830714D01*
X11158928Y-13530714D02*
X11358928Y-13530714D01*
X11230357Y-13830714D01*
X11616071Y-13530714D02*
X11473214Y-13530714D01*
X11458928Y-13673571D01*
X11473214Y-13659286D01*
X11501786Y-13645000D01*
X11573214Y-13645000D01*
X11601786Y-13659286D01*
X11616071Y-13673571D01*
X11630357Y-13702143D01*
X11630357Y-13773571D01*
X11616071Y-13802143D01*
X11601786Y-13816429D01*
X11573214Y-13830714D01*
X11501786Y-13830714D01*
X11473214Y-13816429D01*
X11458928Y-13802143D01*
X11758928Y-13830714D02*
X11758928Y-13630714D01*
X11758928Y-13659286D02*
X11773214Y-13645000D01*
X11801786Y-13630714D01*
X11844643Y-13630714D01*
X11873214Y-13645000D01*
X11887500Y-13673571D01*
X11887500Y-13830714D01*
X11887500Y-13673571D02*
X11901786Y-13645000D01*
X11930357Y-13630714D01*
X11973214Y-13630714D01*
X12001786Y-13645000D01*
X12016071Y-13673571D01*
X12016071Y-13830714D01*
X12158928Y-13830714D02*
X12158928Y-13630714D01*
X12158928Y-13659286D02*
X12173214Y-13645000D01*
X12201786Y-13630714D01*
X12244643Y-13630714D01*
X12273214Y-13645000D01*
X12287500Y-13673571D01*
X12287500Y-13830714D01*
X12287500Y-13673571D02*
X12301786Y-13645000D01*
X12330357Y-13630714D01*
X12373214Y-13630714D01*
X12401786Y-13645000D01*
X12416071Y-13673571D01*
X12416071Y-13830714D01*
X13001786Y-13516429D02*
X12744643Y-13902143D01*
X13387500Y-13530714D02*
X13416071Y-13530714D01*
X13444643Y-13545000D01*
X13458928Y-13559286D01*
X13473214Y-13587857D01*
X13487500Y-13645000D01*
X13487500Y-13716429D01*
X13473214Y-13773571D01*
X13458928Y-13802143D01*
X13444643Y-13816429D01*
X13416071Y-13830714D01*
X13387500Y-13830714D01*
X13358928Y-13816429D01*
X13344643Y-13802143D01*
X13330357Y-13773571D01*
X13316071Y-13716429D01*
X13316071Y-13645000D01*
X13330357Y-13587857D01*
X13344643Y-13559286D01*
X13358928Y-13545000D01*
X13387500Y-13530714D01*
X13616071Y-13802143D02*
X13630357Y-13816429D01*
X13616071Y-13830714D01*
X13601786Y-13816429D01*
X13616071Y-13802143D01*
X13616071Y-13830714D01*
X13816071Y-13530714D02*
X13844643Y-13530714D01*
X13873214Y-13545000D01*
X13887500Y-13559286D01*
X13901786Y-13587857D01*
X13916071Y-13645000D01*
X13916071Y-13716429D01*
X13901786Y-13773571D01*
X13887500Y-13802143D01*
X13873214Y-13816429D01*
X13844643Y-13830714D01*
X13816071Y-13830714D01*
X13787500Y-13816429D01*
X13773214Y-13802143D01*
X13758928Y-13773571D01*
X13744643Y-13716429D01*
X13744643Y-13645000D01*
X13758928Y-13587857D01*
X13773214Y-13559286D01*
X13787500Y-13545000D01*
X13816071Y-13530714D01*
X14016071Y-13530714D02*
X14201786Y-13530714D01*
X14101786Y-13645000D01*
X14144643Y-13645000D01*
X14173214Y-13659286D01*
X14187500Y-13673571D01*
X14201786Y-13702143D01*
X14201786Y-13773571D01*
X14187500Y-13802143D01*
X14173214Y-13816429D01*
X14144643Y-13830714D01*
X14058928Y-13830714D01*
X14030357Y-13816429D01*
X14016071Y-13802143D01*
X14387500Y-13530714D02*
X14416071Y-13530714D01*
X14444643Y-13545000D01*
X14458928Y-13559286D01*
X14473214Y-13587857D01*
X14487500Y-13645000D01*
X14487500Y-13716429D01*
X14473214Y-13773571D01*
X14458928Y-13802143D01*
X14444643Y-13816429D01*
X14416071Y-13830714D01*
X14387500Y-13830714D01*
X14358928Y-13816429D01*
X14344643Y-13802143D01*
X14330357Y-13773571D01*
X14316071Y-13716429D01*
X14316071Y-13645000D01*
X14330357Y-13587857D01*
X14344643Y-13559286D01*
X14358928Y-13545000D01*
X14387500Y-13530714D01*
X14601786Y-13530714D02*
X14601786Y-13587857D01*
X14716071Y-13530714D02*
X14716071Y-13587857D01*
X15158928Y-13945000D02*
X15144643Y-13930714D01*
X15116071Y-13887857D01*
X15101786Y-13859286D01*
X15087500Y-13816429D01*
X15073214Y-13745000D01*
X15073214Y-13687857D01*
X15087500Y-13616429D01*
X15101786Y-13573571D01*
X15116071Y-13545000D01*
X15144643Y-13502143D01*
X15158928Y-13487857D01*
X15401786Y-13530714D02*
X15344643Y-13530714D01*
X15316071Y-13545000D01*
X15301786Y-13559286D01*
X15273214Y-13602143D01*
X15258928Y-13659286D01*
X15258928Y-13773571D01*
X15273214Y-13802143D01*
X15287500Y-13816429D01*
X15316071Y-13830714D01*
X15373214Y-13830714D01*
X15401786Y-13816429D01*
X15416071Y-13802143D01*
X15430357Y-13773571D01*
X15430357Y-13702143D01*
X15416071Y-13673571D01*
X15401786Y-13659286D01*
X15373214Y-13645000D01*
X15316071Y-13645000D01*
X15287500Y-13659286D01*
X15273214Y-13673571D01*
X15258928Y-13702143D01*
X15787500Y-13830714D02*
X15787500Y-13530714D01*
X15916071Y-13830714D02*
X15916071Y-13673571D01*
X15901786Y-13645000D01*
X15873214Y-13630714D01*
X15830357Y-13630714D01*
X15801786Y-13645000D01*
X15787500Y-13659286D01*
X16101786Y-13830714D02*
X16073214Y-13816429D01*
X16058928Y-13802143D01*
X16044643Y-13773571D01*
X16044643Y-13687857D01*
X16058928Y-13659286D01*
X16073214Y-13645000D01*
X16101786Y-13630714D01*
X16144643Y-13630714D01*
X16173214Y-13645000D01*
X16187500Y-13659286D01*
X16201786Y-13687857D01*
X16201786Y-13773571D01*
X16187500Y-13802143D01*
X16173214Y-13816429D01*
X16144643Y-13830714D01*
X16101786Y-13830714D01*
X16373214Y-13830714D02*
X16344643Y-13816429D01*
X16330357Y-13787857D01*
X16330357Y-13530714D01*
X16601786Y-13816429D02*
X16573214Y-13830714D01*
X16516071Y-13830714D01*
X16487500Y-13816429D01*
X16473214Y-13787857D01*
X16473214Y-13673571D01*
X16487500Y-13645000D01*
X16516071Y-13630714D01*
X16573214Y-13630714D01*
X16601786Y-13645000D01*
X16616071Y-13673571D01*
X16616071Y-13702143D01*
X16473214Y-13730714D01*
X16730357Y-13816429D02*
X16758928Y-13830714D01*
X16816071Y-13830714D01*
X16844643Y-13816429D01*
X16858928Y-13787857D01*
X16858928Y-13773571D01*
X16844643Y-13745000D01*
X16816071Y-13730714D01*
X16773214Y-13730714D01*
X16744643Y-13716429D01*
X16730357Y-13687857D01*
X16730357Y-13673571D01*
X16744643Y-13645000D01*
X16773214Y-13630714D01*
X16816071Y-13630714D01*
X16844643Y-13645000D01*
X16958928Y-13945000D02*
X16973214Y-13930714D01*
X17001786Y-13887857D01*
X17016071Y-13859286D01*
X17030357Y-13816429D01*
X17044643Y-13745000D01*
X17044643Y-13687857D01*
X17030357Y-13616429D01*
X17016071Y-13573571D01*
X17001786Y-13545000D01*
X16973214Y-13502143D01*
X16958928Y-13487857D01*
X10457856Y-14126356D02*
X10457856Y-14055644D01*
X10387144Y-14055644D01*
X10387144Y-14126356D01*
X10457856Y-14126356D01*
X10916071Y-14226714D02*
X10744643Y-14226714D01*
X10830357Y-14226714D02*
X10830357Y-13926714D01*
X10801786Y-13969571D01*
X10773214Y-13998143D01*
X10744643Y-14012429D01*
X11044643Y-14198143D02*
X11058928Y-14212429D01*
X11044643Y-14226714D01*
X11030357Y-14212429D01*
X11044643Y-14198143D01*
X11044643Y-14226714D01*
X11244643Y-13926714D02*
X11273214Y-13926714D01*
X11301786Y-13941000D01*
X11316071Y-13955286D01*
X11330357Y-13983857D01*
X11344643Y-14041000D01*
X11344643Y-14112429D01*
X11330357Y-14169571D01*
X11316071Y-14198143D01*
X11301786Y-14212429D01*
X11273214Y-14226714D01*
X11244643Y-14226714D01*
X11216071Y-14212429D01*
X11201786Y-14198143D01*
X11187500Y-14169571D01*
X11173214Y-14112429D01*
X11173214Y-14041000D01*
X11187500Y-13983857D01*
X11201786Y-13955286D01*
X11216071Y-13941000D01*
X11244643Y-13926714D01*
X11530357Y-13926714D02*
X11558928Y-13926714D01*
X11587500Y-13941000D01*
X11601786Y-13955286D01*
X11616071Y-13983857D01*
X11630357Y-14041000D01*
X11630357Y-14112429D01*
X11616071Y-14169571D01*
X11601786Y-14198143D01*
X11587500Y-14212429D01*
X11558928Y-14226714D01*
X11530357Y-14226714D01*
X11501786Y-14212429D01*
X11487500Y-14198143D01*
X11473214Y-14169571D01*
X11458928Y-14112429D01*
X11458928Y-14041000D01*
X11473214Y-13983857D01*
X11487500Y-13955286D01*
X11501786Y-13941000D01*
X11530357Y-13926714D01*
X11758928Y-14226714D02*
X11758928Y-14026714D01*
X11758928Y-14055286D02*
X11773214Y-14041000D01*
X11801786Y-14026714D01*
X11844643Y-14026714D01*
X11873214Y-14041000D01*
X11887500Y-14069571D01*
X11887500Y-14226714D01*
X11887500Y-14069571D02*
X11901786Y-14041000D01*
X11930357Y-14026714D01*
X11973214Y-14026714D01*
X12001786Y-14041000D01*
X12016071Y-14069571D01*
X12016071Y-14226714D01*
X12158928Y-14226714D02*
X12158928Y-14026714D01*
X12158928Y-14055286D02*
X12173214Y-14041000D01*
X12201786Y-14026714D01*
X12244643Y-14026714D01*
X12273214Y-14041000D01*
X12287500Y-14069571D01*
X12287500Y-14226714D01*
X12287500Y-14069571D02*
X12301786Y-14041000D01*
X12330357Y-14026714D01*
X12373214Y-14026714D01*
X12401786Y-14041000D01*
X12416071Y-14069571D01*
X12416071Y-14226714D01*
X13001786Y-13912429D02*
X12744643Y-14298143D01*
X13387500Y-13926714D02*
X13416071Y-13926714D01*
X13444643Y-13941000D01*
X13458928Y-13955286D01*
X13473214Y-13983857D01*
X13487500Y-14041000D01*
X13487500Y-14112429D01*
X13473214Y-14169571D01*
X13458928Y-14198143D01*
X13444643Y-14212429D01*
X13416071Y-14226714D01*
X13387500Y-14226714D01*
X13358928Y-14212429D01*
X13344643Y-14198143D01*
X13330357Y-14169571D01*
X13316071Y-14112429D01*
X13316071Y-14041000D01*
X13330357Y-13983857D01*
X13344643Y-13955286D01*
X13358928Y-13941000D01*
X13387500Y-13926714D01*
X13616071Y-14198143D02*
X13630357Y-14212429D01*
X13616071Y-14226714D01*
X13601786Y-14212429D01*
X13616071Y-14198143D01*
X13616071Y-14226714D01*
X13816071Y-13926714D02*
X13844643Y-13926714D01*
X13873214Y-13941000D01*
X13887500Y-13955286D01*
X13901786Y-13983857D01*
X13916071Y-14041000D01*
X13916071Y-14112429D01*
X13901786Y-14169571D01*
X13887500Y-14198143D01*
X13873214Y-14212429D01*
X13844643Y-14226714D01*
X13816071Y-14226714D01*
X13787500Y-14212429D01*
X13773214Y-14198143D01*
X13758928Y-14169571D01*
X13744643Y-14112429D01*
X13744643Y-14041000D01*
X13758928Y-13983857D01*
X13773214Y-13955286D01*
X13787500Y-13941000D01*
X13816071Y-13926714D01*
X14016071Y-13926714D02*
X14201786Y-13926714D01*
X14101786Y-14041000D01*
X14144643Y-14041000D01*
X14173214Y-14055286D01*
X14187500Y-14069571D01*
X14201786Y-14098143D01*
X14201786Y-14169571D01*
X14187500Y-14198143D01*
X14173214Y-14212429D01*
X14144643Y-14226714D01*
X14058928Y-14226714D01*
X14030357Y-14212429D01*
X14016071Y-14198143D01*
X14344643Y-14226714D02*
X14401786Y-14226714D01*
X14430357Y-14212429D01*
X14444643Y-14198143D01*
X14473214Y-14155286D01*
X14487500Y-14098143D01*
X14487500Y-13983857D01*
X14473214Y-13955286D01*
X14458928Y-13941000D01*
X14430357Y-13926714D01*
X14373214Y-13926714D01*
X14344643Y-13941000D01*
X14330357Y-13955286D01*
X14316071Y-13983857D01*
X14316071Y-14055286D01*
X14330357Y-14083857D01*
X14344643Y-14098143D01*
X14373214Y-14112429D01*
X14430357Y-14112429D01*
X14458928Y-14098143D01*
X14473214Y-14083857D01*
X14487500Y-14055286D01*
X14601786Y-13926714D02*
X14601786Y-13983857D01*
X14716071Y-13926714D02*
X14716071Y-13983857D01*
X15158928Y-14341000D02*
X15144643Y-14326714D01*
X15116071Y-14283857D01*
X15101786Y-14255286D01*
X15087500Y-14212429D01*
X15073214Y-14141000D01*
X15073214Y-14083857D01*
X15087500Y-14012429D01*
X15101786Y-13969571D01*
X15116071Y-13941000D01*
X15144643Y-13898143D01*
X15158928Y-13883857D01*
X15244643Y-13926714D02*
X15444643Y-13926714D01*
X15316071Y-14226714D01*
X15687500Y-14026714D02*
X15687500Y-14226714D01*
X15616071Y-13912429D02*
X15544643Y-14126714D01*
X15730357Y-14126714D01*
X16073214Y-14226714D02*
X16073214Y-13926714D01*
X16201786Y-14226714D02*
X16201786Y-14069571D01*
X16187500Y-14041000D01*
X16158928Y-14026714D01*
X16116071Y-14026714D01*
X16087500Y-14041000D01*
X16073214Y-14055286D01*
X16387500Y-14226714D02*
X16358928Y-14212429D01*
X16344643Y-14198143D01*
X16330357Y-14169571D01*
X16330357Y-14083857D01*
X16344643Y-14055286D01*
X16358928Y-14041000D01*
X16387500Y-14026714D01*
X16430357Y-14026714D01*
X16458928Y-14041000D01*
X16473214Y-14055286D01*
X16487500Y-14083857D01*
X16487500Y-14169571D01*
X16473214Y-14198143D01*
X16458928Y-14212429D01*
X16430357Y-14226714D01*
X16387500Y-14226714D01*
X16658928Y-14226714D02*
X16630357Y-14212429D01*
X16616071Y-14183857D01*
X16616071Y-13926714D01*
X16887500Y-14212429D02*
X16858928Y-14226714D01*
X16801786Y-14226714D01*
X16773214Y-14212429D01*
X16758928Y-14183857D01*
X16758928Y-14069571D01*
X16773214Y-14041000D01*
X16801786Y-14026714D01*
X16858928Y-14026714D01*
X16887500Y-14041000D01*
X16901786Y-14069571D01*
X16901786Y-14098143D01*
X16758928Y-14126714D01*
X17016071Y-14212429D02*
X17044643Y-14226714D01*
X17101786Y-14226714D01*
X17130357Y-14212429D01*
X17144643Y-14183857D01*
X17144643Y-14169571D01*
X17130357Y-14141000D01*
X17101786Y-14126714D01*
X17058928Y-14126714D01*
X17030357Y-14112429D01*
X17016071Y-14083857D01*
X17016071Y-14069571D01*
X17030357Y-14041000D01*
X17058928Y-14026714D01*
X17101786Y-14026714D01*
X17130357Y-14041000D01*
X17244643Y-14341000D02*
X17258928Y-14326714D01*
X17287500Y-14283857D01*
X17301786Y-14255286D01*
X17316071Y-14212429D01*
X17330357Y-14141000D01*
X17330357Y-14083857D01*
X17316071Y-14012429D01*
X17301786Y-13969571D01*
X17287500Y-13941000D01*
X17258928Y-13898143D01*
X17244643Y-13883857D01*
X10337500Y-14622000D02*
X10472500Y-14487000D01*
X10337500Y-14352000D01*
X10202500Y-14487000D01*
X10337500Y-14622000D01*
X10744643Y-14351286D02*
X10758928Y-14337000D01*
X10787500Y-14322714D01*
X10858928Y-14322714D01*
X10887500Y-14337000D01*
X10901786Y-14351286D01*
X10916071Y-14379857D01*
X10916071Y-14408429D01*
X10901786Y-14451286D01*
X10730357Y-14622714D01*
X10916071Y-14622714D01*
X11044643Y-14594143D02*
X11058928Y-14608429D01*
X11044643Y-14622714D01*
X11030357Y-14608429D01*
X11044643Y-14594143D01*
X11044643Y-14622714D01*
X11158928Y-14322714D02*
X11358928Y-14322714D01*
X11230357Y-14622714D01*
X11530357Y-14322714D02*
X11558928Y-14322714D01*
X11587500Y-14337000D01*
X11601786Y-14351286D01*
X11616071Y-14379857D01*
X11630357Y-14437000D01*
X11630357Y-14508429D01*
X11616071Y-14565571D01*
X11601786Y-14594143D01*
X11587500Y-14608429D01*
X11558928Y-14622714D01*
X11530357Y-14622714D01*
X11501786Y-14608429D01*
X11487500Y-14594143D01*
X11473214Y-14565571D01*
X11458928Y-14508429D01*
X11458928Y-14437000D01*
X11473214Y-14379857D01*
X11487500Y-14351286D01*
X11501786Y-14337000D01*
X11530357Y-14322714D01*
X11758928Y-14622714D02*
X11758928Y-14422714D01*
X11758928Y-14451286D02*
X11773214Y-14437000D01*
X11801786Y-14422714D01*
X11844643Y-14422714D01*
X11873214Y-14437000D01*
X11887500Y-14465571D01*
X11887500Y-14622714D01*
X11887500Y-14465571D02*
X11901786Y-14437000D01*
X11930357Y-14422714D01*
X11973214Y-14422714D01*
X12001786Y-14437000D01*
X12016071Y-14465571D01*
X12016071Y-14622714D01*
X12158928Y-14622714D02*
X12158928Y-14422714D01*
X12158928Y-14451286D02*
X12173214Y-14437000D01*
X12201786Y-14422714D01*
X12244643Y-14422714D01*
X12273214Y-14437000D01*
X12287500Y-14465571D01*
X12287500Y-14622714D01*
X12287500Y-14465571D02*
X12301786Y-14437000D01*
X12330357Y-14422714D01*
X12373214Y-14422714D01*
X12401786Y-14437000D01*
X12416071Y-14465571D01*
X12416071Y-14622714D01*
X13001786Y-14308429D02*
X12744643Y-14694143D01*
X13387500Y-14322714D02*
X13416071Y-14322714D01*
X13444643Y-14337000D01*
X13458928Y-14351286D01*
X13473214Y-14379857D01*
X13487500Y-14437000D01*
X13487500Y-14508429D01*
X13473214Y-14565571D01*
X13458928Y-14594143D01*
X13444643Y-14608429D01*
X13416071Y-14622714D01*
X13387500Y-14622714D01*
X13358928Y-14608429D01*
X13344643Y-14594143D01*
X13330357Y-14565571D01*
X13316071Y-14508429D01*
X13316071Y-14437000D01*
X13330357Y-14379857D01*
X13344643Y-14351286D01*
X13358928Y-14337000D01*
X13387500Y-14322714D01*
X13616071Y-14594143D02*
X13630357Y-14608429D01*
X13616071Y-14622714D01*
X13601786Y-14608429D01*
X13616071Y-14594143D01*
X13616071Y-14622714D01*
X13916071Y-14622714D02*
X13744643Y-14622714D01*
X13830357Y-14622714D02*
X13830357Y-14322714D01*
X13801786Y-14365571D01*
X13773214Y-14394143D01*
X13744643Y-14408429D01*
X14101786Y-14322714D02*
X14130357Y-14322714D01*
X14158928Y-14337000D01*
X14173214Y-14351286D01*
X14187500Y-14379857D01*
X14201786Y-14437000D01*
X14201786Y-14508429D01*
X14187500Y-14565571D01*
X14173214Y-14594143D01*
X14158928Y-14608429D01*
X14130357Y-14622714D01*
X14101786Y-14622714D01*
X14073214Y-14608429D01*
X14058928Y-14594143D01*
X14044643Y-14565571D01*
X14030357Y-14508429D01*
X14030357Y-14437000D01*
X14044643Y-14379857D01*
X14058928Y-14351286D01*
X14073214Y-14337000D01*
X14101786Y-14322714D01*
X14458928Y-14322714D02*
X14401786Y-14322714D01*
X14373214Y-14337000D01*
X14358928Y-14351286D01*
X14330357Y-14394143D01*
X14316071Y-14451286D01*
X14316071Y-14565571D01*
X14330357Y-14594143D01*
X14344643Y-14608429D01*
X14373214Y-14622714D01*
X14430357Y-14622714D01*
X14458928Y-14608429D01*
X14473214Y-14594143D01*
X14487500Y-14565571D01*
X14487500Y-14494143D01*
X14473214Y-14465571D01*
X14458928Y-14451286D01*
X14430357Y-14437000D01*
X14373214Y-14437000D01*
X14344643Y-14451286D01*
X14330357Y-14465571D01*
X14316071Y-14494143D01*
X14601786Y-14322714D02*
X14601786Y-14379857D01*
X14716071Y-14322714D02*
X14716071Y-14379857D01*
X15158928Y-14737000D02*
X15144643Y-14722714D01*
X15116071Y-14679857D01*
X15101786Y-14651286D01*
X15087500Y-14608429D01*
X15073214Y-14537000D01*
X15073214Y-14479857D01*
X15087500Y-14408429D01*
X15101786Y-14365571D01*
X15116071Y-14337000D01*
X15144643Y-14294143D01*
X15158928Y-14279857D01*
X15401786Y-14422714D02*
X15401786Y-14622714D01*
X15330357Y-14308429D02*
X15258928Y-14522714D01*
X15444643Y-14522714D01*
X15787500Y-14622714D02*
X15787500Y-14322714D01*
X15916071Y-14622714D02*
X15916071Y-14465571D01*
X15901786Y-14437000D01*
X15873214Y-14422714D01*
X15830357Y-14422714D01*
X15801786Y-14437000D01*
X15787500Y-14451286D01*
X16101786Y-14622714D02*
X16073214Y-14608429D01*
X16058928Y-14594143D01*
X16044643Y-14565571D01*
X16044643Y-14479857D01*
X16058928Y-14451286D01*
X16073214Y-14437000D01*
X16101786Y-14422714D01*
X16144643Y-14422714D01*
X16173214Y-14437000D01*
X16187500Y-14451286D01*
X16201786Y-14479857D01*
X16201786Y-14565571D01*
X16187500Y-14594143D01*
X16173214Y-14608429D01*
X16144643Y-14622714D01*
X16101786Y-14622714D01*
X16373214Y-14622714D02*
X16344643Y-14608429D01*
X16330357Y-14579857D01*
X16330357Y-14322714D01*
X16601786Y-14608429D02*
X16573214Y-14622714D01*
X16516071Y-14622714D01*
X16487500Y-14608429D01*
X16473214Y-14579857D01*
X16473214Y-14465571D01*
X16487500Y-14437000D01*
X16516071Y-14422714D01*
X16573214Y-14422714D01*
X16601786Y-14437000D01*
X16616071Y-14465571D01*
X16616071Y-14494143D01*
X16473214Y-14522714D01*
X16730357Y-14608429D02*
X16758928Y-14622714D01*
X16816071Y-14622714D01*
X16844643Y-14608429D01*
X16858928Y-14579857D01*
X16858928Y-14565571D01*
X16844643Y-14537000D01*
X16816071Y-14522714D01*
X16773214Y-14522714D01*
X16744643Y-14508429D01*
X16730357Y-14479857D01*
X16730357Y-14465571D01*
X16744643Y-14437000D01*
X16773214Y-14422714D01*
X16816071Y-14422714D01*
X16844643Y-14437000D01*
X16958928Y-14737000D02*
X16973214Y-14722714D01*
X17001786Y-14679857D01*
X17016071Y-14651286D01*
X17030357Y-14608429D01*
X17044643Y-14537000D01*
X17044643Y-14479857D01*
X17030357Y-14408429D01*
X17016071Y-14365571D01*
X17001786Y-14337000D01*
X16973214Y-14294143D01*
X16958928Y-14279857D01*
X17501786Y-14737000D02*
X17487500Y-14722714D01*
X17458928Y-14679857D01*
X17444643Y-14651286D01*
X17430357Y-14608429D01*
X17416071Y-14537000D01*
X17416071Y-14479857D01*
X17430357Y-14408429D01*
X17444643Y-14365571D01*
X17458928Y-14337000D01*
X17487500Y-14294143D01*
X17501786Y-14279857D01*
X17616071Y-14422714D02*
X17616071Y-14622714D01*
X17616071Y-14451286D02*
X17630357Y-14437000D01*
X17658928Y-14422714D01*
X17701786Y-14422714D01*
X17730357Y-14437000D01*
X17744643Y-14465571D01*
X17744643Y-14622714D01*
X17930357Y-14622714D02*
X17901786Y-14608429D01*
X17887500Y-14594143D01*
X17873214Y-14565571D01*
X17873214Y-14479857D01*
X17887500Y-14451286D01*
X17901786Y-14437000D01*
X17930357Y-14422714D01*
X17973214Y-14422714D01*
X18001786Y-14437000D01*
X18016071Y-14451286D01*
X18030357Y-14479857D01*
X18030357Y-14565571D01*
X18016071Y-14594143D01*
X18001786Y-14608429D01*
X17973214Y-14622714D01*
X17930357Y-14622714D01*
X18116071Y-14422714D02*
X18230357Y-14422714D01*
X18158928Y-14322714D02*
X18158928Y-14579857D01*
X18173214Y-14608429D01*
X18201786Y-14622714D01*
X18230357Y-14622714D01*
X18558928Y-14422714D02*
X18558928Y-14722714D01*
X18558928Y-14437000D02*
X18587500Y-14422714D01*
X18644643Y-14422714D01*
X18673214Y-14437000D01*
X18687500Y-14451286D01*
X18701786Y-14479857D01*
X18701786Y-14565571D01*
X18687500Y-14594143D01*
X18673214Y-14608429D01*
X18644643Y-14622714D01*
X18587500Y-14622714D01*
X18558928Y-14608429D01*
X18873214Y-14622714D02*
X18844643Y-14608429D01*
X18830357Y-14579857D01*
X18830357Y-14322714D01*
X19116071Y-14622714D02*
X19116071Y-14465571D01*
X19101786Y-14437000D01*
X19073214Y-14422714D01*
X19016071Y-14422714D01*
X18987500Y-14437000D01*
X19116071Y-14608429D02*
X19087500Y-14622714D01*
X19016071Y-14622714D01*
X18987500Y-14608429D01*
X18973214Y-14579857D01*
X18973214Y-14551286D01*
X18987500Y-14522714D01*
X19016071Y-14508429D01*
X19087500Y-14508429D01*
X19116071Y-14494143D01*
X19216071Y-14422714D02*
X19330357Y-14422714D01*
X19258928Y-14322714D02*
X19258928Y-14579857D01*
X19273214Y-14608429D01*
X19301786Y-14622714D01*
X19330357Y-14622714D01*
X19544643Y-14608429D02*
X19516071Y-14622714D01*
X19458928Y-14622714D01*
X19430357Y-14608429D01*
X19416071Y-14579857D01*
X19416071Y-14465571D01*
X19430357Y-14437000D01*
X19458928Y-14422714D01*
X19516071Y-14422714D01*
X19544643Y-14437000D01*
X19558928Y-14465571D01*
X19558928Y-14494143D01*
X19416071Y-14522714D01*
X19816071Y-14622714D02*
X19816071Y-14322714D01*
X19816071Y-14608429D02*
X19787500Y-14622714D01*
X19730357Y-14622714D01*
X19701786Y-14608429D01*
X19687500Y-14594143D01*
X19673214Y-14565571D01*
X19673214Y-14479857D01*
X19687500Y-14451286D01*
X19701786Y-14437000D01*
X19730357Y-14422714D01*
X19787500Y-14422714D01*
X19816071Y-14437000D01*
X19930357Y-14737000D02*
X19944643Y-14722714D01*
X19973214Y-14679857D01*
X19987500Y-14651286D01*
X20001786Y-14608429D01*
X20016071Y-14537000D01*
X20016071Y-14479857D01*
X20001786Y-14408429D01*
X19987500Y-14365571D01*
X19973214Y-14337000D01*
X19944643Y-14294143D01*
X19930357Y-14279857D01*
M02*
