G04 #@! TF.GenerationSoftware,KiCad,Pcbnew,(5.0.0-rc2-dev-444-g2974a2c10)*
G04 #@! TF.CreationDate,2019-04-27T15:19:08-07:00*
G04 #@! TF.ProjectId,ItsyBitsy breadboad,49747379426974737920627265616462,v01*
G04 #@! TF.SameCoordinates,Original*
G04 #@! TF.FileFunction,Copper,L2,Bot,Signal*
G04 #@! TF.FilePolarity,Positive*
%FSLAX46Y46*%
G04 Gerber Fmt 4.6, Leading zero omitted, Abs format (unit mm)*
G04 Created by KiCad (PCBNEW (5.0.0-rc2-dev-444-g2974a2c10)) date 04/27/19 15:19:08*
%MOMM*%
%LPD*%
G01*
G04 APERTURE LIST*
%ADD10R,1.700000X1.700000*%
%ADD11O,1.700000X1.700000*%
%ADD12R,1.700000X1.200000*%
%ADD13O,1.700000X1.200000*%
%ADD14C,0.685800*%
%ADD15C,1.016000*%
%ADD16C,0.152400*%
%ADD17C,0.254000*%
G04 APERTURE END LIST*
D10*
X111760000Y-115570000D03*
D11*
X114300000Y-115570000D03*
X116840000Y-115570000D03*
X119380000Y-115570000D03*
X121920000Y-115570000D03*
X124460000Y-115570000D03*
X127000000Y-115570000D03*
X129540000Y-115570000D03*
X132080000Y-115570000D03*
X134620000Y-115570000D03*
X137160000Y-115570000D03*
X139700000Y-115570000D03*
X142240000Y-115570000D03*
X144780000Y-115570000D03*
X147320000Y-115570000D03*
X149860000Y-115570000D03*
X152400000Y-115570000D03*
D10*
X111760000Y-100330000D03*
D11*
X114300000Y-100330000D03*
X116840000Y-100330000D03*
X119380000Y-100330000D03*
X121920000Y-100330000D03*
X124460000Y-100330000D03*
X127000000Y-100330000D03*
X129540000Y-100330000D03*
X132080000Y-100330000D03*
X134620000Y-100330000D03*
X137160000Y-100330000D03*
X139700000Y-100330000D03*
X142240000Y-100330000D03*
X144780000Y-100330000D03*
X147320000Y-100330000D03*
X149860000Y-100330000D03*
D12*
X157480000Y-114935000D03*
D13*
X157480000Y-112935000D03*
X157480000Y-110935000D03*
X157480000Y-108935000D03*
D12*
X157480000Y-102997000D03*
D13*
X157480000Y-100997000D03*
D11*
X152400000Y-110490000D03*
X152400000Y-107950000D03*
D10*
X152400000Y-105410000D03*
D11*
X144780000Y-102870000D03*
X144780000Y-105410000D03*
X144780000Y-107950000D03*
X144780000Y-110490000D03*
D10*
X144780000Y-113030000D03*
D11*
X152400000Y-118110000D03*
X149860000Y-118110000D03*
X147320000Y-118110000D03*
X144780000Y-118110000D03*
X142240000Y-118110000D03*
X139700000Y-118110000D03*
X137160000Y-118110000D03*
X134620000Y-118110000D03*
X132080000Y-118110000D03*
X129540000Y-118110000D03*
X127000000Y-118110000D03*
X124460000Y-118110000D03*
X121920000Y-118110000D03*
X119380000Y-118110000D03*
X116840000Y-118110000D03*
X114300000Y-118110000D03*
D10*
X111760000Y-118110000D03*
D11*
X149860000Y-97790000D03*
X147320000Y-97790000D03*
X144780000Y-97790000D03*
X142240000Y-97790000D03*
X139700000Y-97790000D03*
X137160000Y-97790000D03*
X134620000Y-97790000D03*
X132080000Y-97790000D03*
X129540000Y-97790000D03*
X127000000Y-97790000D03*
X124460000Y-97790000D03*
X121920000Y-97790000D03*
X119380000Y-97790000D03*
X116840000Y-97790000D03*
X114300000Y-97790000D03*
D10*
X111760000Y-97790000D03*
D14*
X111760000Y-103505000D03*
X111760000Y-112395000D03*
X142240000Y-105410000D03*
X142240000Y-111760000D03*
X159385000Y-100330000D03*
X159385000Y-115570000D03*
X154305000Y-116205000D03*
X154305000Y-99695000D03*
X130810000Y-113284000D03*
X130810000Y-101854000D03*
X143002000Y-109220000D03*
X147320000Y-109220000D03*
D15*
X120650000Y-102616000D03*
D16*
X143486933Y-109220000D02*
X147320000Y-109220000D01*
X143002000Y-109220000D02*
X143486933Y-109220000D01*
X137160000Y-99127919D02*
X137160000Y-97790000D01*
X137160000Y-100330000D02*
X137160000Y-99127919D01*
X139700000Y-100330000D02*
X139700000Y-97790000D01*
D17*
X140462000Y-111760000D02*
X116459000Y-111760000D01*
X116459000Y-111760000D02*
X114300000Y-113919000D01*
X148590000Y-110490000D02*
X147701000Y-111379000D01*
X152400000Y-110490000D02*
X148590000Y-110490000D01*
X147701000Y-111379000D02*
X147701000Y-113538000D01*
X147701000Y-113538000D02*
X146939000Y-114300000D01*
X146939000Y-114300000D02*
X143002000Y-114300000D01*
X114300000Y-113919000D02*
X114300000Y-115570000D01*
X143002000Y-114300000D02*
X140462000Y-111760000D01*
X114300000Y-115570000D02*
X114300000Y-118110000D01*
D16*
X111760000Y-115570000D02*
X111760000Y-118110000D01*
X116840000Y-116772081D02*
X116840000Y-118110000D01*
X116840000Y-115570000D02*
X116840000Y-116772081D01*
X119380000Y-115570000D02*
X119380000Y-118110000D01*
X121920000Y-116772081D02*
X121920000Y-118110000D01*
X121920000Y-115570000D02*
X121920000Y-116772081D01*
X124460000Y-115570000D02*
X124460000Y-118110000D01*
X127000000Y-115570000D02*
X127000000Y-118110000D01*
X129540000Y-115570000D02*
X129540000Y-118110000D01*
X132080000Y-115570000D02*
X132080000Y-118110000D01*
X134620000Y-115570000D02*
X134620000Y-118110000D01*
X137160000Y-115570000D02*
X137160000Y-118110000D01*
X139700000Y-115570000D02*
X139700000Y-118110000D01*
X142240000Y-115570000D02*
X142240000Y-118110000D01*
X144780000Y-115570000D02*
X144780000Y-118110000D01*
X147320000Y-118110000D02*
X147320000Y-115570000D01*
X149860000Y-118110000D02*
X149860000Y-115570000D01*
X152400000Y-118110000D02*
X152400000Y-115570000D01*
X149860000Y-100330000D02*
X149860000Y-97790000D01*
X147320000Y-100330000D02*
X147320000Y-97790000D01*
X144780000Y-100330000D02*
X144780000Y-97790000D01*
X142240000Y-100330000D02*
X142240000Y-97790000D01*
X134620000Y-100330000D02*
X134620000Y-97790000D01*
X132080000Y-100330000D02*
X132080000Y-97790000D01*
X129540000Y-100330000D02*
X129540000Y-97790000D01*
X127000000Y-100330000D02*
X127000000Y-97790000D01*
X124460000Y-100330000D02*
X124460000Y-97790000D01*
X121920000Y-100330000D02*
X121920000Y-97790000D01*
X119380000Y-100330000D02*
X119380000Y-97790000D01*
D17*
X116840000Y-103505000D02*
X116840000Y-100330000D01*
X117475000Y-104140000D02*
X116840000Y-103505000D01*
X147320000Y-104140000D02*
X117475000Y-104140000D01*
X152400000Y-105410000D02*
X148590000Y-105410000D01*
X148590000Y-105410000D02*
X147320000Y-104140000D01*
X116840000Y-100330000D02*
X116840000Y-97790000D01*
X157480000Y-102997000D02*
X156376000Y-102997000D01*
X156376000Y-102997000D02*
X148717000Y-102997000D01*
X148717000Y-102997000D02*
X147320000Y-101600000D01*
X147320000Y-101600000D02*
X143510000Y-101600000D01*
X143510000Y-101600000D02*
X142494000Y-102616000D01*
X120650000Y-102616000D02*
X142494000Y-102616000D01*
X111760000Y-100330000D02*
X111760000Y-97790000D01*
D16*
X156020000Y-110935000D02*
X157480000Y-110935000D01*
X155448000Y-110363000D02*
X156020000Y-110935000D01*
X155448000Y-108458000D02*
X155448000Y-110363000D01*
X152400000Y-107950000D02*
X154940000Y-107950000D01*
X154940000Y-107950000D02*
X155448000Y-108458000D01*
D17*
G36*
X148700424Y-97309688D02*
X148604884Y-97790000D01*
X148700424Y-98270312D01*
X148972499Y-98677501D01*
X149379688Y-98949576D01*
X149402801Y-98954173D01*
X149402800Y-99165827D01*
X149379688Y-99170424D01*
X148972499Y-99442499D01*
X148700424Y-99849688D01*
X148604884Y-100330000D01*
X148700424Y-100810312D01*
X148972499Y-101217501D01*
X149379688Y-101489576D01*
X149738761Y-101561000D01*
X149981239Y-101561000D01*
X150340312Y-101489576D01*
X150747501Y-101217501D01*
X151019576Y-100810312D01*
X151045617Y-100679391D01*
X156036538Y-100679391D01*
X156161269Y-100870000D01*
X157353000Y-100870000D01*
X157353000Y-99914453D01*
X157607000Y-99914453D01*
X157607000Y-100870000D01*
X158798731Y-100870000D01*
X158923462Y-100679391D01*
X158908286Y-100587624D01*
X158661933Y-100167875D01*
X158273701Y-99874353D01*
X157802696Y-99751744D01*
X157607000Y-99914453D01*
X157353000Y-99914453D01*
X157157304Y-99751744D01*
X156686299Y-99874353D01*
X156298067Y-100167875D01*
X156051714Y-100587624D01*
X156036538Y-100679391D01*
X151045617Y-100679391D01*
X151115116Y-100330000D01*
X151019576Y-99849688D01*
X150747501Y-99442499D01*
X150340312Y-99170424D01*
X150317200Y-99165827D01*
X150317200Y-98954173D01*
X150340312Y-98949576D01*
X150747501Y-98677501D01*
X151019576Y-98270312D01*
X151115116Y-97790000D01*
X151019576Y-97309688D01*
X151001075Y-97282000D01*
X159967394Y-97282000D01*
X160528000Y-97842606D01*
X160528000Y-118057394D01*
X159967394Y-118618000D01*
X153541075Y-118618000D01*
X153559576Y-118590312D01*
X153655116Y-118110000D01*
X153559576Y-117629688D01*
X153287501Y-117222499D01*
X152880312Y-116950424D01*
X152857200Y-116945827D01*
X152857200Y-116734173D01*
X152880312Y-116729576D01*
X153287501Y-116457501D01*
X153559576Y-116050312D01*
X153655116Y-115570000D01*
X153559576Y-115089688D01*
X153287501Y-114682499D01*
X152880312Y-114410424D01*
X152521239Y-114339000D01*
X152278761Y-114339000D01*
X151919688Y-114410424D01*
X151512499Y-114682499D01*
X151240424Y-115089688D01*
X151144884Y-115570000D01*
X151240424Y-116050312D01*
X151512499Y-116457501D01*
X151919688Y-116729576D01*
X151942801Y-116734173D01*
X151942800Y-116945827D01*
X151919688Y-116950424D01*
X151512499Y-117222499D01*
X151240424Y-117629688D01*
X151144884Y-118110000D01*
X151240424Y-118590312D01*
X151258925Y-118618000D01*
X151001075Y-118618000D01*
X151019576Y-118590312D01*
X151115116Y-118110000D01*
X151019576Y-117629688D01*
X150747501Y-117222499D01*
X150340312Y-116950424D01*
X150317200Y-116945827D01*
X150317200Y-116734173D01*
X150340312Y-116729576D01*
X150747501Y-116457501D01*
X151019576Y-116050312D01*
X151115116Y-115570000D01*
X151019576Y-115089688D01*
X150747501Y-114682499D01*
X150340312Y-114410424D01*
X149981239Y-114339000D01*
X149738761Y-114339000D01*
X149379688Y-114410424D01*
X148972499Y-114682499D01*
X148700424Y-115089688D01*
X148604884Y-115570000D01*
X148700424Y-116050312D01*
X148972499Y-116457501D01*
X149379688Y-116729576D01*
X149402801Y-116734173D01*
X149402800Y-116945827D01*
X149379688Y-116950424D01*
X148972499Y-117222499D01*
X148700424Y-117629688D01*
X148604884Y-118110000D01*
X148700424Y-118590312D01*
X148718925Y-118618000D01*
X148461075Y-118618000D01*
X148479576Y-118590312D01*
X148575116Y-118110000D01*
X148479576Y-117629688D01*
X148207501Y-117222499D01*
X147800312Y-116950424D01*
X147777200Y-116945827D01*
X147777200Y-116734173D01*
X147800312Y-116729576D01*
X148207501Y-116457501D01*
X148479576Y-116050312D01*
X148575116Y-115570000D01*
X148479576Y-115089688D01*
X148207501Y-114682499D01*
X147800312Y-114410424D01*
X147589024Y-114368396D01*
X147622420Y-114335000D01*
X156241536Y-114335000D01*
X156241536Y-115535000D01*
X156271106Y-115683659D01*
X156355314Y-115809686D01*
X156481341Y-115893894D01*
X156630000Y-115923464D01*
X158330000Y-115923464D01*
X158478659Y-115893894D01*
X158604686Y-115809686D01*
X158688894Y-115683659D01*
X158718464Y-115535000D01*
X158718464Y-114335000D01*
X158688894Y-114186341D01*
X158604686Y-114060314D01*
X158478659Y-113976106D01*
X158330000Y-113946536D01*
X156630000Y-113946536D01*
X156481341Y-113976106D01*
X156355314Y-114060314D01*
X156271106Y-114186341D01*
X156241536Y-114335000D01*
X147622420Y-114335000D01*
X148024835Y-113932586D01*
X148067247Y-113904247D01*
X148095586Y-113861835D01*
X148095588Y-113861833D01*
X148179525Y-113736212D01*
X148183055Y-113718464D01*
X148209000Y-113588032D01*
X148209000Y-113588028D01*
X148218951Y-113538000D01*
X148209000Y-113487972D01*
X148209000Y-112935000D01*
X156229782Y-112935000D01*
X156305919Y-113317767D01*
X156522739Y-113642261D01*
X156847233Y-113859081D01*
X157133384Y-113916000D01*
X157826616Y-113916000D01*
X158112767Y-113859081D01*
X158437261Y-113642261D01*
X158654081Y-113317767D01*
X158730218Y-112935000D01*
X158654081Y-112552233D01*
X158437261Y-112227739D01*
X158112767Y-112010919D01*
X157826616Y-111954000D01*
X157133384Y-111954000D01*
X156847233Y-112010919D01*
X156522739Y-112227739D01*
X156305919Y-112552233D01*
X156229782Y-112935000D01*
X148209000Y-112935000D01*
X148209000Y-111589420D01*
X148800421Y-110998000D01*
X151258925Y-110998000D01*
X151512499Y-111377501D01*
X151919688Y-111649576D01*
X152278761Y-111721000D01*
X152521239Y-111721000D01*
X152880312Y-111649576D01*
X153287501Y-111377501D01*
X153559576Y-110970312D01*
X153655116Y-110490000D01*
X153559576Y-110009688D01*
X153287501Y-109602499D01*
X152880312Y-109330424D01*
X152521239Y-109259000D01*
X152278761Y-109259000D01*
X151919688Y-109330424D01*
X151512499Y-109602499D01*
X151258925Y-109982000D01*
X148640028Y-109982000D01*
X148590000Y-109972049D01*
X148539972Y-109982000D01*
X148539968Y-109982000D01*
X148400772Y-110009688D01*
X148391788Y-110011475D01*
X148266167Y-110095412D01*
X148266165Y-110095414D01*
X148223753Y-110123753D01*
X148195414Y-110166165D01*
X147377168Y-110984412D01*
X147334753Y-111012753D01*
X147306413Y-111055167D01*
X147306412Y-111055168D01*
X147267509Y-111113391D01*
X147222475Y-111180789D01*
X147193000Y-111328969D01*
X147193000Y-111328972D01*
X147183049Y-111379000D01*
X147193000Y-111429028D01*
X147193001Y-113327578D01*
X146728580Y-113792000D01*
X146018464Y-113792000D01*
X146018464Y-112180000D01*
X145988894Y-112031341D01*
X145904686Y-111905314D01*
X145778659Y-111821106D01*
X145630000Y-111791536D01*
X143930000Y-111791536D01*
X143781341Y-111821106D01*
X143655314Y-111905314D01*
X143571106Y-112031341D01*
X143541536Y-112180000D01*
X143541536Y-113792000D01*
X143212420Y-113792000D01*
X140856588Y-111436168D01*
X140828247Y-111393753D01*
X140660212Y-111281475D01*
X140512032Y-111252000D01*
X140512028Y-111252000D01*
X140462000Y-111242049D01*
X140411972Y-111252000D01*
X116509027Y-111252000D01*
X116458999Y-111242049D01*
X116408971Y-111252000D01*
X116408968Y-111252000D01*
X116260788Y-111281475D01*
X116135167Y-111365412D01*
X116135165Y-111365414D01*
X116092753Y-111393753D01*
X116064414Y-111436165D01*
X113976168Y-113524412D01*
X113933753Y-113552753D01*
X113821475Y-113720789D01*
X113792000Y-113868969D01*
X113792000Y-113868972D01*
X113782049Y-113919000D01*
X113792000Y-113969028D01*
X113792000Y-114428924D01*
X113412499Y-114682499D01*
X113140424Y-115089688D01*
X113044884Y-115570000D01*
X113140424Y-116050312D01*
X113412499Y-116457501D01*
X113792000Y-116711076D01*
X113792001Y-116968924D01*
X113412499Y-117222499D01*
X113140424Y-117629688D01*
X113044884Y-118110000D01*
X113140424Y-118590312D01*
X113158925Y-118618000D01*
X112998464Y-118618000D01*
X112998464Y-117260000D01*
X112968894Y-117111341D01*
X112884686Y-116985314D01*
X112758659Y-116901106D01*
X112610000Y-116871536D01*
X112217200Y-116871536D01*
X112217200Y-116808464D01*
X112610000Y-116808464D01*
X112758659Y-116778894D01*
X112884686Y-116694686D01*
X112968894Y-116568659D01*
X112998464Y-116420000D01*
X112998464Y-114720000D01*
X112968894Y-114571341D01*
X112884686Y-114445314D01*
X112758659Y-114361106D01*
X112610000Y-114331536D01*
X110910000Y-114331536D01*
X110761341Y-114361106D01*
X110635314Y-114445314D01*
X110617000Y-114472723D01*
X110617000Y-109076007D01*
X142278100Y-109076007D01*
X142278100Y-109363993D01*
X142388307Y-109630056D01*
X142591944Y-109833693D01*
X142858007Y-109943900D01*
X143145993Y-109943900D01*
X143412056Y-109833693D01*
X143568549Y-109677200D01*
X143842585Y-109677200D01*
X143620424Y-110009688D01*
X143524884Y-110490000D01*
X143620424Y-110970312D01*
X143892499Y-111377501D01*
X144299688Y-111649576D01*
X144658761Y-111721000D01*
X144901239Y-111721000D01*
X145260312Y-111649576D01*
X145667501Y-111377501D01*
X145939576Y-110970312D01*
X146035116Y-110490000D01*
X145939576Y-110009688D01*
X145717415Y-109677200D01*
X146753451Y-109677200D01*
X146909944Y-109833693D01*
X147176007Y-109943900D01*
X147463993Y-109943900D01*
X147730056Y-109833693D01*
X147933693Y-109630056D01*
X148043900Y-109363993D01*
X148043900Y-109076007D01*
X147933693Y-108809944D01*
X147730056Y-108606307D01*
X147463993Y-108496100D01*
X147176007Y-108496100D01*
X146909944Y-108606307D01*
X146753451Y-108762800D01*
X145717415Y-108762800D01*
X145939576Y-108430312D01*
X146035116Y-107950000D01*
X151144884Y-107950000D01*
X151240424Y-108430312D01*
X151512499Y-108837501D01*
X151919688Y-109109576D01*
X152278761Y-109181000D01*
X152521239Y-109181000D01*
X152880312Y-109109576D01*
X153287501Y-108837501D01*
X153559576Y-108430312D01*
X153564173Y-108407200D01*
X154750622Y-108407200D01*
X154990800Y-108647378D01*
X154990801Y-110317965D01*
X154981843Y-110363000D01*
X155017327Y-110541390D01*
X155017328Y-110541391D01*
X155118378Y-110692623D01*
X155156552Y-110718130D01*
X155664870Y-111226449D01*
X155690377Y-111264623D01*
X155728551Y-111290130D01*
X155841609Y-111365673D01*
X156019999Y-111401157D01*
X156065029Y-111392200D01*
X156355654Y-111392200D01*
X156522739Y-111642261D01*
X156847233Y-111859081D01*
X157133384Y-111916000D01*
X157826616Y-111916000D01*
X158112767Y-111859081D01*
X158437261Y-111642261D01*
X158654081Y-111317767D01*
X158730218Y-110935000D01*
X158654081Y-110552233D01*
X158437261Y-110227739D01*
X158208213Y-110074694D01*
X158273701Y-110057647D01*
X158661933Y-109764125D01*
X158908286Y-109344376D01*
X158923462Y-109252609D01*
X158798731Y-109062000D01*
X157607000Y-109062000D01*
X157607000Y-109082000D01*
X157353000Y-109082000D01*
X157353000Y-109062000D01*
X156161269Y-109062000D01*
X156036538Y-109252609D01*
X156051714Y-109344376D01*
X156298067Y-109764125D01*
X156686299Y-110057647D01*
X156751787Y-110074694D01*
X156522739Y-110227739D01*
X156355654Y-110477800D01*
X156209379Y-110477800D01*
X155905200Y-110173622D01*
X155905200Y-108617391D01*
X156036538Y-108617391D01*
X156161269Y-108808000D01*
X157353000Y-108808000D01*
X157353000Y-107852453D01*
X157607000Y-107852453D01*
X157607000Y-108808000D01*
X158798731Y-108808000D01*
X158923462Y-108617391D01*
X158908286Y-108525624D01*
X158661933Y-108105875D01*
X158273701Y-107812353D01*
X157802696Y-107689744D01*
X157607000Y-107852453D01*
X157353000Y-107852453D01*
X157157304Y-107689744D01*
X156686299Y-107812353D01*
X156298067Y-108105875D01*
X156051714Y-108525624D01*
X156036538Y-108617391D01*
X155905200Y-108617391D01*
X155905200Y-108503024D01*
X155914156Y-108457999D01*
X155905200Y-108412974D01*
X155905200Y-108412970D01*
X155878673Y-108279609D01*
X155777623Y-108128377D01*
X155739446Y-108102868D01*
X155295132Y-107658554D01*
X155269623Y-107620377D01*
X155118391Y-107519327D01*
X154985030Y-107492800D01*
X154940000Y-107483843D01*
X154894970Y-107492800D01*
X153564173Y-107492800D01*
X153559576Y-107469688D01*
X153287501Y-107062499D01*
X152880312Y-106790424D01*
X152521239Y-106719000D01*
X152278761Y-106719000D01*
X151919688Y-106790424D01*
X151512499Y-107062499D01*
X151240424Y-107469688D01*
X151144884Y-107950000D01*
X146035116Y-107950000D01*
X145939576Y-107469688D01*
X145667501Y-107062499D01*
X145260312Y-106790424D01*
X144901239Y-106719000D01*
X144658761Y-106719000D01*
X144299688Y-106790424D01*
X143892499Y-107062499D01*
X143620424Y-107469688D01*
X143524884Y-107950000D01*
X143620424Y-108430312D01*
X143842585Y-108762800D01*
X143568549Y-108762800D01*
X143412056Y-108606307D01*
X143145993Y-108496100D01*
X142858007Y-108496100D01*
X142591944Y-108606307D01*
X142388307Y-108809944D01*
X142278100Y-109076007D01*
X110617000Y-109076007D01*
X110617000Y-101427277D01*
X110635314Y-101454686D01*
X110761341Y-101538894D01*
X110910000Y-101568464D01*
X112610000Y-101568464D01*
X112758659Y-101538894D01*
X112884686Y-101454686D01*
X112968894Y-101328659D01*
X112998464Y-101180000D01*
X112998464Y-100984895D01*
X113104817Y-101211358D01*
X113533076Y-101601645D01*
X113943110Y-101771476D01*
X114173000Y-101650155D01*
X114173000Y-100457000D01*
X114153000Y-100457000D01*
X114153000Y-100203000D01*
X114173000Y-100203000D01*
X114173000Y-97917000D01*
X114153000Y-97917000D01*
X114153000Y-97663000D01*
X114173000Y-97663000D01*
X114173000Y-97643000D01*
X114427000Y-97643000D01*
X114427000Y-97663000D01*
X114447000Y-97663000D01*
X114447000Y-97917000D01*
X114427000Y-97917000D01*
X114427000Y-100203000D01*
X114447000Y-100203000D01*
X114447000Y-100457000D01*
X114427000Y-100457000D01*
X114427000Y-101650155D01*
X114656890Y-101771476D01*
X115066924Y-101601645D01*
X115495183Y-101211358D01*
X115682245Y-100813037D01*
X115952499Y-101217501D01*
X116332001Y-101471076D01*
X116332000Y-103454972D01*
X116322049Y-103505000D01*
X116332000Y-103555028D01*
X116332000Y-103555031D01*
X116361475Y-103703211D01*
X116473753Y-103871247D01*
X116516168Y-103899588D01*
X117080414Y-104463835D01*
X117108753Y-104506247D01*
X117151165Y-104534586D01*
X117151167Y-104534588D01*
X117216286Y-104578098D01*
X117276788Y-104618525D01*
X117424968Y-104648000D01*
X117424972Y-104648000D01*
X117475000Y-104657951D01*
X117525028Y-104648000D01*
X143808642Y-104648000D01*
X143620424Y-104929688D01*
X143524884Y-105410000D01*
X143620424Y-105890312D01*
X143892499Y-106297501D01*
X144299688Y-106569576D01*
X144658761Y-106641000D01*
X144901239Y-106641000D01*
X145260312Y-106569576D01*
X145667501Y-106297501D01*
X145939576Y-105890312D01*
X146035116Y-105410000D01*
X145939576Y-104929688D01*
X145751358Y-104648000D01*
X147109580Y-104648000D01*
X148195414Y-105733835D01*
X148223753Y-105776247D01*
X148266165Y-105804586D01*
X148266167Y-105804588D01*
X148391788Y-105888525D01*
X148539968Y-105918000D01*
X148539971Y-105918000D01*
X148589999Y-105927951D01*
X148640027Y-105918000D01*
X151161536Y-105918000D01*
X151161536Y-106260000D01*
X151191106Y-106408659D01*
X151275314Y-106534686D01*
X151401341Y-106618894D01*
X151550000Y-106648464D01*
X153250000Y-106648464D01*
X153398659Y-106618894D01*
X153524686Y-106534686D01*
X153608894Y-106408659D01*
X153638464Y-106260000D01*
X153638464Y-104560000D01*
X153608894Y-104411341D01*
X153524686Y-104285314D01*
X153398659Y-104201106D01*
X153250000Y-104171536D01*
X151550000Y-104171536D01*
X151401341Y-104201106D01*
X151275314Y-104285314D01*
X151191106Y-104411341D01*
X151161536Y-104560000D01*
X151161536Y-104902000D01*
X148800421Y-104902000D01*
X147714587Y-103816167D01*
X147686247Y-103773753D01*
X147518212Y-103661475D01*
X147370032Y-103632000D01*
X147370028Y-103632000D01*
X147320000Y-103622049D01*
X147269972Y-103632000D01*
X145751358Y-103632000D01*
X145939576Y-103350312D01*
X146035116Y-102870000D01*
X145939576Y-102389688D01*
X145751358Y-102108000D01*
X147109580Y-102108000D01*
X148322412Y-103320832D01*
X148350753Y-103363247D01*
X148518788Y-103475525D01*
X148666968Y-103505000D01*
X148666971Y-103505000D01*
X148716999Y-103514951D01*
X148767027Y-103505000D01*
X156241536Y-103505000D01*
X156241536Y-103597000D01*
X156271106Y-103745659D01*
X156355314Y-103871686D01*
X156481341Y-103955894D01*
X156630000Y-103985464D01*
X158330000Y-103985464D01*
X158478659Y-103955894D01*
X158604686Y-103871686D01*
X158688894Y-103745659D01*
X158718464Y-103597000D01*
X158718464Y-102397000D01*
X158688894Y-102248341D01*
X158604686Y-102122314D01*
X158478659Y-102038106D01*
X158401779Y-102022814D01*
X158661933Y-101826125D01*
X158908286Y-101406376D01*
X158923462Y-101314609D01*
X158798731Y-101124000D01*
X157607000Y-101124000D01*
X157607000Y-101144000D01*
X157353000Y-101144000D01*
X157353000Y-101124000D01*
X156161269Y-101124000D01*
X156036538Y-101314609D01*
X156051714Y-101406376D01*
X156298067Y-101826125D01*
X156558221Y-102022814D01*
X156481341Y-102038106D01*
X156355314Y-102122314D01*
X156271106Y-102248341D01*
X156241536Y-102397000D01*
X156241536Y-102489000D01*
X148927420Y-102489000D01*
X147876853Y-101438433D01*
X148207501Y-101217501D01*
X148479576Y-100810312D01*
X148575116Y-100330000D01*
X148479576Y-99849688D01*
X148207501Y-99442499D01*
X147800312Y-99170424D01*
X147777200Y-99165827D01*
X147777200Y-98954173D01*
X147800312Y-98949576D01*
X148207501Y-98677501D01*
X148479576Y-98270312D01*
X148575116Y-97790000D01*
X148479576Y-97309688D01*
X148461075Y-97282000D01*
X148718925Y-97282000D01*
X148700424Y-97309688D01*
X148700424Y-97309688D01*
G37*
X148700424Y-97309688D02*
X148604884Y-97790000D01*
X148700424Y-98270312D01*
X148972499Y-98677501D01*
X149379688Y-98949576D01*
X149402801Y-98954173D01*
X149402800Y-99165827D01*
X149379688Y-99170424D01*
X148972499Y-99442499D01*
X148700424Y-99849688D01*
X148604884Y-100330000D01*
X148700424Y-100810312D01*
X148972499Y-101217501D01*
X149379688Y-101489576D01*
X149738761Y-101561000D01*
X149981239Y-101561000D01*
X150340312Y-101489576D01*
X150747501Y-101217501D01*
X151019576Y-100810312D01*
X151045617Y-100679391D01*
X156036538Y-100679391D01*
X156161269Y-100870000D01*
X157353000Y-100870000D01*
X157353000Y-99914453D01*
X157607000Y-99914453D01*
X157607000Y-100870000D01*
X158798731Y-100870000D01*
X158923462Y-100679391D01*
X158908286Y-100587624D01*
X158661933Y-100167875D01*
X158273701Y-99874353D01*
X157802696Y-99751744D01*
X157607000Y-99914453D01*
X157353000Y-99914453D01*
X157157304Y-99751744D01*
X156686299Y-99874353D01*
X156298067Y-100167875D01*
X156051714Y-100587624D01*
X156036538Y-100679391D01*
X151045617Y-100679391D01*
X151115116Y-100330000D01*
X151019576Y-99849688D01*
X150747501Y-99442499D01*
X150340312Y-99170424D01*
X150317200Y-99165827D01*
X150317200Y-98954173D01*
X150340312Y-98949576D01*
X150747501Y-98677501D01*
X151019576Y-98270312D01*
X151115116Y-97790000D01*
X151019576Y-97309688D01*
X151001075Y-97282000D01*
X159967394Y-97282000D01*
X160528000Y-97842606D01*
X160528000Y-118057394D01*
X159967394Y-118618000D01*
X153541075Y-118618000D01*
X153559576Y-118590312D01*
X153655116Y-118110000D01*
X153559576Y-117629688D01*
X153287501Y-117222499D01*
X152880312Y-116950424D01*
X152857200Y-116945827D01*
X152857200Y-116734173D01*
X152880312Y-116729576D01*
X153287501Y-116457501D01*
X153559576Y-116050312D01*
X153655116Y-115570000D01*
X153559576Y-115089688D01*
X153287501Y-114682499D01*
X152880312Y-114410424D01*
X152521239Y-114339000D01*
X152278761Y-114339000D01*
X151919688Y-114410424D01*
X151512499Y-114682499D01*
X151240424Y-115089688D01*
X151144884Y-115570000D01*
X151240424Y-116050312D01*
X151512499Y-116457501D01*
X151919688Y-116729576D01*
X151942801Y-116734173D01*
X151942800Y-116945827D01*
X151919688Y-116950424D01*
X151512499Y-117222499D01*
X151240424Y-117629688D01*
X151144884Y-118110000D01*
X151240424Y-118590312D01*
X151258925Y-118618000D01*
X151001075Y-118618000D01*
X151019576Y-118590312D01*
X151115116Y-118110000D01*
X151019576Y-117629688D01*
X150747501Y-117222499D01*
X150340312Y-116950424D01*
X150317200Y-116945827D01*
X150317200Y-116734173D01*
X150340312Y-116729576D01*
X150747501Y-116457501D01*
X151019576Y-116050312D01*
X151115116Y-115570000D01*
X151019576Y-115089688D01*
X150747501Y-114682499D01*
X150340312Y-114410424D01*
X149981239Y-114339000D01*
X149738761Y-114339000D01*
X149379688Y-114410424D01*
X148972499Y-114682499D01*
X148700424Y-115089688D01*
X148604884Y-115570000D01*
X148700424Y-116050312D01*
X148972499Y-116457501D01*
X149379688Y-116729576D01*
X149402801Y-116734173D01*
X149402800Y-116945827D01*
X149379688Y-116950424D01*
X148972499Y-117222499D01*
X148700424Y-117629688D01*
X148604884Y-118110000D01*
X148700424Y-118590312D01*
X148718925Y-118618000D01*
X148461075Y-118618000D01*
X148479576Y-118590312D01*
X148575116Y-118110000D01*
X148479576Y-117629688D01*
X148207501Y-117222499D01*
X147800312Y-116950424D01*
X147777200Y-116945827D01*
X147777200Y-116734173D01*
X147800312Y-116729576D01*
X148207501Y-116457501D01*
X148479576Y-116050312D01*
X148575116Y-115570000D01*
X148479576Y-115089688D01*
X148207501Y-114682499D01*
X147800312Y-114410424D01*
X147589024Y-114368396D01*
X147622420Y-114335000D01*
X156241536Y-114335000D01*
X156241536Y-115535000D01*
X156271106Y-115683659D01*
X156355314Y-115809686D01*
X156481341Y-115893894D01*
X156630000Y-115923464D01*
X158330000Y-115923464D01*
X158478659Y-115893894D01*
X158604686Y-115809686D01*
X158688894Y-115683659D01*
X158718464Y-115535000D01*
X158718464Y-114335000D01*
X158688894Y-114186341D01*
X158604686Y-114060314D01*
X158478659Y-113976106D01*
X158330000Y-113946536D01*
X156630000Y-113946536D01*
X156481341Y-113976106D01*
X156355314Y-114060314D01*
X156271106Y-114186341D01*
X156241536Y-114335000D01*
X147622420Y-114335000D01*
X148024835Y-113932586D01*
X148067247Y-113904247D01*
X148095586Y-113861835D01*
X148095588Y-113861833D01*
X148179525Y-113736212D01*
X148183055Y-113718464D01*
X148209000Y-113588032D01*
X148209000Y-113588028D01*
X148218951Y-113538000D01*
X148209000Y-113487972D01*
X148209000Y-112935000D01*
X156229782Y-112935000D01*
X156305919Y-113317767D01*
X156522739Y-113642261D01*
X156847233Y-113859081D01*
X157133384Y-113916000D01*
X157826616Y-113916000D01*
X158112767Y-113859081D01*
X158437261Y-113642261D01*
X158654081Y-113317767D01*
X158730218Y-112935000D01*
X158654081Y-112552233D01*
X158437261Y-112227739D01*
X158112767Y-112010919D01*
X157826616Y-111954000D01*
X157133384Y-111954000D01*
X156847233Y-112010919D01*
X156522739Y-112227739D01*
X156305919Y-112552233D01*
X156229782Y-112935000D01*
X148209000Y-112935000D01*
X148209000Y-111589420D01*
X148800421Y-110998000D01*
X151258925Y-110998000D01*
X151512499Y-111377501D01*
X151919688Y-111649576D01*
X152278761Y-111721000D01*
X152521239Y-111721000D01*
X152880312Y-111649576D01*
X153287501Y-111377501D01*
X153559576Y-110970312D01*
X153655116Y-110490000D01*
X153559576Y-110009688D01*
X153287501Y-109602499D01*
X152880312Y-109330424D01*
X152521239Y-109259000D01*
X152278761Y-109259000D01*
X151919688Y-109330424D01*
X151512499Y-109602499D01*
X151258925Y-109982000D01*
X148640028Y-109982000D01*
X148590000Y-109972049D01*
X148539972Y-109982000D01*
X148539968Y-109982000D01*
X148400772Y-110009688D01*
X148391788Y-110011475D01*
X148266167Y-110095412D01*
X148266165Y-110095414D01*
X148223753Y-110123753D01*
X148195414Y-110166165D01*
X147377168Y-110984412D01*
X147334753Y-111012753D01*
X147306413Y-111055167D01*
X147306412Y-111055168D01*
X147267509Y-111113391D01*
X147222475Y-111180789D01*
X147193000Y-111328969D01*
X147193000Y-111328972D01*
X147183049Y-111379000D01*
X147193000Y-111429028D01*
X147193001Y-113327578D01*
X146728580Y-113792000D01*
X146018464Y-113792000D01*
X146018464Y-112180000D01*
X145988894Y-112031341D01*
X145904686Y-111905314D01*
X145778659Y-111821106D01*
X145630000Y-111791536D01*
X143930000Y-111791536D01*
X143781341Y-111821106D01*
X143655314Y-111905314D01*
X143571106Y-112031341D01*
X143541536Y-112180000D01*
X143541536Y-113792000D01*
X143212420Y-113792000D01*
X140856588Y-111436168D01*
X140828247Y-111393753D01*
X140660212Y-111281475D01*
X140512032Y-111252000D01*
X140512028Y-111252000D01*
X140462000Y-111242049D01*
X140411972Y-111252000D01*
X116509027Y-111252000D01*
X116458999Y-111242049D01*
X116408971Y-111252000D01*
X116408968Y-111252000D01*
X116260788Y-111281475D01*
X116135167Y-111365412D01*
X116135165Y-111365414D01*
X116092753Y-111393753D01*
X116064414Y-111436165D01*
X113976168Y-113524412D01*
X113933753Y-113552753D01*
X113821475Y-113720789D01*
X113792000Y-113868969D01*
X113792000Y-113868972D01*
X113782049Y-113919000D01*
X113792000Y-113969028D01*
X113792000Y-114428924D01*
X113412499Y-114682499D01*
X113140424Y-115089688D01*
X113044884Y-115570000D01*
X113140424Y-116050312D01*
X113412499Y-116457501D01*
X113792000Y-116711076D01*
X113792001Y-116968924D01*
X113412499Y-117222499D01*
X113140424Y-117629688D01*
X113044884Y-118110000D01*
X113140424Y-118590312D01*
X113158925Y-118618000D01*
X112998464Y-118618000D01*
X112998464Y-117260000D01*
X112968894Y-117111341D01*
X112884686Y-116985314D01*
X112758659Y-116901106D01*
X112610000Y-116871536D01*
X112217200Y-116871536D01*
X112217200Y-116808464D01*
X112610000Y-116808464D01*
X112758659Y-116778894D01*
X112884686Y-116694686D01*
X112968894Y-116568659D01*
X112998464Y-116420000D01*
X112998464Y-114720000D01*
X112968894Y-114571341D01*
X112884686Y-114445314D01*
X112758659Y-114361106D01*
X112610000Y-114331536D01*
X110910000Y-114331536D01*
X110761341Y-114361106D01*
X110635314Y-114445314D01*
X110617000Y-114472723D01*
X110617000Y-109076007D01*
X142278100Y-109076007D01*
X142278100Y-109363993D01*
X142388307Y-109630056D01*
X142591944Y-109833693D01*
X142858007Y-109943900D01*
X143145993Y-109943900D01*
X143412056Y-109833693D01*
X143568549Y-109677200D01*
X143842585Y-109677200D01*
X143620424Y-110009688D01*
X143524884Y-110490000D01*
X143620424Y-110970312D01*
X143892499Y-111377501D01*
X144299688Y-111649576D01*
X144658761Y-111721000D01*
X144901239Y-111721000D01*
X145260312Y-111649576D01*
X145667501Y-111377501D01*
X145939576Y-110970312D01*
X146035116Y-110490000D01*
X145939576Y-110009688D01*
X145717415Y-109677200D01*
X146753451Y-109677200D01*
X146909944Y-109833693D01*
X147176007Y-109943900D01*
X147463993Y-109943900D01*
X147730056Y-109833693D01*
X147933693Y-109630056D01*
X148043900Y-109363993D01*
X148043900Y-109076007D01*
X147933693Y-108809944D01*
X147730056Y-108606307D01*
X147463993Y-108496100D01*
X147176007Y-108496100D01*
X146909944Y-108606307D01*
X146753451Y-108762800D01*
X145717415Y-108762800D01*
X145939576Y-108430312D01*
X146035116Y-107950000D01*
X151144884Y-107950000D01*
X151240424Y-108430312D01*
X151512499Y-108837501D01*
X151919688Y-109109576D01*
X152278761Y-109181000D01*
X152521239Y-109181000D01*
X152880312Y-109109576D01*
X153287501Y-108837501D01*
X153559576Y-108430312D01*
X153564173Y-108407200D01*
X154750622Y-108407200D01*
X154990800Y-108647378D01*
X154990801Y-110317965D01*
X154981843Y-110363000D01*
X155017327Y-110541390D01*
X155017328Y-110541391D01*
X155118378Y-110692623D01*
X155156552Y-110718130D01*
X155664870Y-111226449D01*
X155690377Y-111264623D01*
X155728551Y-111290130D01*
X155841609Y-111365673D01*
X156019999Y-111401157D01*
X156065029Y-111392200D01*
X156355654Y-111392200D01*
X156522739Y-111642261D01*
X156847233Y-111859081D01*
X157133384Y-111916000D01*
X157826616Y-111916000D01*
X158112767Y-111859081D01*
X158437261Y-111642261D01*
X158654081Y-111317767D01*
X158730218Y-110935000D01*
X158654081Y-110552233D01*
X158437261Y-110227739D01*
X158208213Y-110074694D01*
X158273701Y-110057647D01*
X158661933Y-109764125D01*
X158908286Y-109344376D01*
X158923462Y-109252609D01*
X158798731Y-109062000D01*
X157607000Y-109062000D01*
X157607000Y-109082000D01*
X157353000Y-109082000D01*
X157353000Y-109062000D01*
X156161269Y-109062000D01*
X156036538Y-109252609D01*
X156051714Y-109344376D01*
X156298067Y-109764125D01*
X156686299Y-110057647D01*
X156751787Y-110074694D01*
X156522739Y-110227739D01*
X156355654Y-110477800D01*
X156209379Y-110477800D01*
X155905200Y-110173622D01*
X155905200Y-108617391D01*
X156036538Y-108617391D01*
X156161269Y-108808000D01*
X157353000Y-108808000D01*
X157353000Y-107852453D01*
X157607000Y-107852453D01*
X157607000Y-108808000D01*
X158798731Y-108808000D01*
X158923462Y-108617391D01*
X158908286Y-108525624D01*
X158661933Y-108105875D01*
X158273701Y-107812353D01*
X157802696Y-107689744D01*
X157607000Y-107852453D01*
X157353000Y-107852453D01*
X157157304Y-107689744D01*
X156686299Y-107812353D01*
X156298067Y-108105875D01*
X156051714Y-108525624D01*
X156036538Y-108617391D01*
X155905200Y-108617391D01*
X155905200Y-108503024D01*
X155914156Y-108457999D01*
X155905200Y-108412974D01*
X155905200Y-108412970D01*
X155878673Y-108279609D01*
X155777623Y-108128377D01*
X155739446Y-108102868D01*
X155295132Y-107658554D01*
X155269623Y-107620377D01*
X155118391Y-107519327D01*
X154985030Y-107492800D01*
X154940000Y-107483843D01*
X154894970Y-107492800D01*
X153564173Y-107492800D01*
X153559576Y-107469688D01*
X153287501Y-107062499D01*
X152880312Y-106790424D01*
X152521239Y-106719000D01*
X152278761Y-106719000D01*
X151919688Y-106790424D01*
X151512499Y-107062499D01*
X151240424Y-107469688D01*
X151144884Y-107950000D01*
X146035116Y-107950000D01*
X145939576Y-107469688D01*
X145667501Y-107062499D01*
X145260312Y-106790424D01*
X144901239Y-106719000D01*
X144658761Y-106719000D01*
X144299688Y-106790424D01*
X143892499Y-107062499D01*
X143620424Y-107469688D01*
X143524884Y-107950000D01*
X143620424Y-108430312D01*
X143842585Y-108762800D01*
X143568549Y-108762800D01*
X143412056Y-108606307D01*
X143145993Y-108496100D01*
X142858007Y-108496100D01*
X142591944Y-108606307D01*
X142388307Y-108809944D01*
X142278100Y-109076007D01*
X110617000Y-109076007D01*
X110617000Y-101427277D01*
X110635314Y-101454686D01*
X110761341Y-101538894D01*
X110910000Y-101568464D01*
X112610000Y-101568464D01*
X112758659Y-101538894D01*
X112884686Y-101454686D01*
X112968894Y-101328659D01*
X112998464Y-101180000D01*
X112998464Y-100984895D01*
X113104817Y-101211358D01*
X113533076Y-101601645D01*
X113943110Y-101771476D01*
X114173000Y-101650155D01*
X114173000Y-100457000D01*
X114153000Y-100457000D01*
X114153000Y-100203000D01*
X114173000Y-100203000D01*
X114173000Y-97917000D01*
X114153000Y-97917000D01*
X114153000Y-97663000D01*
X114173000Y-97663000D01*
X114173000Y-97643000D01*
X114427000Y-97643000D01*
X114427000Y-97663000D01*
X114447000Y-97663000D01*
X114447000Y-97917000D01*
X114427000Y-97917000D01*
X114427000Y-100203000D01*
X114447000Y-100203000D01*
X114447000Y-100457000D01*
X114427000Y-100457000D01*
X114427000Y-101650155D01*
X114656890Y-101771476D01*
X115066924Y-101601645D01*
X115495183Y-101211358D01*
X115682245Y-100813037D01*
X115952499Y-101217501D01*
X116332001Y-101471076D01*
X116332000Y-103454972D01*
X116322049Y-103505000D01*
X116332000Y-103555028D01*
X116332000Y-103555031D01*
X116361475Y-103703211D01*
X116473753Y-103871247D01*
X116516168Y-103899588D01*
X117080414Y-104463835D01*
X117108753Y-104506247D01*
X117151165Y-104534586D01*
X117151167Y-104534588D01*
X117216286Y-104578098D01*
X117276788Y-104618525D01*
X117424968Y-104648000D01*
X117424972Y-104648000D01*
X117475000Y-104657951D01*
X117525028Y-104648000D01*
X143808642Y-104648000D01*
X143620424Y-104929688D01*
X143524884Y-105410000D01*
X143620424Y-105890312D01*
X143892499Y-106297501D01*
X144299688Y-106569576D01*
X144658761Y-106641000D01*
X144901239Y-106641000D01*
X145260312Y-106569576D01*
X145667501Y-106297501D01*
X145939576Y-105890312D01*
X146035116Y-105410000D01*
X145939576Y-104929688D01*
X145751358Y-104648000D01*
X147109580Y-104648000D01*
X148195414Y-105733835D01*
X148223753Y-105776247D01*
X148266165Y-105804586D01*
X148266167Y-105804588D01*
X148391788Y-105888525D01*
X148539968Y-105918000D01*
X148539971Y-105918000D01*
X148589999Y-105927951D01*
X148640027Y-105918000D01*
X151161536Y-105918000D01*
X151161536Y-106260000D01*
X151191106Y-106408659D01*
X151275314Y-106534686D01*
X151401341Y-106618894D01*
X151550000Y-106648464D01*
X153250000Y-106648464D01*
X153398659Y-106618894D01*
X153524686Y-106534686D01*
X153608894Y-106408659D01*
X153638464Y-106260000D01*
X153638464Y-104560000D01*
X153608894Y-104411341D01*
X153524686Y-104285314D01*
X153398659Y-104201106D01*
X153250000Y-104171536D01*
X151550000Y-104171536D01*
X151401341Y-104201106D01*
X151275314Y-104285314D01*
X151191106Y-104411341D01*
X151161536Y-104560000D01*
X151161536Y-104902000D01*
X148800421Y-104902000D01*
X147714587Y-103816167D01*
X147686247Y-103773753D01*
X147518212Y-103661475D01*
X147370032Y-103632000D01*
X147370028Y-103632000D01*
X147320000Y-103622049D01*
X147269972Y-103632000D01*
X145751358Y-103632000D01*
X145939576Y-103350312D01*
X146035116Y-102870000D01*
X145939576Y-102389688D01*
X145751358Y-102108000D01*
X147109580Y-102108000D01*
X148322412Y-103320832D01*
X148350753Y-103363247D01*
X148518788Y-103475525D01*
X148666968Y-103505000D01*
X148666971Y-103505000D01*
X148716999Y-103514951D01*
X148767027Y-103505000D01*
X156241536Y-103505000D01*
X156241536Y-103597000D01*
X156271106Y-103745659D01*
X156355314Y-103871686D01*
X156481341Y-103955894D01*
X156630000Y-103985464D01*
X158330000Y-103985464D01*
X158478659Y-103955894D01*
X158604686Y-103871686D01*
X158688894Y-103745659D01*
X158718464Y-103597000D01*
X158718464Y-102397000D01*
X158688894Y-102248341D01*
X158604686Y-102122314D01*
X158478659Y-102038106D01*
X158401779Y-102022814D01*
X158661933Y-101826125D01*
X158908286Y-101406376D01*
X158923462Y-101314609D01*
X158798731Y-101124000D01*
X157607000Y-101124000D01*
X157607000Y-101144000D01*
X157353000Y-101144000D01*
X157353000Y-101124000D01*
X156161269Y-101124000D01*
X156036538Y-101314609D01*
X156051714Y-101406376D01*
X156298067Y-101826125D01*
X156558221Y-102022814D01*
X156481341Y-102038106D01*
X156355314Y-102122314D01*
X156271106Y-102248341D01*
X156241536Y-102397000D01*
X156241536Y-102489000D01*
X148927420Y-102489000D01*
X147876853Y-101438433D01*
X148207501Y-101217501D01*
X148479576Y-100810312D01*
X148575116Y-100330000D01*
X148479576Y-99849688D01*
X148207501Y-99442499D01*
X147800312Y-99170424D01*
X147777200Y-99165827D01*
X147777200Y-98954173D01*
X147800312Y-98949576D01*
X148207501Y-98677501D01*
X148479576Y-98270312D01*
X148575116Y-97790000D01*
X148479576Y-97309688D01*
X148461075Y-97282000D01*
X148718925Y-97282000D01*
X148700424Y-97309688D01*
G36*
X142322580Y-114339000D02*
X142118761Y-114339000D01*
X141759688Y-114410424D01*
X141352499Y-114682499D01*
X141080424Y-115089688D01*
X140984884Y-115570000D01*
X141080424Y-116050312D01*
X141352499Y-116457501D01*
X141759688Y-116729576D01*
X141782800Y-116734173D01*
X141782801Y-116945827D01*
X141759688Y-116950424D01*
X141352499Y-117222499D01*
X141080424Y-117629688D01*
X140984884Y-118110000D01*
X141080424Y-118590312D01*
X141098925Y-118618000D01*
X140841075Y-118618000D01*
X140859576Y-118590312D01*
X140955116Y-118110000D01*
X140859576Y-117629688D01*
X140587501Y-117222499D01*
X140180312Y-116950424D01*
X140157200Y-116945827D01*
X140157200Y-116734173D01*
X140180312Y-116729576D01*
X140587501Y-116457501D01*
X140859576Y-116050312D01*
X140955116Y-115570000D01*
X140859576Y-115089688D01*
X140587501Y-114682499D01*
X140180312Y-114410424D01*
X139821239Y-114339000D01*
X139578761Y-114339000D01*
X139219688Y-114410424D01*
X138812499Y-114682499D01*
X138540424Y-115089688D01*
X138444884Y-115570000D01*
X138540424Y-116050312D01*
X138812499Y-116457501D01*
X139219688Y-116729576D01*
X139242800Y-116734173D01*
X139242801Y-116945827D01*
X139219688Y-116950424D01*
X138812499Y-117222499D01*
X138540424Y-117629688D01*
X138444884Y-118110000D01*
X138540424Y-118590312D01*
X138558925Y-118618000D01*
X138301075Y-118618000D01*
X138319576Y-118590312D01*
X138415116Y-118110000D01*
X138319576Y-117629688D01*
X138047501Y-117222499D01*
X137640312Y-116950424D01*
X137617200Y-116945827D01*
X137617200Y-116734173D01*
X137640312Y-116729576D01*
X138047501Y-116457501D01*
X138319576Y-116050312D01*
X138415116Y-115570000D01*
X138319576Y-115089688D01*
X138047501Y-114682499D01*
X137640312Y-114410424D01*
X137281239Y-114339000D01*
X137038761Y-114339000D01*
X136679688Y-114410424D01*
X136272499Y-114682499D01*
X136000424Y-115089688D01*
X135904884Y-115570000D01*
X136000424Y-116050312D01*
X136272499Y-116457501D01*
X136679688Y-116729576D01*
X136702800Y-116734173D01*
X136702801Y-116945827D01*
X136679688Y-116950424D01*
X136272499Y-117222499D01*
X136000424Y-117629688D01*
X135904884Y-118110000D01*
X136000424Y-118590312D01*
X136018925Y-118618000D01*
X135761075Y-118618000D01*
X135779576Y-118590312D01*
X135875116Y-118110000D01*
X135779576Y-117629688D01*
X135507501Y-117222499D01*
X135100312Y-116950424D01*
X135077200Y-116945827D01*
X135077200Y-116734173D01*
X135100312Y-116729576D01*
X135507501Y-116457501D01*
X135779576Y-116050312D01*
X135875116Y-115570000D01*
X135779576Y-115089688D01*
X135507501Y-114682499D01*
X135100312Y-114410424D01*
X134741239Y-114339000D01*
X134498761Y-114339000D01*
X134139688Y-114410424D01*
X133732499Y-114682499D01*
X133460424Y-115089688D01*
X133364884Y-115570000D01*
X133460424Y-116050312D01*
X133732499Y-116457501D01*
X134139688Y-116729576D01*
X134162800Y-116734173D01*
X134162801Y-116945827D01*
X134139688Y-116950424D01*
X133732499Y-117222499D01*
X133460424Y-117629688D01*
X133364884Y-118110000D01*
X133460424Y-118590312D01*
X133478925Y-118618000D01*
X133221075Y-118618000D01*
X133239576Y-118590312D01*
X133335116Y-118110000D01*
X133239576Y-117629688D01*
X132967501Y-117222499D01*
X132560312Y-116950424D01*
X132537200Y-116945827D01*
X132537200Y-116734173D01*
X132560312Y-116729576D01*
X132967501Y-116457501D01*
X133239576Y-116050312D01*
X133335116Y-115570000D01*
X133239576Y-115089688D01*
X132967501Y-114682499D01*
X132560312Y-114410424D01*
X132201239Y-114339000D01*
X131958761Y-114339000D01*
X131599688Y-114410424D01*
X131192499Y-114682499D01*
X130920424Y-115089688D01*
X130824884Y-115570000D01*
X130920424Y-116050312D01*
X131192499Y-116457501D01*
X131599688Y-116729576D01*
X131622800Y-116734173D01*
X131622801Y-116945827D01*
X131599688Y-116950424D01*
X131192499Y-117222499D01*
X130920424Y-117629688D01*
X130824884Y-118110000D01*
X130920424Y-118590312D01*
X130938925Y-118618000D01*
X130681075Y-118618000D01*
X130699576Y-118590312D01*
X130795116Y-118110000D01*
X130699576Y-117629688D01*
X130427501Y-117222499D01*
X130020312Y-116950424D01*
X129997200Y-116945827D01*
X129997200Y-116734173D01*
X130020312Y-116729576D01*
X130427501Y-116457501D01*
X130699576Y-116050312D01*
X130795116Y-115570000D01*
X130699576Y-115089688D01*
X130427501Y-114682499D01*
X130020312Y-114410424D01*
X129661239Y-114339000D01*
X129418761Y-114339000D01*
X129059688Y-114410424D01*
X128652499Y-114682499D01*
X128380424Y-115089688D01*
X128284884Y-115570000D01*
X128380424Y-116050312D01*
X128652499Y-116457501D01*
X129059688Y-116729576D01*
X129082800Y-116734173D01*
X129082801Y-116945827D01*
X129059688Y-116950424D01*
X128652499Y-117222499D01*
X128380424Y-117629688D01*
X128284884Y-118110000D01*
X128380424Y-118590312D01*
X128398925Y-118618000D01*
X128141075Y-118618000D01*
X128159576Y-118590312D01*
X128255116Y-118110000D01*
X128159576Y-117629688D01*
X127887501Y-117222499D01*
X127480312Y-116950424D01*
X127457200Y-116945827D01*
X127457200Y-116734173D01*
X127480312Y-116729576D01*
X127887501Y-116457501D01*
X128159576Y-116050312D01*
X128255116Y-115570000D01*
X128159576Y-115089688D01*
X127887501Y-114682499D01*
X127480312Y-114410424D01*
X127121239Y-114339000D01*
X126878761Y-114339000D01*
X126519688Y-114410424D01*
X126112499Y-114682499D01*
X125840424Y-115089688D01*
X125744884Y-115570000D01*
X125840424Y-116050312D01*
X126112499Y-116457501D01*
X126519688Y-116729576D01*
X126542800Y-116734173D01*
X126542801Y-116945827D01*
X126519688Y-116950424D01*
X126112499Y-117222499D01*
X125840424Y-117629688D01*
X125744884Y-118110000D01*
X125840424Y-118590312D01*
X125858925Y-118618000D01*
X125601075Y-118618000D01*
X125619576Y-118590312D01*
X125715116Y-118110000D01*
X125619576Y-117629688D01*
X125347501Y-117222499D01*
X124940312Y-116950424D01*
X124917200Y-116945827D01*
X124917200Y-116734173D01*
X124940312Y-116729576D01*
X125347501Y-116457501D01*
X125619576Y-116050312D01*
X125715116Y-115570000D01*
X125619576Y-115089688D01*
X125347501Y-114682499D01*
X124940312Y-114410424D01*
X124581239Y-114339000D01*
X124338761Y-114339000D01*
X123979688Y-114410424D01*
X123572499Y-114682499D01*
X123300424Y-115089688D01*
X123204884Y-115570000D01*
X123300424Y-116050312D01*
X123572499Y-116457501D01*
X123979688Y-116729576D01*
X124002800Y-116734173D01*
X124002801Y-116945827D01*
X123979688Y-116950424D01*
X123572499Y-117222499D01*
X123300424Y-117629688D01*
X123204884Y-118110000D01*
X123300424Y-118590312D01*
X123318925Y-118618000D01*
X123061075Y-118618000D01*
X123079576Y-118590312D01*
X123175116Y-118110000D01*
X123079576Y-117629688D01*
X122807501Y-117222499D01*
X122400312Y-116950424D01*
X122377200Y-116945827D01*
X122377200Y-116734173D01*
X122400312Y-116729576D01*
X122807501Y-116457501D01*
X123079576Y-116050312D01*
X123175116Y-115570000D01*
X123079576Y-115089688D01*
X122807501Y-114682499D01*
X122400312Y-114410424D01*
X122041239Y-114339000D01*
X121798761Y-114339000D01*
X121439688Y-114410424D01*
X121032499Y-114682499D01*
X120760424Y-115089688D01*
X120664884Y-115570000D01*
X120760424Y-116050312D01*
X121032499Y-116457501D01*
X121439688Y-116729576D01*
X121462800Y-116734173D01*
X121462800Y-116945827D01*
X121439688Y-116950424D01*
X121032499Y-117222499D01*
X120760424Y-117629688D01*
X120664884Y-118110000D01*
X120760424Y-118590312D01*
X120778925Y-118618000D01*
X120521075Y-118618000D01*
X120539576Y-118590312D01*
X120635116Y-118110000D01*
X120539576Y-117629688D01*
X120267501Y-117222499D01*
X119860312Y-116950424D01*
X119837200Y-116945827D01*
X119837200Y-116734173D01*
X119860312Y-116729576D01*
X120267501Y-116457501D01*
X120539576Y-116050312D01*
X120635116Y-115570000D01*
X120539576Y-115089688D01*
X120267501Y-114682499D01*
X119860312Y-114410424D01*
X119501239Y-114339000D01*
X119258761Y-114339000D01*
X118899688Y-114410424D01*
X118492499Y-114682499D01*
X118220424Y-115089688D01*
X118124884Y-115570000D01*
X118220424Y-116050312D01*
X118492499Y-116457501D01*
X118899688Y-116729576D01*
X118922800Y-116734173D01*
X118922801Y-116945827D01*
X118899688Y-116950424D01*
X118492499Y-117222499D01*
X118220424Y-117629688D01*
X118124884Y-118110000D01*
X118220424Y-118590312D01*
X118238925Y-118618000D01*
X117981075Y-118618000D01*
X117999576Y-118590312D01*
X118095116Y-118110000D01*
X117999576Y-117629688D01*
X117727501Y-117222499D01*
X117320312Y-116950424D01*
X117297200Y-116945827D01*
X117297200Y-116734173D01*
X117320312Y-116729576D01*
X117727501Y-116457501D01*
X117999576Y-116050312D01*
X118095116Y-115570000D01*
X117999576Y-115089688D01*
X117727501Y-114682499D01*
X117320312Y-114410424D01*
X116961239Y-114339000D01*
X116718761Y-114339000D01*
X116359688Y-114410424D01*
X115952499Y-114682499D01*
X115680424Y-115089688D01*
X115584884Y-115570000D01*
X115680424Y-116050312D01*
X115952499Y-116457501D01*
X116359688Y-116729576D01*
X116382800Y-116734173D01*
X116382800Y-116945827D01*
X116359688Y-116950424D01*
X115952499Y-117222499D01*
X115680424Y-117629688D01*
X115584884Y-118110000D01*
X115680424Y-118590312D01*
X115698925Y-118618000D01*
X115441075Y-118618000D01*
X115459576Y-118590312D01*
X115555116Y-118110000D01*
X115459576Y-117629688D01*
X115187501Y-117222499D01*
X114808000Y-116968925D01*
X114808000Y-116711075D01*
X115187501Y-116457501D01*
X115459576Y-116050312D01*
X115555116Y-115570000D01*
X115459576Y-115089688D01*
X115187501Y-114682499D01*
X114808000Y-114428925D01*
X114808000Y-114129420D01*
X116669421Y-112268000D01*
X140251580Y-112268000D01*
X142322580Y-114339000D01*
X142322580Y-114339000D01*
G37*
X142322580Y-114339000D02*
X142118761Y-114339000D01*
X141759688Y-114410424D01*
X141352499Y-114682499D01*
X141080424Y-115089688D01*
X140984884Y-115570000D01*
X141080424Y-116050312D01*
X141352499Y-116457501D01*
X141759688Y-116729576D01*
X141782800Y-116734173D01*
X141782801Y-116945827D01*
X141759688Y-116950424D01*
X141352499Y-117222499D01*
X141080424Y-117629688D01*
X140984884Y-118110000D01*
X141080424Y-118590312D01*
X141098925Y-118618000D01*
X140841075Y-118618000D01*
X140859576Y-118590312D01*
X140955116Y-118110000D01*
X140859576Y-117629688D01*
X140587501Y-117222499D01*
X140180312Y-116950424D01*
X140157200Y-116945827D01*
X140157200Y-116734173D01*
X140180312Y-116729576D01*
X140587501Y-116457501D01*
X140859576Y-116050312D01*
X140955116Y-115570000D01*
X140859576Y-115089688D01*
X140587501Y-114682499D01*
X140180312Y-114410424D01*
X139821239Y-114339000D01*
X139578761Y-114339000D01*
X139219688Y-114410424D01*
X138812499Y-114682499D01*
X138540424Y-115089688D01*
X138444884Y-115570000D01*
X138540424Y-116050312D01*
X138812499Y-116457501D01*
X139219688Y-116729576D01*
X139242800Y-116734173D01*
X139242801Y-116945827D01*
X139219688Y-116950424D01*
X138812499Y-117222499D01*
X138540424Y-117629688D01*
X138444884Y-118110000D01*
X138540424Y-118590312D01*
X138558925Y-118618000D01*
X138301075Y-118618000D01*
X138319576Y-118590312D01*
X138415116Y-118110000D01*
X138319576Y-117629688D01*
X138047501Y-117222499D01*
X137640312Y-116950424D01*
X137617200Y-116945827D01*
X137617200Y-116734173D01*
X137640312Y-116729576D01*
X138047501Y-116457501D01*
X138319576Y-116050312D01*
X138415116Y-115570000D01*
X138319576Y-115089688D01*
X138047501Y-114682499D01*
X137640312Y-114410424D01*
X137281239Y-114339000D01*
X137038761Y-114339000D01*
X136679688Y-114410424D01*
X136272499Y-114682499D01*
X136000424Y-115089688D01*
X135904884Y-115570000D01*
X136000424Y-116050312D01*
X136272499Y-116457501D01*
X136679688Y-116729576D01*
X136702800Y-116734173D01*
X136702801Y-116945827D01*
X136679688Y-116950424D01*
X136272499Y-117222499D01*
X136000424Y-117629688D01*
X135904884Y-118110000D01*
X136000424Y-118590312D01*
X136018925Y-118618000D01*
X135761075Y-118618000D01*
X135779576Y-118590312D01*
X135875116Y-118110000D01*
X135779576Y-117629688D01*
X135507501Y-117222499D01*
X135100312Y-116950424D01*
X135077200Y-116945827D01*
X135077200Y-116734173D01*
X135100312Y-116729576D01*
X135507501Y-116457501D01*
X135779576Y-116050312D01*
X135875116Y-115570000D01*
X135779576Y-115089688D01*
X135507501Y-114682499D01*
X135100312Y-114410424D01*
X134741239Y-114339000D01*
X134498761Y-114339000D01*
X134139688Y-114410424D01*
X133732499Y-114682499D01*
X133460424Y-115089688D01*
X133364884Y-115570000D01*
X133460424Y-116050312D01*
X133732499Y-116457501D01*
X134139688Y-116729576D01*
X134162800Y-116734173D01*
X134162801Y-116945827D01*
X134139688Y-116950424D01*
X133732499Y-117222499D01*
X133460424Y-117629688D01*
X133364884Y-118110000D01*
X133460424Y-118590312D01*
X133478925Y-118618000D01*
X133221075Y-118618000D01*
X133239576Y-118590312D01*
X133335116Y-118110000D01*
X133239576Y-117629688D01*
X132967501Y-117222499D01*
X132560312Y-116950424D01*
X132537200Y-116945827D01*
X132537200Y-116734173D01*
X132560312Y-116729576D01*
X132967501Y-116457501D01*
X133239576Y-116050312D01*
X133335116Y-115570000D01*
X133239576Y-115089688D01*
X132967501Y-114682499D01*
X132560312Y-114410424D01*
X132201239Y-114339000D01*
X131958761Y-114339000D01*
X131599688Y-114410424D01*
X131192499Y-114682499D01*
X130920424Y-115089688D01*
X130824884Y-115570000D01*
X130920424Y-116050312D01*
X131192499Y-116457501D01*
X131599688Y-116729576D01*
X131622800Y-116734173D01*
X131622801Y-116945827D01*
X131599688Y-116950424D01*
X131192499Y-117222499D01*
X130920424Y-117629688D01*
X130824884Y-118110000D01*
X130920424Y-118590312D01*
X130938925Y-118618000D01*
X130681075Y-118618000D01*
X130699576Y-118590312D01*
X130795116Y-118110000D01*
X130699576Y-117629688D01*
X130427501Y-117222499D01*
X130020312Y-116950424D01*
X129997200Y-116945827D01*
X129997200Y-116734173D01*
X130020312Y-116729576D01*
X130427501Y-116457501D01*
X130699576Y-116050312D01*
X130795116Y-115570000D01*
X130699576Y-115089688D01*
X130427501Y-114682499D01*
X130020312Y-114410424D01*
X129661239Y-114339000D01*
X129418761Y-114339000D01*
X129059688Y-114410424D01*
X128652499Y-114682499D01*
X128380424Y-115089688D01*
X128284884Y-115570000D01*
X128380424Y-116050312D01*
X128652499Y-116457501D01*
X129059688Y-116729576D01*
X129082800Y-116734173D01*
X129082801Y-116945827D01*
X129059688Y-116950424D01*
X128652499Y-117222499D01*
X128380424Y-117629688D01*
X128284884Y-118110000D01*
X128380424Y-118590312D01*
X128398925Y-118618000D01*
X128141075Y-118618000D01*
X128159576Y-118590312D01*
X128255116Y-118110000D01*
X128159576Y-117629688D01*
X127887501Y-117222499D01*
X127480312Y-116950424D01*
X127457200Y-116945827D01*
X127457200Y-116734173D01*
X127480312Y-116729576D01*
X127887501Y-116457501D01*
X128159576Y-116050312D01*
X128255116Y-115570000D01*
X128159576Y-115089688D01*
X127887501Y-114682499D01*
X127480312Y-114410424D01*
X127121239Y-114339000D01*
X126878761Y-114339000D01*
X126519688Y-114410424D01*
X126112499Y-114682499D01*
X125840424Y-115089688D01*
X125744884Y-115570000D01*
X125840424Y-116050312D01*
X126112499Y-116457501D01*
X126519688Y-116729576D01*
X126542800Y-116734173D01*
X126542801Y-116945827D01*
X126519688Y-116950424D01*
X126112499Y-117222499D01*
X125840424Y-117629688D01*
X125744884Y-118110000D01*
X125840424Y-118590312D01*
X125858925Y-118618000D01*
X125601075Y-118618000D01*
X125619576Y-118590312D01*
X125715116Y-118110000D01*
X125619576Y-117629688D01*
X125347501Y-117222499D01*
X124940312Y-116950424D01*
X124917200Y-116945827D01*
X124917200Y-116734173D01*
X124940312Y-116729576D01*
X125347501Y-116457501D01*
X125619576Y-116050312D01*
X125715116Y-115570000D01*
X125619576Y-115089688D01*
X125347501Y-114682499D01*
X124940312Y-114410424D01*
X124581239Y-114339000D01*
X124338761Y-114339000D01*
X123979688Y-114410424D01*
X123572499Y-114682499D01*
X123300424Y-115089688D01*
X123204884Y-115570000D01*
X123300424Y-116050312D01*
X123572499Y-116457501D01*
X123979688Y-116729576D01*
X124002800Y-116734173D01*
X124002801Y-116945827D01*
X123979688Y-116950424D01*
X123572499Y-117222499D01*
X123300424Y-117629688D01*
X123204884Y-118110000D01*
X123300424Y-118590312D01*
X123318925Y-118618000D01*
X123061075Y-118618000D01*
X123079576Y-118590312D01*
X123175116Y-118110000D01*
X123079576Y-117629688D01*
X122807501Y-117222499D01*
X122400312Y-116950424D01*
X122377200Y-116945827D01*
X122377200Y-116734173D01*
X122400312Y-116729576D01*
X122807501Y-116457501D01*
X123079576Y-116050312D01*
X123175116Y-115570000D01*
X123079576Y-115089688D01*
X122807501Y-114682499D01*
X122400312Y-114410424D01*
X122041239Y-114339000D01*
X121798761Y-114339000D01*
X121439688Y-114410424D01*
X121032499Y-114682499D01*
X120760424Y-115089688D01*
X120664884Y-115570000D01*
X120760424Y-116050312D01*
X121032499Y-116457501D01*
X121439688Y-116729576D01*
X121462800Y-116734173D01*
X121462800Y-116945827D01*
X121439688Y-116950424D01*
X121032499Y-117222499D01*
X120760424Y-117629688D01*
X120664884Y-118110000D01*
X120760424Y-118590312D01*
X120778925Y-118618000D01*
X120521075Y-118618000D01*
X120539576Y-118590312D01*
X120635116Y-118110000D01*
X120539576Y-117629688D01*
X120267501Y-117222499D01*
X119860312Y-116950424D01*
X119837200Y-116945827D01*
X119837200Y-116734173D01*
X119860312Y-116729576D01*
X120267501Y-116457501D01*
X120539576Y-116050312D01*
X120635116Y-115570000D01*
X120539576Y-115089688D01*
X120267501Y-114682499D01*
X119860312Y-114410424D01*
X119501239Y-114339000D01*
X119258761Y-114339000D01*
X118899688Y-114410424D01*
X118492499Y-114682499D01*
X118220424Y-115089688D01*
X118124884Y-115570000D01*
X118220424Y-116050312D01*
X118492499Y-116457501D01*
X118899688Y-116729576D01*
X118922800Y-116734173D01*
X118922801Y-116945827D01*
X118899688Y-116950424D01*
X118492499Y-117222499D01*
X118220424Y-117629688D01*
X118124884Y-118110000D01*
X118220424Y-118590312D01*
X118238925Y-118618000D01*
X117981075Y-118618000D01*
X117999576Y-118590312D01*
X118095116Y-118110000D01*
X117999576Y-117629688D01*
X117727501Y-117222499D01*
X117320312Y-116950424D01*
X117297200Y-116945827D01*
X117297200Y-116734173D01*
X117320312Y-116729576D01*
X117727501Y-116457501D01*
X117999576Y-116050312D01*
X118095116Y-115570000D01*
X117999576Y-115089688D01*
X117727501Y-114682499D01*
X117320312Y-114410424D01*
X116961239Y-114339000D01*
X116718761Y-114339000D01*
X116359688Y-114410424D01*
X115952499Y-114682499D01*
X115680424Y-115089688D01*
X115584884Y-115570000D01*
X115680424Y-116050312D01*
X115952499Y-116457501D01*
X116359688Y-116729576D01*
X116382800Y-116734173D01*
X116382800Y-116945827D01*
X116359688Y-116950424D01*
X115952499Y-117222499D01*
X115680424Y-117629688D01*
X115584884Y-118110000D01*
X115680424Y-118590312D01*
X115698925Y-118618000D01*
X115441075Y-118618000D01*
X115459576Y-118590312D01*
X115555116Y-118110000D01*
X115459576Y-117629688D01*
X115187501Y-117222499D01*
X114808000Y-116968925D01*
X114808000Y-116711075D01*
X115187501Y-116457501D01*
X115459576Y-116050312D01*
X115555116Y-115570000D01*
X115459576Y-115089688D01*
X115187501Y-114682499D01*
X114808000Y-114428925D01*
X114808000Y-114129420D01*
X116669421Y-112268000D01*
X140251580Y-112268000D01*
X142322580Y-114339000D01*
G36*
X118220424Y-97309688D02*
X118124884Y-97790000D01*
X118220424Y-98270312D01*
X118492499Y-98677501D01*
X118899688Y-98949576D01*
X118922801Y-98954173D01*
X118922800Y-99165827D01*
X118899688Y-99170424D01*
X118492499Y-99442499D01*
X118220424Y-99849688D01*
X118124884Y-100330000D01*
X118220424Y-100810312D01*
X118492499Y-101217501D01*
X118899688Y-101489576D01*
X119258761Y-101561000D01*
X119501239Y-101561000D01*
X119860312Y-101489576D01*
X120267501Y-101217501D01*
X120539576Y-100810312D01*
X120635116Y-100330000D01*
X120539576Y-99849688D01*
X120267501Y-99442499D01*
X119860312Y-99170424D01*
X119837200Y-99165827D01*
X119837200Y-98954173D01*
X119860312Y-98949576D01*
X120267501Y-98677501D01*
X120539576Y-98270312D01*
X120635116Y-97790000D01*
X120539576Y-97309688D01*
X120521075Y-97282000D01*
X120778925Y-97282000D01*
X120760424Y-97309688D01*
X120664884Y-97790000D01*
X120760424Y-98270312D01*
X121032499Y-98677501D01*
X121439688Y-98949576D01*
X121462801Y-98954173D01*
X121462800Y-99165827D01*
X121439688Y-99170424D01*
X121032499Y-99442499D01*
X120760424Y-99849688D01*
X120664884Y-100330000D01*
X120760424Y-100810312D01*
X121032499Y-101217501D01*
X121439688Y-101489576D01*
X121798761Y-101561000D01*
X122041239Y-101561000D01*
X122400312Y-101489576D01*
X122807501Y-101217501D01*
X123079576Y-100810312D01*
X123175116Y-100330000D01*
X123079576Y-99849688D01*
X122807501Y-99442499D01*
X122400312Y-99170424D01*
X122377200Y-99165827D01*
X122377200Y-98954173D01*
X122400312Y-98949576D01*
X122807501Y-98677501D01*
X123079576Y-98270312D01*
X123175116Y-97790000D01*
X123079576Y-97309688D01*
X123061075Y-97282000D01*
X123318925Y-97282000D01*
X123300424Y-97309688D01*
X123204884Y-97790000D01*
X123300424Y-98270312D01*
X123572499Y-98677501D01*
X123979688Y-98949576D01*
X124002801Y-98954173D01*
X124002800Y-99165827D01*
X123979688Y-99170424D01*
X123572499Y-99442499D01*
X123300424Y-99849688D01*
X123204884Y-100330000D01*
X123300424Y-100810312D01*
X123572499Y-101217501D01*
X123979688Y-101489576D01*
X124338761Y-101561000D01*
X124581239Y-101561000D01*
X124940312Y-101489576D01*
X125347501Y-101217501D01*
X125619576Y-100810312D01*
X125715116Y-100330000D01*
X125619576Y-99849688D01*
X125347501Y-99442499D01*
X124940312Y-99170424D01*
X124917200Y-99165827D01*
X124917200Y-98954173D01*
X124940312Y-98949576D01*
X125347501Y-98677501D01*
X125619576Y-98270312D01*
X125715116Y-97790000D01*
X125619576Y-97309688D01*
X125601075Y-97282000D01*
X125858925Y-97282000D01*
X125840424Y-97309688D01*
X125744884Y-97790000D01*
X125840424Y-98270312D01*
X126112499Y-98677501D01*
X126519688Y-98949576D01*
X126542801Y-98954173D01*
X126542800Y-99165827D01*
X126519688Y-99170424D01*
X126112499Y-99442499D01*
X125840424Y-99849688D01*
X125744884Y-100330000D01*
X125840424Y-100810312D01*
X126112499Y-101217501D01*
X126519688Y-101489576D01*
X126878761Y-101561000D01*
X127121239Y-101561000D01*
X127480312Y-101489576D01*
X127887501Y-101217501D01*
X128159576Y-100810312D01*
X128255116Y-100330000D01*
X128159576Y-99849688D01*
X127887501Y-99442499D01*
X127480312Y-99170424D01*
X127457200Y-99165827D01*
X127457200Y-98954173D01*
X127480312Y-98949576D01*
X127887501Y-98677501D01*
X128159576Y-98270312D01*
X128255116Y-97790000D01*
X128159576Y-97309688D01*
X128141075Y-97282000D01*
X128398925Y-97282000D01*
X128380424Y-97309688D01*
X128284884Y-97790000D01*
X128380424Y-98270312D01*
X128652499Y-98677501D01*
X129059688Y-98949576D01*
X129082801Y-98954173D01*
X129082800Y-99165827D01*
X129059688Y-99170424D01*
X128652499Y-99442499D01*
X128380424Y-99849688D01*
X128284884Y-100330000D01*
X128380424Y-100810312D01*
X128652499Y-101217501D01*
X129059688Y-101489576D01*
X129418761Y-101561000D01*
X129661239Y-101561000D01*
X130020312Y-101489576D01*
X130427501Y-101217501D01*
X130699576Y-100810312D01*
X130795116Y-100330000D01*
X130699576Y-99849688D01*
X130427501Y-99442499D01*
X130020312Y-99170424D01*
X129997200Y-99165827D01*
X129997200Y-98954173D01*
X130020312Y-98949576D01*
X130427501Y-98677501D01*
X130699576Y-98270312D01*
X130795116Y-97790000D01*
X130699576Y-97309688D01*
X130681075Y-97282000D01*
X130938925Y-97282000D01*
X130920424Y-97309688D01*
X130824884Y-97790000D01*
X130920424Y-98270312D01*
X131192499Y-98677501D01*
X131599688Y-98949576D01*
X131622801Y-98954173D01*
X131622800Y-99165827D01*
X131599688Y-99170424D01*
X131192499Y-99442499D01*
X130920424Y-99849688D01*
X130824884Y-100330000D01*
X130920424Y-100810312D01*
X131192499Y-101217501D01*
X131599688Y-101489576D01*
X131958761Y-101561000D01*
X132201239Y-101561000D01*
X132560312Y-101489576D01*
X132967501Y-101217501D01*
X133239576Y-100810312D01*
X133335116Y-100330000D01*
X133239576Y-99849688D01*
X132967501Y-99442499D01*
X132560312Y-99170424D01*
X132537200Y-99165827D01*
X132537200Y-98954173D01*
X132560312Y-98949576D01*
X132967501Y-98677501D01*
X133239576Y-98270312D01*
X133335116Y-97790000D01*
X133239576Y-97309688D01*
X133221075Y-97282000D01*
X133478925Y-97282000D01*
X133460424Y-97309688D01*
X133364884Y-97790000D01*
X133460424Y-98270312D01*
X133732499Y-98677501D01*
X134139688Y-98949576D01*
X134162801Y-98954173D01*
X134162800Y-99165827D01*
X134139688Y-99170424D01*
X133732499Y-99442499D01*
X133460424Y-99849688D01*
X133364884Y-100330000D01*
X133460424Y-100810312D01*
X133732499Y-101217501D01*
X134139688Y-101489576D01*
X134498761Y-101561000D01*
X134741239Y-101561000D01*
X135100312Y-101489576D01*
X135507501Y-101217501D01*
X135779576Y-100810312D01*
X135875116Y-100330000D01*
X135779576Y-99849688D01*
X135507501Y-99442499D01*
X135100312Y-99170424D01*
X135077200Y-99165827D01*
X135077200Y-98954173D01*
X135100312Y-98949576D01*
X135507501Y-98677501D01*
X135779576Y-98270312D01*
X135875116Y-97790000D01*
X135779576Y-97309688D01*
X135761075Y-97282000D01*
X136018925Y-97282000D01*
X136000424Y-97309688D01*
X135904884Y-97790000D01*
X136000424Y-98270312D01*
X136272499Y-98677501D01*
X136679688Y-98949576D01*
X136702800Y-98954173D01*
X136702800Y-99165827D01*
X136679688Y-99170424D01*
X136272499Y-99442499D01*
X136000424Y-99849688D01*
X135904884Y-100330000D01*
X136000424Y-100810312D01*
X136272499Y-101217501D01*
X136679688Y-101489576D01*
X137038761Y-101561000D01*
X137281239Y-101561000D01*
X137640312Y-101489576D01*
X138047501Y-101217501D01*
X138319576Y-100810312D01*
X138415116Y-100330000D01*
X138319576Y-99849688D01*
X138047501Y-99442499D01*
X137640312Y-99170424D01*
X137617200Y-99165827D01*
X137617200Y-98954173D01*
X137640312Y-98949576D01*
X138047501Y-98677501D01*
X138319576Y-98270312D01*
X138415116Y-97790000D01*
X138319576Y-97309688D01*
X138301075Y-97282000D01*
X138558925Y-97282000D01*
X138540424Y-97309688D01*
X138444884Y-97790000D01*
X138540424Y-98270312D01*
X138812499Y-98677501D01*
X139219688Y-98949576D01*
X139242801Y-98954173D01*
X139242800Y-99165827D01*
X139219688Y-99170424D01*
X138812499Y-99442499D01*
X138540424Y-99849688D01*
X138444884Y-100330000D01*
X138540424Y-100810312D01*
X138812499Y-101217501D01*
X139219688Y-101489576D01*
X139578761Y-101561000D01*
X139821239Y-101561000D01*
X140180312Y-101489576D01*
X140587501Y-101217501D01*
X140859576Y-100810312D01*
X140955116Y-100330000D01*
X140859576Y-99849688D01*
X140587501Y-99442499D01*
X140180312Y-99170424D01*
X140157200Y-99165827D01*
X140157200Y-98954173D01*
X140180312Y-98949576D01*
X140587501Y-98677501D01*
X140859576Y-98270312D01*
X140955116Y-97790000D01*
X140859576Y-97309688D01*
X140841075Y-97282000D01*
X141098925Y-97282000D01*
X141080424Y-97309688D01*
X140984884Y-97790000D01*
X141080424Y-98270312D01*
X141352499Y-98677501D01*
X141759688Y-98949576D01*
X141782801Y-98954173D01*
X141782800Y-99165827D01*
X141759688Y-99170424D01*
X141352499Y-99442499D01*
X141080424Y-99849688D01*
X140984884Y-100330000D01*
X141080424Y-100810312D01*
X141352499Y-101217501D01*
X141759688Y-101489576D01*
X142118761Y-101561000D01*
X142361239Y-101561000D01*
X142720312Y-101489576D01*
X143127501Y-101217501D01*
X143399576Y-100810312D01*
X143495116Y-100330000D01*
X143399576Y-99849688D01*
X143127501Y-99442499D01*
X142720312Y-99170424D01*
X142697200Y-99165827D01*
X142697200Y-98954173D01*
X142720312Y-98949576D01*
X143127501Y-98677501D01*
X143399576Y-98270312D01*
X143495116Y-97790000D01*
X143399576Y-97309688D01*
X143381075Y-97282000D01*
X143638925Y-97282000D01*
X143620424Y-97309688D01*
X143524884Y-97790000D01*
X143620424Y-98270312D01*
X143892499Y-98677501D01*
X144299688Y-98949576D01*
X144322801Y-98954173D01*
X144322800Y-99165827D01*
X144299688Y-99170424D01*
X143892499Y-99442499D01*
X143620424Y-99849688D01*
X143524884Y-100330000D01*
X143620424Y-100810312D01*
X143808642Y-101092000D01*
X143560028Y-101092000D01*
X143510000Y-101082049D01*
X143459972Y-101092000D01*
X143459968Y-101092000D01*
X143311788Y-101121475D01*
X143186167Y-101205412D01*
X143186165Y-101205414D01*
X143143753Y-101233753D01*
X143115414Y-101276165D01*
X142283580Y-102108000D01*
X121399236Y-102108000D01*
X121153578Y-101862342D01*
X120826833Y-101727000D01*
X120473167Y-101727000D01*
X120146422Y-101862342D01*
X119896342Y-102112422D01*
X119761000Y-102439167D01*
X119761000Y-102792833D01*
X119896342Y-103119578D01*
X120146422Y-103369658D01*
X120473167Y-103505000D01*
X120826833Y-103505000D01*
X121153578Y-103369658D01*
X121399236Y-103124000D01*
X142443972Y-103124000D01*
X142494000Y-103133951D01*
X142544028Y-103124000D01*
X142544032Y-103124000D01*
X142692212Y-103094525D01*
X142860247Y-102982247D01*
X142888588Y-102939832D01*
X143720421Y-102108000D01*
X143808642Y-102108000D01*
X143620424Y-102389688D01*
X143524884Y-102870000D01*
X143620424Y-103350312D01*
X143808642Y-103632000D01*
X117685421Y-103632000D01*
X117348000Y-103294580D01*
X117348000Y-101471075D01*
X117727501Y-101217501D01*
X117999576Y-100810312D01*
X118095116Y-100330000D01*
X117999576Y-99849688D01*
X117727501Y-99442499D01*
X117348000Y-99188925D01*
X117348000Y-98931075D01*
X117727501Y-98677501D01*
X117999576Y-98270312D01*
X118095116Y-97790000D01*
X117999576Y-97309688D01*
X117981075Y-97282000D01*
X118238925Y-97282000D01*
X118220424Y-97309688D01*
X118220424Y-97309688D01*
G37*
X118220424Y-97309688D02*
X118124884Y-97790000D01*
X118220424Y-98270312D01*
X118492499Y-98677501D01*
X118899688Y-98949576D01*
X118922801Y-98954173D01*
X118922800Y-99165827D01*
X118899688Y-99170424D01*
X118492499Y-99442499D01*
X118220424Y-99849688D01*
X118124884Y-100330000D01*
X118220424Y-100810312D01*
X118492499Y-101217501D01*
X118899688Y-101489576D01*
X119258761Y-101561000D01*
X119501239Y-101561000D01*
X119860312Y-101489576D01*
X120267501Y-101217501D01*
X120539576Y-100810312D01*
X120635116Y-100330000D01*
X120539576Y-99849688D01*
X120267501Y-99442499D01*
X119860312Y-99170424D01*
X119837200Y-99165827D01*
X119837200Y-98954173D01*
X119860312Y-98949576D01*
X120267501Y-98677501D01*
X120539576Y-98270312D01*
X120635116Y-97790000D01*
X120539576Y-97309688D01*
X120521075Y-97282000D01*
X120778925Y-97282000D01*
X120760424Y-97309688D01*
X120664884Y-97790000D01*
X120760424Y-98270312D01*
X121032499Y-98677501D01*
X121439688Y-98949576D01*
X121462801Y-98954173D01*
X121462800Y-99165827D01*
X121439688Y-99170424D01*
X121032499Y-99442499D01*
X120760424Y-99849688D01*
X120664884Y-100330000D01*
X120760424Y-100810312D01*
X121032499Y-101217501D01*
X121439688Y-101489576D01*
X121798761Y-101561000D01*
X122041239Y-101561000D01*
X122400312Y-101489576D01*
X122807501Y-101217501D01*
X123079576Y-100810312D01*
X123175116Y-100330000D01*
X123079576Y-99849688D01*
X122807501Y-99442499D01*
X122400312Y-99170424D01*
X122377200Y-99165827D01*
X122377200Y-98954173D01*
X122400312Y-98949576D01*
X122807501Y-98677501D01*
X123079576Y-98270312D01*
X123175116Y-97790000D01*
X123079576Y-97309688D01*
X123061075Y-97282000D01*
X123318925Y-97282000D01*
X123300424Y-97309688D01*
X123204884Y-97790000D01*
X123300424Y-98270312D01*
X123572499Y-98677501D01*
X123979688Y-98949576D01*
X124002801Y-98954173D01*
X124002800Y-99165827D01*
X123979688Y-99170424D01*
X123572499Y-99442499D01*
X123300424Y-99849688D01*
X123204884Y-100330000D01*
X123300424Y-100810312D01*
X123572499Y-101217501D01*
X123979688Y-101489576D01*
X124338761Y-101561000D01*
X124581239Y-101561000D01*
X124940312Y-101489576D01*
X125347501Y-101217501D01*
X125619576Y-100810312D01*
X125715116Y-100330000D01*
X125619576Y-99849688D01*
X125347501Y-99442499D01*
X124940312Y-99170424D01*
X124917200Y-99165827D01*
X124917200Y-98954173D01*
X124940312Y-98949576D01*
X125347501Y-98677501D01*
X125619576Y-98270312D01*
X125715116Y-97790000D01*
X125619576Y-97309688D01*
X125601075Y-97282000D01*
X125858925Y-97282000D01*
X125840424Y-97309688D01*
X125744884Y-97790000D01*
X125840424Y-98270312D01*
X126112499Y-98677501D01*
X126519688Y-98949576D01*
X126542801Y-98954173D01*
X126542800Y-99165827D01*
X126519688Y-99170424D01*
X126112499Y-99442499D01*
X125840424Y-99849688D01*
X125744884Y-100330000D01*
X125840424Y-100810312D01*
X126112499Y-101217501D01*
X126519688Y-101489576D01*
X126878761Y-101561000D01*
X127121239Y-101561000D01*
X127480312Y-101489576D01*
X127887501Y-101217501D01*
X128159576Y-100810312D01*
X128255116Y-100330000D01*
X128159576Y-99849688D01*
X127887501Y-99442499D01*
X127480312Y-99170424D01*
X127457200Y-99165827D01*
X127457200Y-98954173D01*
X127480312Y-98949576D01*
X127887501Y-98677501D01*
X128159576Y-98270312D01*
X128255116Y-97790000D01*
X128159576Y-97309688D01*
X128141075Y-97282000D01*
X128398925Y-97282000D01*
X128380424Y-97309688D01*
X128284884Y-97790000D01*
X128380424Y-98270312D01*
X128652499Y-98677501D01*
X129059688Y-98949576D01*
X129082801Y-98954173D01*
X129082800Y-99165827D01*
X129059688Y-99170424D01*
X128652499Y-99442499D01*
X128380424Y-99849688D01*
X128284884Y-100330000D01*
X128380424Y-100810312D01*
X128652499Y-101217501D01*
X129059688Y-101489576D01*
X129418761Y-101561000D01*
X129661239Y-101561000D01*
X130020312Y-101489576D01*
X130427501Y-101217501D01*
X130699576Y-100810312D01*
X130795116Y-100330000D01*
X130699576Y-99849688D01*
X130427501Y-99442499D01*
X130020312Y-99170424D01*
X129997200Y-99165827D01*
X129997200Y-98954173D01*
X130020312Y-98949576D01*
X130427501Y-98677501D01*
X130699576Y-98270312D01*
X130795116Y-97790000D01*
X130699576Y-97309688D01*
X130681075Y-97282000D01*
X130938925Y-97282000D01*
X130920424Y-97309688D01*
X130824884Y-97790000D01*
X130920424Y-98270312D01*
X131192499Y-98677501D01*
X131599688Y-98949576D01*
X131622801Y-98954173D01*
X131622800Y-99165827D01*
X131599688Y-99170424D01*
X131192499Y-99442499D01*
X130920424Y-99849688D01*
X130824884Y-100330000D01*
X130920424Y-100810312D01*
X131192499Y-101217501D01*
X131599688Y-101489576D01*
X131958761Y-101561000D01*
X132201239Y-101561000D01*
X132560312Y-101489576D01*
X132967501Y-101217501D01*
X133239576Y-100810312D01*
X133335116Y-100330000D01*
X133239576Y-99849688D01*
X132967501Y-99442499D01*
X132560312Y-99170424D01*
X132537200Y-99165827D01*
X132537200Y-98954173D01*
X132560312Y-98949576D01*
X132967501Y-98677501D01*
X133239576Y-98270312D01*
X133335116Y-97790000D01*
X133239576Y-97309688D01*
X133221075Y-97282000D01*
X133478925Y-97282000D01*
X133460424Y-97309688D01*
X133364884Y-97790000D01*
X133460424Y-98270312D01*
X133732499Y-98677501D01*
X134139688Y-98949576D01*
X134162801Y-98954173D01*
X134162800Y-99165827D01*
X134139688Y-99170424D01*
X133732499Y-99442499D01*
X133460424Y-99849688D01*
X133364884Y-100330000D01*
X133460424Y-100810312D01*
X133732499Y-101217501D01*
X134139688Y-101489576D01*
X134498761Y-101561000D01*
X134741239Y-101561000D01*
X135100312Y-101489576D01*
X135507501Y-101217501D01*
X135779576Y-100810312D01*
X135875116Y-100330000D01*
X135779576Y-99849688D01*
X135507501Y-99442499D01*
X135100312Y-99170424D01*
X135077200Y-99165827D01*
X135077200Y-98954173D01*
X135100312Y-98949576D01*
X135507501Y-98677501D01*
X135779576Y-98270312D01*
X135875116Y-97790000D01*
X135779576Y-97309688D01*
X135761075Y-97282000D01*
X136018925Y-97282000D01*
X136000424Y-97309688D01*
X135904884Y-97790000D01*
X136000424Y-98270312D01*
X136272499Y-98677501D01*
X136679688Y-98949576D01*
X136702800Y-98954173D01*
X136702800Y-99165827D01*
X136679688Y-99170424D01*
X136272499Y-99442499D01*
X136000424Y-99849688D01*
X135904884Y-100330000D01*
X136000424Y-100810312D01*
X136272499Y-101217501D01*
X136679688Y-101489576D01*
X137038761Y-101561000D01*
X137281239Y-101561000D01*
X137640312Y-101489576D01*
X138047501Y-101217501D01*
X138319576Y-100810312D01*
X138415116Y-100330000D01*
X138319576Y-99849688D01*
X138047501Y-99442499D01*
X137640312Y-99170424D01*
X137617200Y-99165827D01*
X137617200Y-98954173D01*
X137640312Y-98949576D01*
X138047501Y-98677501D01*
X138319576Y-98270312D01*
X138415116Y-97790000D01*
X138319576Y-97309688D01*
X138301075Y-97282000D01*
X138558925Y-97282000D01*
X138540424Y-97309688D01*
X138444884Y-97790000D01*
X138540424Y-98270312D01*
X138812499Y-98677501D01*
X139219688Y-98949576D01*
X139242801Y-98954173D01*
X139242800Y-99165827D01*
X139219688Y-99170424D01*
X138812499Y-99442499D01*
X138540424Y-99849688D01*
X138444884Y-100330000D01*
X138540424Y-100810312D01*
X138812499Y-101217501D01*
X139219688Y-101489576D01*
X139578761Y-101561000D01*
X139821239Y-101561000D01*
X140180312Y-101489576D01*
X140587501Y-101217501D01*
X140859576Y-100810312D01*
X140955116Y-100330000D01*
X140859576Y-99849688D01*
X140587501Y-99442499D01*
X140180312Y-99170424D01*
X140157200Y-99165827D01*
X140157200Y-98954173D01*
X140180312Y-98949576D01*
X140587501Y-98677501D01*
X140859576Y-98270312D01*
X140955116Y-97790000D01*
X140859576Y-97309688D01*
X140841075Y-97282000D01*
X141098925Y-97282000D01*
X141080424Y-97309688D01*
X140984884Y-97790000D01*
X141080424Y-98270312D01*
X141352499Y-98677501D01*
X141759688Y-98949576D01*
X141782801Y-98954173D01*
X141782800Y-99165827D01*
X141759688Y-99170424D01*
X141352499Y-99442499D01*
X141080424Y-99849688D01*
X140984884Y-100330000D01*
X141080424Y-100810312D01*
X141352499Y-101217501D01*
X141759688Y-101489576D01*
X142118761Y-101561000D01*
X142361239Y-101561000D01*
X142720312Y-101489576D01*
X143127501Y-101217501D01*
X143399576Y-100810312D01*
X143495116Y-100330000D01*
X143399576Y-99849688D01*
X143127501Y-99442499D01*
X142720312Y-99170424D01*
X142697200Y-99165827D01*
X142697200Y-98954173D01*
X142720312Y-98949576D01*
X143127501Y-98677501D01*
X143399576Y-98270312D01*
X143495116Y-97790000D01*
X143399576Y-97309688D01*
X143381075Y-97282000D01*
X143638925Y-97282000D01*
X143620424Y-97309688D01*
X143524884Y-97790000D01*
X143620424Y-98270312D01*
X143892499Y-98677501D01*
X144299688Y-98949576D01*
X144322801Y-98954173D01*
X144322800Y-99165827D01*
X144299688Y-99170424D01*
X143892499Y-99442499D01*
X143620424Y-99849688D01*
X143524884Y-100330000D01*
X143620424Y-100810312D01*
X143808642Y-101092000D01*
X143560028Y-101092000D01*
X143510000Y-101082049D01*
X143459972Y-101092000D01*
X143459968Y-101092000D01*
X143311788Y-101121475D01*
X143186167Y-101205412D01*
X143186165Y-101205414D01*
X143143753Y-101233753D01*
X143115414Y-101276165D01*
X142283580Y-102108000D01*
X121399236Y-102108000D01*
X121153578Y-101862342D01*
X120826833Y-101727000D01*
X120473167Y-101727000D01*
X120146422Y-101862342D01*
X119896342Y-102112422D01*
X119761000Y-102439167D01*
X119761000Y-102792833D01*
X119896342Y-103119578D01*
X120146422Y-103369658D01*
X120473167Y-103505000D01*
X120826833Y-103505000D01*
X121153578Y-103369658D01*
X121399236Y-103124000D01*
X142443972Y-103124000D01*
X142494000Y-103133951D01*
X142544028Y-103124000D01*
X142544032Y-103124000D01*
X142692212Y-103094525D01*
X142860247Y-102982247D01*
X142888588Y-102939832D01*
X143720421Y-102108000D01*
X143808642Y-102108000D01*
X143620424Y-102389688D01*
X143524884Y-102870000D01*
X143620424Y-103350312D01*
X143808642Y-103632000D01*
X117685421Y-103632000D01*
X117348000Y-103294580D01*
X117348000Y-101471075D01*
X117727501Y-101217501D01*
X117999576Y-100810312D01*
X118095116Y-100330000D01*
X117999576Y-99849688D01*
X117727501Y-99442499D01*
X117348000Y-99188925D01*
X117348000Y-98931075D01*
X117727501Y-98677501D01*
X117999576Y-98270312D01*
X118095116Y-97790000D01*
X117999576Y-97309688D01*
X117981075Y-97282000D01*
X118238925Y-97282000D01*
X118220424Y-97309688D01*
M02*
